<?xml version="1.0" encoding="UTF-8" standalone="no"?>
<svg
   version="1.1"
   width="861px"
   height="859px"
   style="shape-rendering:geometricPrecision; text-rendering:geometricPrecision; image-rendering:optimizeQuality; fill-rule:evenodd; clip-rule:evenodd"
   id="svg3"
   sodipodi:docname="slot_background.svg"
   xml:space="preserve"
   inkscape:version="1.3 (0e150ed6c4, 2023-07-21)"
   xmlns:inkscape="http://www.inkscape.org/namespaces/inkscape"
   xmlns:sodipodi="http://sodipodi.sourceforge.net/DTD/sodipodi-0.dtd"
   xmlns:xlink="http://www.w3.org/1999/xlink"
   xmlns="http://www.w3.org/2000/svg"
   xmlns:svg="http://www.w3.org/2000/svg"><defs
     id="defs3"><linearGradient
       id="linearGradient28"
       inkscape:collect="always"><stop
         style="stop-color:#e78207;stop-opacity:1;"
         offset="0"
         id="stop28" /><stop
         style="stop-color:#000000;stop-opacity:0;"
         offset="1"
         id="stop29" /></linearGradient><radialGradient
       inkscape:collect="always"
       xlink:href="#linearGradient28"
       id="radialGradient29"
       cx="430.49506"
       cy="429.50043"
       fx="430.49506"
       fy="429.50043"
       r="361.11689"
       gradientTransform="matrix(1,0,0,1.0009183,0,-0.39439136)"
       gradientUnits="userSpaceOnUse" /></defs><sodipodi:namedview
     id="namedview3"
     pagecolor="#505050"
     bordercolor="#eeeeee"
     borderopacity="1"
     inkscape:showpageshadow="0"
     inkscape:pageopacity="0"
     inkscape:pagecheckerboard="0"
     inkscape:deskcolor="#505050"
     inkscape:zoom="0.70710678"
     inkscape:cx="408.00061"
     inkscape:cy="456.08387"
     inkscape:window-width="1920"
     inkscape:window-height="1057"
     inkscape:window-x="-8"
     inkscape:window-y="-8"
     inkscape:window-maximized="1"
     inkscape:current-layer="svg3" /><path
     id="path7"
     style="shape-rendering:geometricPrecision;text-rendering:geometricPrecision;image-rendering:optimizeQuality;fill-rule:evenodd;clip-rule:evenodd;display:inline;opacity:1;fill:#000000;fill-opacity:1;stroke:none;stroke-width:11.52;stroke-dasharray:none;stroke-opacity:1"
     d="M 317.39453,16.410156 239.24609,63.371094 C 181.16275,67.545926 114.48427,68.776994 32.029297,28.021484 50.704518,87.538146 81.609864,126.04839 70.730469,249.99414 L 22.591797,301.69141 53.46875,298.9668 c -13.14743,38.31351 -20.348306,93.70744 -21.40625,134.36718 0.746086,42.54704 8.392865,84.77729 21.40625,125.2168 l -30.876953,-2.72461 48.138672,51.69727 C 81.609817,731.46917 50.704518,769.97943 32.029297,829.49609 114.48427,788.74058 181.16275,789.97166 239.24609,794.14648 l 78.14844,46.96094 -20.7832,-35.99804 c 42.73125,15.54292 87.80832,23.65559 133.27734,23.98632 47.31624,-0.34631 94.19269,-9.11948 138.43164,-25.9082 l -21.89258,37.91992 78.14649,-46.96094 c 58.08327,-4.17482 124.76382,-5.4059 207.21875,35.34961 -18.67518,-59.51666 -49.5806,-98.02692 -38.70117,-221.97265 l 48.13867,-51.69727 -34.16211,-2.63086 c 0.96772,-2.82657 2.01641,-5.57979 2.9375,-8.44922 0.54062,-1.94294 1.00864,-3.88254 1.51953,-5.82421 0.51704,-1.92264 1.01966,-3.84913 1.50781,-5.7793 1.86725,-7.52509 3.48033,-15.03897 4.9043,-22.54492 0.56836,-2.4967 9.45707,-42.02801 9.74805,-77.26368 -0.76494,-26.04736 -4.01988,-66.89575 -9.74805,-92.05859 -1.42397,-7.50595 -3.03705,-15.01983 -4.9043,-22.54492 -0.48815,-1.93017 -0.99077,-3.85666 -1.50781,-5.7793 -0.51089,-1.94169 -0.97891,-3.88126 -1.51953,-5.82422 -0.92109,-2.86941 -1.96978,-5.62263 -2.9375,-8.44922 l 34.16211,3.01368 -48.13867,-51.69727 C 782.21223,126.04839 813.11779,87.538146 831.79297,28.021484 749.33804,68.776994 682.65749,67.545926 624.57422,63.371094 L 546.42773,16.410156 568.32031,54.330078 C 524.08136,37.541351 477.20491,28.768181 429.88867,28.421875 384.41965,28.752609 339.34258,36.865273 296.61133,52.408203 Z m 109.45313,51.648438 c 74.0751,0.404527 139.85821,19.311239 197.47851,56.429686 53.53217,-15.7516 107.1038,-31.518311 160.33789,-47.158202 -19.80974,48.520472 -38.6979,97.422662 -56.84179,146.632812 55.19156,81.39068 74.60705,171.90194 58.09765,271.56836 -11.00192,52.88917 -30.53355,99.46413 -58.37109,139.89063 18.22631,49.45986 37.20637,98.60783 57.11523,147.37109 -53.62958,-15.75609 -107.59719,-31.63834 -161.52929,-47.50781 -7.36497,4.73481 -14.88089,9.35845 -22.71485,13.74609 -87.77382,44.61592 -179.10718,53.61594 -274,27 -32.26447,-10.35652 -61.63767,-23.86215 -88.28711,-40.33398 -53.46185,15.73101 -106.96385,31.47609 -160.128904,47.0957 19.667681,-48.17249 38.425534,-96.7219 56.451174,-145.57422 -15.6309,-22.58793 -29.16081,-47.46388 -40.535158,-74.6875 -28.955342,-77.89484 -32.288656,-156.89516 -10,-237 C 96.278534,287.0295 113.0933,252.61723 134.16016,222.11133 116.2233,173.52726 97.565064,125.24166 78.003906,77.330078 130.84473,92.854426 184.02224,108.50428 237.15625,124.13867 c 18.6577,-11.68246 38.69654,-22.09643 60.26367,-31.10742 34.30194,-13.223074 69.63608,-21.389806 106,-24.5 7.89842,-0.356581 15.70802,-0.514816 23.42774,-0.472656 z"
     inkscape:label="Outline" /><path
     id="path23"
     style="clip-rule:evenodd;display:inline;opacity:0.6;fill:#000000;fill-opacity:1;fill-rule:evenodd;stroke:url(#radialGradient29);stroke-width:4.73683;image-rendering:optimizeQuality;shape-rendering:geometricPrecision;text-rendering:geometricPrecision"
     d="m 426.84766,68.058594 c -7.71972,-0.04216 -15.52931,0.116075 -23.42774,0.472656 -36.36396,3.110197 -71.69803,11.276913 -106,24.5 -21.56715,9.011 -41.60595,19.42495 -60.26367,31.10742 C 184.02219,108.50426 130.84478,92.854441 78.003906,77.330078 97.565083,125.24171 116.22329,173.52721 134.16016,222.11133 c -21.06688,30.50593 -37.881614,64.91813 -50.240238,103.41992 -22.288678,80.10492 -18.955371,159.10508 10,237 11.374358,27.22365 24.904248,52.09955 40.535158,74.6875 -18.02566,48.85237 -36.783474,97.40168 -56.451174,145.57422 53.165104,-15.61962 106.666994,-31.36467 160.128904,-47.0957 26.64946,16.47185 56.02261,29.97745 88.28711,40.33398 94.89291,26.61597 186.22609,17.61596 274,-27 7.83397,-4.38764 15.34988,-9.01127 22.71485,-13.74609 53.93216,15.86949 107.89965,31.75171 161.52929,47.50781 -19.90888,-48.76331 -38.8889,-97.91118 -57.11523,-147.37109 27.83757,-40.42654 47.36916,-87.00141 58.37109,-139.89063 16.50941,-99.66652 -2.90603,-190.1776 -58.09765,-271.56836 C 745.96618,174.75269 764.8543,125.8506 784.66406,77.330078 731.42991,92.969985 677.85839,108.73666 624.32617,124.48828 566.70581,87.369795 500.92284,68.463122 426.84766,68.058594 Z"
     inkscape:label="Background" /><path
     id="path22"
     style="clip-rule:evenodd;display:inline;opacity:0.5;fill:#000000;fill-opacity:1;fill-rule:evenodd;stroke:none;stroke-width:1.73061;stroke-opacity:1;image-rendering:optimizeQuality;shape-rendering:geometricPrecision;text-rendering:geometricPrecision"
     d="m 128.10547,122.27344 c 11.11992,27.23627 21.5218,54.7686 31.20508,82.59961 17.77939,0.20436 35.52204,0.002 53.23047,-0.61133 1.14257,-17.9605 0.8185,-38.42808 -1.22266,-57.51563 -27.84815,-8.20011 -55.58503,-16.35575 -83.21289,-24.47265 z m 605.25976,0 c -27.62786,8.11691 -55.36473,16.27254 -83.21289,24.47265 -2.04115,19.08755 -2.36522,39.55514 -1.22265,57.51563 17.70843,0.61303 35.45107,0.81569 53.23047,0.61133 9.68328,-27.83102 20.08515,-55.36334 31.20507,-82.59961 z M 172.63867,654.30469 c -4.44042,9e-5 -8.88328,0.0251 -13.32812,0.0762 -9.68328,27.83101 -20.08515,55.36529 -31.20508,82.60156 27.62786,-8.11691 55.36474,-16.27253 83.21289,-24.47265 2.04116,-19.08756 2.36522,-39.55514 1.22266,-57.51563 -13.28133,-0.45977 -26.58107,-0.68974 -39.90235,-0.68945 z m 516.19336,0 c -13.32128,-2.9e-4 -26.62102,0.22968 -39.90234,0.68945 -1.14257,17.96049 -0.8185,38.42807 1.22265,57.51563 27.84816,8.20012 55.58503,16.35574 83.21289,24.47265 -11.11992,-27.23627 -21.52179,-54.77055 -31.20507,-82.60156 -4.44485,-0.0511 -8.8877,-0.0761 -13.32813,-0.0762 z"
     inkscape:label="Selected" /></svg>
