<?xml version="1.0" encoding="UTF-8" standalone="no"?>
<svg
   version="1.1"
   width="861px"
   height="859px"
   style="shape-rendering:geometricPrecision; text-rendering:geometricPrecision; image-rendering:optimizeQuality; fill-rule:evenodd; clip-rule:evenodd"
   id="svg3"
   sodipodi:docname="slot_active_background.svg"
   xml:space="preserve"
   inkscape:version="1.3 (0e150ed6c4, 2023-07-21)"
   xmlns:inkscape="http://www.inkscape.org/namespaces/inkscape"
   xmlns:sodipodi="http://sodipodi.sourceforge.net/DTD/sodipodi-0.dtd"
   xmlns="http://www.w3.org/2000/svg"
   xmlns:svg="http://www.w3.org/2000/svg"><defs
     id="defs3" /><sodipodi:namedview
     id="namedview3"
     pagecolor="#505050"
     bordercolor="#eeeeee"
     borderopacity="1"
     inkscape:showpageshadow="0"
     inkscape:pageopacity="0"
     inkscape:pagecheckerboard="0"
     inkscape:deskcolor="#505050"
     inkscape:zoom="0.70710678"
     inkscape:cx="313.2483"
     inkscape:cy="458.9123"
     inkscape:window-width="1920"
     inkscape:window-height="1057"
     inkscape:window-x="-8"
     inkscape:window-y="-8"
     inkscape:window-maximized="1"
     inkscape:current-layer="svg3" /><path
     id="path23-5"
     style="clip-rule:evenodd;display:inline;opacity:1;fill:#000000;fill-opacity:0.49522674;fill-rule:evenodd;stroke:none;stroke-width:4.97646;stroke-dasharray:none;stroke-opacity:1;image-rendering:optimizeQuality;shape-rendering:geometricPrecision;text-rendering:geometricPrecision"
     d="m 426.61386,49.823128 c -8.11004,-0.0443 -16.31432,0.121942 -24.6121,0.496549 -38.20211,3.26742 -75.32238,11.84697 -111.35838,25.738494 C 267.98605,85.524689 246.93424,96.465074 227.33336,108.7381 171.51333,92.313359 115.64776,75.872425 60.135742,59.563293 80.685745,109.8969 100.28715,160.62327 119.13074,211.66336 96.998914,243.71138 79.33418,279.86315 66.350812,320.31123 42.935421,404.46552 46.437232,487.4592 76.856319,569.29176 88.805665,597.8916 103.0195,624.02499 119.44057,647.75478 100.5037,699.07667 80.797661,750.08019 60.135742,800.68789 115.98838,784.27869 172.19483,767.73771 228.35929,751.21146 c 27.99664,17.30452 58.85457,31.49284 92.75007,42.3729 99.68981,27.96143 195.63997,18.50646 287.85091,-28.36487 8.23002,-4.60944 16.12585,-9.4668 23.86316,-14.44097 56.65841,16.67171 113.35401,33.35678 169.69473,49.90937 C 781.60285,749.45956 761.6634,697.82722 742.51563,645.86707 771.76045,603.39694 792.27939,554.46768 803.83744,498.90486 821.1814,394.20013 800.78455,299.11364 742.80296,213.60851 761.86405,161.91069 781.70695,110.53657 802.51816,59.563293 746.59293,75.993809 690.31335,92.557508 634.07506,109.10538 573.54189,70.110525 504.43351,50.248105 426.61386,49.823128 Z"
     inkscape:label="Background" /><path
     id="path7"
     style="clip-rule:evenodd;display:inline;opacity:1;fill:#e78207;fill-opacity:1;fill-rule:evenodd;stroke:none;stroke-width:11.9673;stroke-dasharray:none;stroke-opacity:1;image-rendering:optimizeQuality;shape-rendering:geometricPrecision;text-rendering:geometricPrecision"
     d="M 312.95104,0.410156 231.77028,49.193278 C 171.43318,53.530102 102.16744,54.808938 16.513035,12.472028 35.912894,74.298063 68.017433,114.30259 56.715894,243.05769 L 6.7093401,296.76093 38.784384,293.9306 c -13.657578,39.80015 -21.137863,97.34348 -22.236858,139.58091 0.775036,44.19795 8.718526,88.06683 22.236858,130.07547 L 6.7093401,560.75665 56.715894,614.45989 C 68.017384,743.21497 35.912894,783.21951 16.513035,845.04555 102.16744,802.70864 171.43318,803.98748 231.77028,808.3243 l 81.18076,48.78312 -21.58963,-37.39484 c 44.38931,16.14602 91.21547,24.57348 138.44878,24.91704 49.15221,-0.35975 97.84757,-9.47334 143.80308,-26.91349 l -22.74205,39.39129 81.17874,-48.78312 c 60.33702,-4.33682 129.60492,-5.61566 215.25927,36.72125 C 827.90942,783.21951 795.8048,743.21497 807.10637,614.45989 l 50.00656,-53.70324 -35.48768,-2.73294 c 1.00527,-2.93625 2.09466,-5.7963 3.05149,-8.77707 0.56159,-2.01833 1.04777,-4.03319 1.57849,-6.0502 0.5371,-1.99724 1.05922,-3.99848 1.56631,-6.00355 1.93971,-7.81708 3.61538,-15.62251 5.0946,-23.41971 0.59041,-2.59358 9.82402,-43.65878 10.1263,-80.26167 -0.79463,-27.05806 -4.17586,-69.49145 -10.1263,-95.63066 -1.47922,-7.7972 -3.15489,-15.60263 -5.0946,-23.41971 -0.50709,-2.00507 -1.02921,-4.00631 -1.56631,-6.00355 -0.53072,-2.01703 -1.0169,-4.03186 -1.57849,-6.05021 -0.95683,-2.98075 -2.04622,-5.8408 -3.05149,-8.77707 l 35.48768,3.13062 -50.00656,-53.70324 C 795.80465,114.30259 827.90942,74.298063 847.30923,12.472028 761.65488,54.808938 692.38698,53.530102 632.04996,49.193278 L 550.87122,0.410156 573.61327,39.801451 C 527.65776,22.361286 478.9624,13.247699 429.81019,12.887955 c -47.23331,0.343567 -94.05947,8.77102 -138.44878,24.917048 z m 113.70015,53.652507 c 76.94937,0.420223 145.285,20.060556 205.14109,58.619277 55.60933,-16.362795 111.25966,-32.741288 166.55934,-48.98804 -20.5784,50.40317 -40.19946,101.20287 -59.04737,152.32248 57.33311,84.54881 77.50196,178.57209 60.35196,282.10578 -11.42882,54.94138 -31.71832,103.32355 -60.63601,145.31869 18.93353,51.379 38.65005,102.43402 59.33142,153.0894 -55.71052,-16.36746 -111.77219,-32.86598 -167.79697,-49.35122 -7.65074,4.91853 -15.4583,9.72158 -23.59623,14.27947 C 515.77879,807.80561 420.9015,817.15485 322.32664,789.50616 288.81024,778.74778 258.2973,764.7181 230.6138,747.60713 175.07752,763.94854 119.49953,780.30456 64.271556,796.53025 84.702385,746.48856 104.18808,696.05533 122.91316,645.30744 106.67574,621.84305 92.620844,596.00186 80.805147,567.7219 50.726277,486.80458 47.263623,404.73888 70.417126,321.5258 83.255278,281.5301 100.72249,245.78256 122.60679,214.09297 103.97394,163.62374 84.591729,113.46455 64.271556,63.6939 119.16272,79.820626 174.40363,96.077727 229.59935,112.31876 248.98101,100.183 269.7974,89.364946 292.20138,80.004311 327.8343,66.268153 364.53948,57.784535 402.3144,54.553659 c 8.2049,-0.370417 16.31753,-0.534792 24.33679,-0.490996 z"
     inkscape:label="Outline" /><path
     id="path22"
     style="clip-rule:evenodd;display:inline;opacity:1;fill:#e78207;fill-opacity:1;fill-rule:evenodd;stroke-width:1.79776;image-rendering:optimizeQuality;shape-rendering:geometricPrecision;text-rendering:geometricPrecision"
     d="m 116.31717,110.38116 c 11.55139,28.29309 22.35689,56.89374 32.4159,85.80465 18.46927,0.21229 36.90037,0.002 55.29593,-0.63505 1.1869,-18.65741 0.85025,-39.91917 -1.27011,-59.74736 -28.92871,-8.51829 -57.74184,-16.99039 -86.44172,-25.42224 z m 628.74512,0 c -28.69988,8.43186 -57.513,16.90395 -86.44173,25.42224 -2.12035,19.82819 -2.45699,41.08996 -1.27009,59.74736 18.39555,0.63682 36.82665,0.84734 55.29592,0.63505 10.05902,-28.91092 20.8645,-57.51156 32.4159,-85.80465 z M 162.57835,663.05635 c -4.61272,9e-5 -9.22797,0.0261 -13.84528,0.0791 -10.05901,28.91092 -20.8645,57.51358 -32.4159,85.80668 28.69988,-8.43186 57.51301,-16.90394 86.44172,-25.42224 2.12036,-19.8282 2.457,-41.08996 1.27011,-59.74736 -13.79668,-0.47761 -27.61248,-0.7165 -41.45065,-0.7162 z m 536.22275,0 c -13.83817,-3e-4 -27.65397,0.23859 -41.45063,0.7162 -1.1869,18.6574 -0.85026,39.91916 1.27009,59.74736 28.92873,8.5183 57.74185,16.99038 86.44173,25.42224 -11.5514,-28.2931 -22.35688,-56.89576 -32.4159,-85.80668 -4.61732,-0.0531 -9.23256,-0.079 -13.84529,-0.0791 z"
     inkscape:label="Selected" /></svg>
