<?xml version="1.0" encoding="UTF-8" standalone="no"?>
<svg
   version="1.1"
   width="861px"
   height="859px"
   style="shape-rendering:geometricPrecision; text-rendering:geometricPrecision; image-rendering:optimizeQuality; fill-rule:evenodd; clip-rule:evenodd"
   id="svg3"
   sodipodi:docname="slot_highlighted_background.svg"
   xml:space="preserve"
   inkscape:version="1.3 (0e150ed6c4, 2023-07-21)"
   xmlns:inkscape="http://www.inkscape.org/namespaces/inkscape"
   xmlns:sodipodi="http://sodipodi.sourceforge.net/DTD/sodipodi-0.dtd"
   xmlns:xlink="http://www.w3.org/1999/xlink"
   xmlns="http://www.w3.org/2000/svg"
   xmlns:svg="http://www.w3.org/2000/svg"><defs
     id="defs3"><linearGradient
       id="linearGradient67"
       inkscape:collect="always"><stop
         style="stop-color:#000000;stop-opacity:0.5;"
         offset="0.60917032"
         id="stop67" /><stop
         style="stop-color:#599ad6;stop-opacity:1;"
         offset="1"
         id="stop68" /></linearGradient><radialGradient
       inkscape:collect="always"
       xlink:href="#linearGradient67"
       id="radialGradient68"
       cx="430.5"
       cy="429.5"
       fx="430.5"
       fy="429.5"
       r="427.5"
       gradientTransform="translate(0)"
       gradientUnits="userSpaceOnUse" /></defs><sodipodi:namedview
     id="namedview3"
     pagecolor="#505050"
     bordercolor="#eeeeee"
     borderopacity="1"
     inkscape:showpageshadow="0"
     inkscape:pageopacity="0"
     inkscape:pagecheckerboard="0"
     inkscape:deskcolor="#505050"
     inkscape:zoom="0.70710678"
     inkscape:cx="221.32442"
     inkscape:cy="525.38034"
     inkscape:window-width="1920"
     inkscape:window-height="1057"
     inkscape:window-x="-8"
     inkscape:window-y="-8"
     inkscape:window-maximized="1"
     inkscape:current-layer="svg3" /><path
     style="clip-rule:evenodd;display:inline;fill:url(#radialGradient68);fill-opacity:0.5;fill-rule:evenodd;stroke:none;stroke-width:4;stroke-dasharray:none;stroke-opacity:1;image-rendering:optimizeQuality;shape-rendering:geometricPrecision;text-rendering:geometricPrecision"
     d="m 389,41.499998 -39.5,39.5 H 217.00001 c -101.7,0 -132.900006,0.3 -133.800006,1.2 -0.900001,0.9 -1.2,31.899992 -1.2,133.800002 V 348.5 L 42.500001,388 c -25.8,25.8 -39.4999998,40.2 -39.4999998,41.5 0,1.3 13.6999998,15.7 39.4999998,41.5 l 39.500003,39.5 v 132.6 c 0,102.3 0.299999,132.8 1.2,133.7 0.9,0.9 32.500006,1.2 133.800006,1.2 H 349.5 l 39.5,39.5 c 25.8,25.8 40.2,39.5 41.5,39.5 1.3,0 15.7,-13.7 41.5,-39.5 L 511.5,778 H 644 c 72.9,0 133.1,-0.4 133.8,-0.8 0.9,-0.7 1.2,-28.5 1.2,-133.8 V 510.5 L 818.5,471 C 844.2,445.3 858,430.8 858,429.5 858,428.2 844.2,413.7 818.5,388 L 779,348.5 V 215.4 c 0,-120.500004 -0.2,-133.200001 -1.6,-133.800001 -0.9,-0.3 -61,-0.6 -133.7,-0.6 H 511.5 l -39.5,-39.5 c -25.8,-25.8 -40.2,-39.5000007 -41.5,-39.5000007 -1.3,0 -15.7,13.7000007 -41.5,39.4999997 z"
     id="path65"
     inkscape:label="Background" /><path
     id="path50"
     style="shape-rendering:geometricPrecision;text-rendering:geometricPrecision;image-rendering:optimizeQuality;fill-rule:evenodd;clip-rule:evenodd;display:inline;fill:#599ad6;stroke-width:0.1"
     d="M 95 92 L 95 208.69922 L 95 325.40039 L 101 319.5 L 107 313.59961 L 107 208.80078 L 107 104 L 210.80078 104 L 314.59961 104 L 320.5 98 L 326.40039 92 L 210.69922 92 L 95 92 z M 387.40039 92 L 381.5 98 L 375.59961 104 L 565.30078 104 L 755 104 L 755 294.69922 L 755 485.40039 L 761 479.5 L 767 473.59961 L 767 282.80078 L 767 92 L 577.19922 92 L 387.40039 92 z M 106.5 374.90039 L 100.80078 380.69922 L 95 386.59961 L 95 575.30078 L 95 764 L 284.69922 764 L 474.5 764 L 480.5 758 L 486.5 752 L 296.69922 752 L 107 752 L 106.80078 563.5 L 106.5 374.90039 z M 766.69922 535 C 766.59922 535 763.89922 537.60078 760.69922 540.80078 L 755 546.59961 L 755 649.30078 L 755 752 L 651.19922 752 L 547.40039 752 L 541.5 758 L 535.59961 764 L 651.30078 764 L 767 764 L 767 649.5 C 767 586.50006 766.89922 535 766.69922 535 z "
     inkscape:label="Inner Horizontal" /><path
     id="path46"
     style="shape-rendering:geometricPrecision;text-rendering:geometricPrecision;image-rendering:optimizeQuality;fill-rule:evenodd;clip-rule:evenodd;display:inline;stroke:none;stroke-opacity:1;fill:#599ad6;stroke-width:0.1"
     d="M 431.5 20 L 226.19922 225.30078 L 21 430.5 L 50.5 460 L 80 489.5 L 80 481 L 80 472.5 L 59 451.5 L 38 430.5 L 234.69922 233.80078 L 431.5 37 L 451.5 57 L 471.59961 77.099609 L 479.80078 76.800781 L 488 76.5 L 459.80078 48.300781 L 431.5 20 z M 514.5 120 L 627 232.5 L 739.5 345 L 739.80078 336.80078 L 740.09961 328.59961 L 635.80078 224.30078 L 531.5 120 L 523 120 L 514.5 120 z M 783 371.5 L 783 380 L 783 388.5 L 804 409.5 L 825 430.5 L 628.30078 627.19922 L 431.5 824 L 409.5 802 L 387.40039 779.90039 L 379.19922 780.19922 L 371 780.5 L 401.19922 810.69922 L 431.5 841 L 636.80078 635.69922 L 842 430.5 L 812.5 401 L 783 371.5 z M 123 515.5 L 123 524 L 123 532.5 L 225.30078 634.80078 L 327.59961 737.09961 L 335.80078 736.80078 L 344 736.5 L 233.5 626 L 123 515.5 z "
     inkscape:label="Inner Vertical" /><path
     style="display:inline;fill:none;fill-opacity:1;stroke:#599ad6;stroke-width:4;stroke-dasharray:none;stroke-opacity:1"
     d="m 389,41.499998 -39.5,39.5 H 217.00001 c -101.7,0 -132.900006,0.3 -133.800006,1.2 -0.900001,0.9 -1.2,31.899992 -1.2,133.800002 V 348.5 L 42.500001,388 c -25.8,25.8 -39.4999998,40.2 -39.4999998,41.5 0,1.3 13.6999998,15.7 39.4999998,41.5 l 39.500003,39.5 v 132.6 c 0,102.3 0.299999,132.8 1.2,133.7 0.9,0.9 32.500006,1.2 133.800006,1.2 H 349.5 l 39.5,39.5 c 25.8,25.8 40.2,39.5 41.5,39.5 1.3,0 15.7,-13.7 41.5,-39.5 L 511.5,778 H 644 c 72.9,0 133.1,-0.4 133.8,-0.8 0.9,-0.7 1.2,-28.5 1.2,-133.8 V 510.5 L 818.5,471 C 844.2,445.3 858,430.8 858,429.5 858,428.2 844.2,413.7 818.5,388 L 779,348.5 V 215.4 c 0,-120.500004 -0.2,-133.200001 -1.6,-133.800001 -0.9,-0.3 -61,-0.6 -133.7,-0.6 H 511.5 l -39.5,-39.5 c -25.8,-25.8 -40.2,-39.5000007 -41.5,-39.5000007 -1.3,0 -15.7,13.7000007 -41.5,39.4999997 z"
     id="path1"
     inkscape:label="Outline Thin" /><g
     id="g58"
     inkscape:label="Small Pointer"
     style="display:inline"><path
       style="fill:#ffffff;fill-opacity:1;stroke:#ffffff;stroke-width:2.88917;stroke-linecap:butt;stroke-linejoin:miter;stroke-dasharray:none;stroke-opacity:1;paint-order:markers fill stroke"
       d="m 431.31392,51.528617 -24.06851,24.068507 h 46.92402 z"
       id="path55" /><path
       style="fill:#ffffff;fill-opacity:1;stroke:#ffffff;stroke-width:2.88917;stroke-linecap:butt;stroke-linejoin:miter;stroke-dasharray:none;stroke-opacity:1;paint-order:markers fill stroke"
       d="m 431.31392,809.67912 -24.06851,-24.06851 h 46.92402 z"
       id="path56" /><path
       style="fill:#ffffff;fill-opacity:1;stroke:#ffffff;stroke-width:2.88917;stroke-linecap:butt;stroke-linejoin:miter;stroke-dasharray:none;stroke-opacity:1;paint-order:markers fill stroke"
       d="m 53.923914,429.582 24.068507,24.06851 v -46.92402 z"
       id="path57" /><path
       style="fill:#ffffff;fill-opacity:1;stroke:#ffffff;stroke-width:2.88917;stroke-linecap:butt;stroke-linejoin:miter;stroke-dasharray:none;stroke-opacity:1;paint-order:markers fill stroke"
       d="M 807.36731,427.582 783.2988,451.65051 V 404.72649 Z"
       id="path58" /></g><g
     id="g62"
     inkscape:label="Texts"
     style="display:inline;fill:#ffffff;fill-opacity:1"><path
       id="text58"
       style="font-weight:bold;font-size:101.333px;font-family:'Mage Script';-inkscape-font-specification:'Mage Script, Bold';stroke-width:16.8989;paint-order:markers fill stroke;fill:#599ad6;fill-opacity:1"
       inkscape:transform-center-x="-9"
       inkscape:transform-center-y="13"
       d="M 7.7187887 189.84022 L 1.0882815 204.6356 L 0.99022571 204.63422 C 0.82529586 204.63422 0.67608465 204.65232 0.54414077 204.68532 L 0.79135193 205.27779 L -1.1877184 209.68202 C -1.715494 210.93549 -2.4072094 212.25476 -3.2648446 213.64016 C -6.101638 218.22522 -9.7303018 222.59579 -14.150422 226.75202 C -15.766734 228.40132 -18.670219 231.1235 -22.859436 234.91689 C -25.069497 236.96202 -26.702533 238.5114 -27.758084 239.56695 C -28.61572 240.35861 -29.589125 241.31528 -30.677662 242.43681 L -29.687436 246.7416 L -27.510873 246.7416 L -25.58014 246.69188 C -22.413487 246.52695 -18.224206 246.13089 -13.012422 245.50416 C -5.9204389 244.64654 -2.0281981 244.20167 -1.3354927 244.16867 C -1.2695208 245.19123 -1.1537745 246.24692 -0.98884464 247.33546 C -3.6607082 248.09413 -6.1681367 249.59469 -8.5101406 251.83774 C -11.017074 254.24571 -12.517633 256.90097 -13.012422 259.80374 C -13.342282 261.18914 -13.508225 262.57396 -13.508225 263.95937 C -13.508225 268.24755 -12.006286 272.37128 -9.0045629 276.3296 C -6.5306152 279.52924 -3.7442588 282.08686 -0.64357766 284.00005 C 1.5664823 285.41845 3.9414321 286.12551 6.4813518 286.12551 L 1.2374369 282.06931 C -1.3024828 279.92522 -3.51287 277.36898 -5.3930703 274.40024 C -7.3062565 271.26658 -8.2629294 268.1818 -8.2629294 265.14709 C -8.2629294 263.76168 -8.0662829 262.36014 -7.6704513 260.94174 C -6.6808722 256.98342 -4.2389925 254.41044 -0.34664805 253.22295 C 0.67591703 258.43473 2.4079678 262.82204 4.8489295 266.38453 C 6.0364244 268.19876 7.3891525 269.73278 8.9065071 270.98624 C 10.094002 271.97582 11.561095 272.46951 13.309352 272.46951 L 11.330281 269.30272 C 10.340703 267.88433 9.549973 266.33495 8.9562255 264.65267 C 7.7357446 261.65094 6.6954094 257.46166 5.8377741 252.08495 C 7.9488762 252.08495 10.076982 252.6121 12.22107 253.66765 C 14.563074 254.82216 16.541969 256.43846 18.158281 258.51658 C 20.434313 261.51831 21.572281 264.78438 21.572281 268.31388 C 21.572281 269.46839 21.474648 270.60635 21.276733 271.72788 C 20.551041 275.09244 19.247129 278.09494 17.366929 280.73382 C 17.300956 280.7998 17.268873 280.88207 17.268873 280.98103 C 17.268873 281.37687 18.059603 281.78828 19.642929 282.21709 C 22.215835 279.57821 24.145913 276.3456 25.432366 272.51923 C 26.092085 270.54007 26.422592 268.56118 26.422592 266.58202 C 26.422592 262.82162 25.234427 259.19295 22.859436 255.69644 C 20.913264 252.7277 18.340287 250.33602 15.140648 248.52179 C 12.072952 246.80652 8.8570758 245.95024 5.4925072 245.95024 C 5.0966756 245.95024 4.898648 245.93353 4.898648 245.90053 L 4.9980848 245.90053 C 4.8661409 245.10886 4.7657461 244.30002 4.6997742 243.47537 L 5.4925072 243.42565 C 7.4056934 243.32669 9.2534907 243.27788 11.034733 243.27788 C 14.696176 243.27788 18.009685 243.50937 20.978422 243.97117 C 23.45237 244.36701 25.811968 244.92762 28.055014 245.65332 L 31.517351 246.88937 L 32.160929 247.13796 L 33.298929 247.13796 C 34.255522 245.09283 35.079716 243.64109 35.772422 242.78346 L 33.942507 241.84295 L 32.607014 241.10132 C 27.296273 237.76973 21.473954 231.98088 15.140648 223.73439 C 11.578163 218.91844 8.4766518 214.11834 5.8377741 209.33537 C 4.8152091 207.48816 3.8264523 206.18425 2.8698592 205.42557 L 7.7187887 189.84022 z M 414.66012 606.73076 C 413.87928 605.96538 412.75821 605.18008 411.29446 604.37604 C 406.37955 601.63821 401.43162 598.43906 396.45074 594.77762 C 387.97334 588.31237 382.05201 582.35757 378.68745 576.91489 L 377.99553 575.47996 L 377.05502 573.65004 C 376.29634 574.11185 374.77905 574.85376 372.50302 575.87633 L 373.04716 577.55847 L 376.16423 586.46497 L 376.16423 587.05883 C 375.93333 586.36613 375.80085 586.01889 375.76787 586.01889 C 375.73487 586.01889 375.71815 586.06908 375.71815 586.16804 C 375.71815 586.43193 375.80043 587.09156 375.96536 588.14711 C 376.42717 591.11585 376.65866 594.41539 376.65866 598.04385 C 376.65866 599.92404 376.60984 601.90294 376.51088 603.98106 L 376.46116 604.77103 C 375.2077 604.83703 373.72249 604.98624 372.00722 605.21711 L 370.02815 605.51404 C 370.6219 604.29356 371.31499 602.39833 372.10666 599.82542 C 373.03026 596.75773 373.49187 593.90306 373.49187 591.26418 C 373.49187 587.96559 372.83224 584.96309 371.5128 582.25824 C 370.25933 579.15756 367.98339 576.81745 364.6848 575.23413 C 362.80459 574.31052 360.95818 573.84754 359.14395 573.84754 C 357.8575 573.84754 356.60241 574.07903 355.38192 574.54083 C 349.8073 576.05819 345.42137 579.14158 342.22173 583.79261 C 338.19744 589.86202 335.85457 598.12622 335.19485 608.58278 C 335.12885 609.96819 335.0968 611.31953 335.0968 612.63897 C 335.0968 617.12506 335.36037 621.41336 335.88815 625.50362 C 336.31696 629.5609 337.57068 632.77816 339.6488 635.15314 C 338.98908 632.05247 338.57629 628.76966 338.41136 625.30613 C 338.37836 623.98669 338.36164 622.63396 338.36164 621.24855 C 338.36164 617.25725 338.56105 613.18371 338.95688 609.02748 C 340.21035 599.59349 342.66758 592.36962 346.32902 587.35576 C 348.70402 583.79327 352.10119 581.5508 356.52131 580.6272 C 357.4779 580.3963 358.35229 580.28055 359.14395 580.28055 C 362.37658 580.28055 364.6344 581.84666 365.92085 584.98033 C 366.74551 586.82754 367.15829 588.88872 367.15829 591.16475 C 367.15829 595.68382 365.64238 600.99572 362.60767 607.09813 C 358.7813 608.18667 355.56404 609.60495 352.95815 611.3532 C 351.17691 612.57368 349.6108 613.92503 348.25838 615.40939 C 347.40074 616.333 346.42733 617.85029 345.3388 619.96139 C 347.12004 619.36765 348.62059 618.67593 349.84108 617.88427 C 351.25947 616.92768 352.8437 616.11883 354.59195 615.45911 C 356.30723 614.73342 357.70877 614.25508 358.79731 614.02418 L 358.84564 613.97585 C 358.7137 614.14077 357.0974 616.89505 353.99671 622.23878 C 351.62172 626.26306 349.89105 629.51102 348.80252 631.98497 C 348.24175 633.17246 347.87916 633.98131 347.71424 634.41013 L 347.16871 635.6959 L 346.97122 636.63641 L 346.97122 637.62525 L 349.00001 639.25906 L 349.74164 638.81297 C 351.22601 637.75742 352.44626 636.93323 353.40285 636.33948 C 355.71187 634.92108 357.74096 634.02996 359.48922 633.66711 C 360.94061 633.2383 362.32542 633.02492 363.64485 633.02492 L 363.74567 630.40227 C 363.21789 630.33627 362.67263 630.30421 362.11187 630.30421 C 361.15528 630.30421 360.11632 630.40322 358.9948 630.60114 C 357.27953 630.89802 355.30063 631.55765 353.05759 632.58021 C 354.24509 630.60105 355.91159 627.97789 358.05567 624.71227 C 361.35427 619.79736 363.74595 616.06968 365.23032 613.52976 C 365.52719 613.03497 365.70711 612.73793 365.77308 612.63897 C 367.48834 612.3421 369.63318 612.02971 372.20609 611.69985 C 373.69046 611.50193 374.76288 611.36945 375.4226 611.30348 C 375.3566 611.9632 374.89361 615.93772 374.03601 623.22762 C 373.40928 628.57135 372.99787 632.85964 372.79995 636.09227 L 372.70052 638.07272 L 372.70052 640.10013 L 376.80781 641.73255 L 377.54945 640.99092 C 378.44007 640.16626 379.31445 639.30861 380.17209 638.41799 C 381.19465 637.36243 382.7775 635.6792 384.92159 633.37018 C 388.84692 629.14798 391.65001 626.18033 393.33229 624.46506 C 397.58748 619.913 402.05845 616.2174 406.74246 613.38061 C 408.19385 612.457 409.57865 611.69973 410.89809 611.10599 L 415.15316 609.37275 L 415.69869 608.08697 C 415.47603 607.64166 415.12863 607.18999 414.66012 606.73076 z M 412.53052 608.23613 C 411.50796 608.30213 410.78277 608.4165 410.35395 608.58139 C 408.93555 609.04319 407.3848 609.70421 405.70252 610.56185 C 400.58969 613.10176 395.65988 616.59795 390.9099 621.05106 C 388.73283 622.96424 385.72895 625.78406 381.90257 629.51148 L 378.78688 632.38134 C 378.85288 631.88655 379.29775 628.80315 380.12238 623.12956 C 380.98001 617.42299 381.54063 613.29788 381.80452 610.75796 C 392.45899 609.53748 398.42913 608.92804 399.71559 608.92804 C 399.71559 607.24576 397.77015 606.1566 393.87781 605.66182 C 389.85352 605.10105 385.76325 604.82075 381.60702 604.82075 L 382.10145 604.82075 L 382.10145 604.5252 C 382.23339 602.61201 382.29894 600.76422 382.29894 598.98297 C 382.29894 595.3875 382.06882 592.03915 381.60702 588.93847 C 383.65215 591.01658 387.94044 594.23384 394.47167 598.58799 C 399.78241 601.98554 405.06085 604.87091 410.30562 607.2459 L 412.53052 608.23613 z M 2.0287888 208.09793 L 2.9692961 210.22616 C 5.212342 215.33899 7.9819662 220.50167 11.280563 225.71346 C 15.568739 232.17871 18.719067 236.34988 20.731211 238.23008 C 17.729488 237.80126 14.49826 237.58788 11.034733 237.58788 C 9.2534907 237.58788 7.4056934 237.63669 5.4925072 237.73565 C 5.3935493 237.73565 4.9974941 237.75237 4.3047887 237.78537 C 3.1832658 227.39479 2.622648 221.67149 2.622648 220.61593 C 0.90737756 220.61593 -0.18177408 222.56136 -0.64357766 226.45371 C -1.1713532 230.478 -1.4349296 234.53757 -1.4349296 238.62782 L -1.4349296 238.32951 C -3.6449895 238.56041 -7.5037654 239.07221 -13.012422 239.86388 C -17.333584 240.49061 -20.287265 240.88667 -21.870592 241.0516 C -21.111915 240.29292 -20.138509 239.28605 -18.951014 238.03258 C -15.289572 234.30517 -12.5353 231.38634 -10.688085 229.27523 C -6.3669229 224.6572 -2.9683701 219.82502 -0.49442232 214.77816 C 0.33022692 213.16185 0.95639352 211.64318 1.3852111 210.22478 L 2.0287888 208.09793 z M 2.338148 929.51534 L -0.33421844 929.86199 C -4.094619 932.20399 -7.1292004 936.17852 -9.4382182 941.78613 C -11.252446 946.66806 -12.160303 951.5337 -12.160303 956.38264 C -12.160303 958.75763 -11.945543 961.10049 -11.516725 963.40951 C -11.516725 963.64041 -11.416331 964.20103 -11.218415 965.09165 L -11.020922 965.93272 L -10.675655 966.92157 C -8.828441 967.35039 -7.2107553 967.79664 -5.8253445 968.25844 L -5.8253445 967.021 L -5.9247814 967.12044 C -5.4629778 966.55968 -4.7866138 965.71875 -3.8959926 964.59723 C -1.6529467 961.76043 -0.35041606 960.12602 0.012429611 959.6972 C 3.7068582 955.27709 6.3133006 952.95233 7.8306552 952.72143 L 8.1275848 953.01836 C 8.5234165 953.54613 8.7200629 954.0412 8.7200629 954.503 L 8.721444 955.44351 C 8.721444 956.79594 8.5722328 958.50987 8.275359 960.58799 C 7.7475836 964.0845 6.8578405 967.97812 5.6043737 972.2663 L 5.4552183 972.66129 C 2.8823127 972.92518 0.39161661 973.13994 -2.0163592 973.30486 C -3.7646156 973.40382 -5.4632014 973.45402 -7.1124998 973.45402 C -10.54304 973.45402 -13.627819 973.23926 -16.365655 972.81044 C -17.124332 972.71148 -20.338828 971.83709 -26.012414 970.18779 L -27.548162 969.64365 L -27.201514 974.39314 L -26.310725 975.38337 C -21.494774 978.45107 -16.182875 983.79367 -10.377344 991.41343 C -8.9259619 993.39258 -7.6234312 995.2892 -6.4689222 997.10343 C -7.9203049 999.14854 -9.553342 1001.1609 -11.36757 1003.1401 C -11.895346 1003.7338 -12.455963 1004.3112 -13.049711 1004.8719 L -13.495796 1005.3677 C -7.7562374 1001.7063 -4.7537396 999.87523 -4.4898518 999.87523 L -4.4401334 999.87523 C -4.4401334 999.90819 -4.4735984 999.95838 -4.5395703 1000.0244 C -1.0430575 1005.665 1.0850484 1010.3312 1.8437257 1014.0257 L 3.476148 1009.1781 L 4.8116407 1004.2795 C 5.3064302 1003.1909 5.9674428 1001.9693 6.7920921 1000.6169 C 9.397984 996.46066 12.728226 992.46938 16.7855 988.643 C 18.302854 987.15864 20.958113 984.65121 24.751499 981.12171 C 26.829615 979.20852 28.330174 977.75816 29.253781 976.76858 C 30.045444 976.04289 30.80409 975.28424 31.529781 974.49258 L 30.788147 975.23421 L 30.738429 969.98892 L 28.958232 969.9903 L 27.176655 970.04002 C 24.372848 970.20494 19.260358 970.74883 11.838514 971.67244 C 12.993023 968.37384 13.882766 964.85954 14.5095 961.13213 C 14.938317 958.75714 15.153077 956.72943 15.153077 955.04714 L 15.153077 954.10802 C 15.153077 952.35976 14.624543 950.84109 13.568992 949.55464 C 12.414484 947.74041 10.73263 946.83393 8.5225702 946.83393 L 7.8789926 946.83393 C 4.9102553 947.59261 2.3372779 948.97742 0.16020388 950.98957 C -0.49951551 951.68227 -1.2902447 952.59013 -2.2138519 953.71165 C -3.2364169 954.93214 -3.9797109 955.77306 -4.4415145 956.23486 C -4.903318 956.8616 -5.6773148 957.90055 -6.7658518 959.35193 C -6.9307816 958.26339 -7.013063 956.61363 -7.013063 954.40357 C -7.013063 950.67615 -6.4524452 946.83273 -5.3309222 942.87441 C -3.318778 936.11229 -0.76253316 931.65943 2.338148 929.51534 z M -329.38608 603.6938 C -331.23329 604.71636 -333.62497 605.32856 -336.56073 605.52647 C -337.48434 605.55947 -338.44101 605.57619 -339.43059 605.57619 C -343.09203 605.57619 -347.01774 605.26242 -351.20696 604.63568 L -351.30501 604.6343 C -350.71127 602.65514 -350.41422 600.56189 -350.41422 598.35182 C -350.41422 596.93343 -350.5969 595.66298 -350.95975 594.54146 C -351.38856 592.62827 -352.14582 590.99524 -353.23436 589.64281 L -354.57124 588.01039 C -355.132 589.26385 -355.41093 590.20379 -355.41093 590.83053 C -355.41093 591.06143 -355.38025 591.24273 -355.31425 591.37467 C -354.78647 592.62814 -354.47132 593.9474 -354.37236 595.33281 L -354.37374 595.72918 C -354.37374 597.7743 -355.03338 600.54531 -356.35282 604.04182 C -358.00211 603.84391 -358.84304 603.7449 -358.87603 603.7449 C -358.44721 602.19455 -358.23245 600.39557 -358.23245 598.35044 C -358.23245 596.93205 -358.41374 595.66298 -358.77659 594.54146 C -359.2384 592.62827 -360.02913 590.99524 -361.15065 589.64281 L -362.48752 588.01039 C -363.04829 589.26385 -363.32859 590.20241 -363.32859 590.82915 C -363.32859 591.06005 -363.29653 591.24273 -363.23053 591.37467 C -362.70276 592.59515 -362.42107 593.89768 -362.38808 595.28309 L -362.38808 595.82723 C -362.38808 597.77341 -362.9487 600.3143 -364.07022 603.44797 L -365.01073 603.44658 C -368.1444 603.44658 -371.13017 603.86075 -373.96696 604.6854 C -375.68223 605.44407 -376.86901 606.61413 -377.52873 608.19746 C -378.15546 609.64884 -378.5836 610.52323 -378.8145 610.82011 C -379.70512 612.53538 -380.87656 614.0192 -382.32794 615.27267 C -385.7255 618.20842 -389.43644 619.80799 -393.46073 620.07188 L -394.40124 620.07326 C -398.12865 620.07326 -401.44492 618.7038 -404.34769 615.96597 C -406.92059 613.525 -408.20639 610.90321 -408.20639 608.0994 C -408.20639 607.67058 -408.15619 607.2076 -408.05724 606.71281 C -407.85932 603.28227 -406.3253 600.59354 -403.45552 598.64737 C -401.67427 597.36092 -399.92687 596.71802 -398.2116 596.71802 C -397.255 596.71802 -396.2816 596.91605 -395.29203 597.31188 C -392.78509 598.10355 -391.02096 599.58875 -389.99839 601.76582 C -389.47062 602.82138 -389.20704 603.82687 -389.20704 604.78346 C -389.20704 605.4102 -389.33814 606.03774 -389.60203 606.66447 C -389.96487 607.88495 -390.51014 608.89044 -391.23583 609.68211 L -391.82831 610.3243 C -391.53143 611.47881 -391.13538 612.05616 -390.64059 612.05616 C -390.44267 612.05616 -390.21118 611.9418 -389.94729 611.71089 C -388.89174 610.7543 -388.00199 609.51594 -387.27631 607.99858 C -386.71554 606.91005 -386.43524 605.70653 -386.43524 604.38709 C -386.43524 603.16661 -386.69881 601.832 -387.22659 600.38061 C -388.48005 597.115 -390.77272 594.8558 -394.10431 593.60233 C -395.55569 592.94261 -397.07298 592.61073 -398.65631 592.61073 C -400.89935 592.61073 -403.22548 593.32193 -405.63346 594.74033 C -410.02059 597.4122 -412.42901 601.23751 -412.85783 606.21839 C -412.98978 607.01005 -413.05532 607.81751 -413.05532 608.64216 C -413.05532 612.89735 -411.25773 616.78959 -407.66225 620.31909 C -403.83588 624.07949 -399.41511 625.95937 -394.40124 625.95937 L -393.11546 625.96075 C -387.93666 625.63089 -383.20212 623.56834 -378.91394 619.77495 C -377.03374 618.0267 -375.51783 616.0478 -374.36332 613.83774 C -374.1654 613.54087 -373.68569 612.46982 -372.92701 610.62261 C -372.82806 610.35872 -372.5324 610.09377 -372.0376 609.82988 C -369.86053 609.07121 -367.78124 608.6598 -365.80208 608.59382 L -366.00096 609.13797 C -367.81519 613.72301 -368.72166 617.64734 -368.72166 620.91295 C -368.72166 622.89211 -368.39253 624.64089 -367.73282 626.15825 C -366.90816 628.07144 -365.80228 629.53991 -364.41687 630.56247 L -362.88389 631.75019 C -362.65298 630.89256 -362.53724 630.18273 -362.53724 629.62196 C -362.53724 629.06121 -362.63625 628.63306 -362.83417 628.33619 C -363.59284 627.21467 -364.11999 625.99304 -364.41687 624.6736 C -364.48287 624.37673 -364.51631 624.01413 -364.51631 623.58532 C -364.51631 621.04539 -363.41042 616.95513 -361.20036 611.31453 C -360.67259 610.02808 -360.31 609.05467 -360.11208 608.39495 C -359.55132 608.42795 -358.9098 608.46139 -358.18411 608.49439 L -357.73665 607.99997 C -358.00053 608.59371 -358.14974 608.98838 -358.18273 609.1863 C -359.96398 613.70538 -360.85372 617.58227 -360.85372 620.81489 C -360.85372 622.82704 -360.78955 623.98174 -360.6576 624.27861 L -360.85372 624.27861 C -359.53428 627.3793 -358.16758 629.4572 -356.74918 630.51275 L -355.21343 631.65075 C -354.98253 630.79312 -354.86817 630.08467 -354.86817 629.52391 C -354.86817 628.99613 -354.9658 628.58335 -355.16372 628.28647 C -355.9224 627.16495 -356.4342 625.9447 -356.69808 624.62526 C -356.79704 624.2954 -356.84724 623.93281 -356.84724 623.53698 C -356.84724 621.03004 -355.70927 616.95513 -353.43324 611.31453 C -352.97143 610.16002 -352.6744 609.3191 -352.54245 608.79132 L -351.50389 608.79132 C -349.32681 608.92326 -347.23079 608.98881 -345.21865 608.98881 C -342.11797 608.98881 -339.18378 608.80752 -336.41296 608.44467 C -332.52061 607.9169 -330.17775 606.33267 -329.38608 603.6938 z M 23.565162 975.43309 C 22.905442 976.09281 22.046402 976.96582 20.990851 978.05436 C 17.692255 981.51789 15.186207 984.20799 13.470937 986.12117 C 9.5126201 990.40935 6.411109 994.87756 4.168063 999.52858 C 3.3763997 1001.013 2.7836981 1002.4145 2.3878665 1003.7339 C 2.2229366 1004.0968 2.1071903 1004.7899 2.0412184 1005.8124 C 0.85372352 1002.9427 -0.49900456 1000.1229 -2.0163592 997.35202 C -0.8948362 995.93362 0.32541313 994.30059 1.6448519 992.45337 C 4.778519 987.76937 7.4505102 982.75451 9.6605702 977.41078 C 10.089388 977.3448 12.843661 976.95013 17.9235 976.22444 C 20.364461 975.86159 22.245723 975.59802 23.565162 975.43309 z M 3.476148 978.10407 C 1.9917793 982.19434 0.061701039 986.35015 -2.3132888 990.57236 C -3.2698819 992.25464 -3.8639646 993.29497 -4.0948664 993.69081 C -4.55667 992.89914 -5.446413 991.47948 -6.7658518 989.43436 C -10.691182 983.46389 -13.511003 979.67067 -15.226274 978.05436 C -12.521424 978.4172 -9.6193216 978.59988 -6.5186406 978.59988 L -4.2426407 978.59988 L -4.2923591 978.6496 C -0.43300066 978.45168 2.1567092 978.26901 3.476148 978.10407 z "
       transform="rotate(-45)" /></g></svg>
