<?xml version="1.0" encoding="UTF-8" standalone="no"?>
<svg
   version="1.1"
   width="861px"
   height="859px"
   style="shape-rendering:geometricPrecision; text-rendering:geometricPrecision; image-rendering:optimizeQuality; fill-rule:evenodd; clip-rule:evenodd"
   id="svg3"
   sodipodi:docname="slot_active_background.svg"
   xml:space="preserve"
   inkscape:version="1.3 (0e150ed6c4, 2023-07-21)"
   xmlns:inkscape="http://www.inkscape.org/namespaces/inkscape"
   xmlns:sodipodi="http://sodipodi.sourceforge.net/DTD/sodipodi-0.dtd"
   xmlns="http://www.w3.org/2000/svg"
   xmlns:svg="http://www.w3.org/2000/svg"><defs
     id="defs3" /><sodipodi:namedview
     id="namedview3"
     pagecolor="#505050"
     bordercolor="#eeeeee"
     borderopacity="1"
     inkscape:showpageshadow="0"
     inkscape:pageopacity="0"
     inkscape:pagecheckerboard="0"
     inkscape:deskcolor="#505050"
     inkscape:zoom="0.5"
     inkscape:cx="299"
     inkscape:cy="701"
     inkscape:window-width="1920"
     inkscape:window-height="1057"
     inkscape:window-x="-8"
     inkscape:window-y="-8"
     inkscape:window-maximized="1"
     inkscape:current-layer="svg3" /><path
     style="clip-rule:evenodd;display:inline;fill:#000000;fill-opacity:0.5;fill-rule:evenodd;stroke:none;stroke-width:4;stroke-dasharray:none;stroke-opacity:1;image-rendering:optimizeQuality;shape-rendering:geometricPrecision;text-rendering:geometricPrecision"
     d="m 389,41.499998 -39.5,39.5 H 217.00001 c -101.7,0 -132.900006,0.3 -133.800006,1.2 -0.900001,0.9 -1.2,31.899992 -1.2,133.800002 V 348.5 L 42.500001,388 c -25.8,25.8 -39.4999998,40.2 -39.4999998,41.5 0,1.3 13.6999998,15.7 39.4999998,41.5 l 39.500003,39.5 v 132.6 c 0,102.3 0.299999,132.8 1.2,133.7 0.9,0.9 32.500006,1.2 133.800006,1.2 H 349.5 l 39.5,39.5 c 25.8,25.8 40.2,39.5 41.5,39.5 1.3,0 15.7,-13.7 41.5,-39.5 L 511.5,778 H 644 c 72.9,0 133.1,-0.4 133.8,-0.8 0.9,-0.7 1.2,-28.5 1.2,-133.8 V 510.5 L 818.5,471 C 844.2,445.3 858,430.8 858,429.5 858,428.2 844.2,413.7 818.5,388 L 779,348.5 V 215.4 c 0,-120.500004 -0.2,-133.200001 -1.6,-133.800001 -0.9,-0.3 -61,-0.6 -133.7,-0.6 H 511.5 l -39.5,-39.5 c -25.8,-25.8 -40.2,-39.5000007 -41.5,-39.5000007 -1.3,0 -15.7,13.7000007 -41.5,39.4999997 z"
     id="path65"
     inkscape:label="Background" /><path
     id="path50"
     style="shape-rendering:geometricPrecision;text-rendering:geometricPrecision;image-rendering:optimizeQuality;fill-rule:evenodd;clip-rule:evenodd;display:inline;fill:#599ad6;stroke-width:0.1"
     d="M 95 92 L 95 208.69922 L 95 325.40039 L 101 319.5 L 107 313.59961 L 107 208.80078 L 107 104 L 210.80078 104 L 314.59961 104 L 320.5 98 L 326.40039 92 L 210.69922 92 L 95 92 z M 387.40039 92 L 381.5 98 L 375.59961 104 L 565.30078 104 L 755 104 L 755 294.69922 L 755 485.40039 L 761 479.5 L 767 473.59961 L 767 282.80078 L 767 92 L 577.19922 92 L 387.40039 92 z M 106.5 374.90039 L 100.80078 380.69922 L 95 386.59961 L 95 575.30078 L 95 764 L 284.69922 764 L 474.5 764 L 480.5 758 L 486.5 752 L 296.69922 752 L 107 752 L 106.80078 563.5 L 106.5 374.90039 z M 766.69922 535 C 766.59922 535 763.89922 537.60078 760.69922 540.80078 L 755 546.59961 L 755 649.30078 L 755 752 L 651.19922 752 L 547.40039 752 L 541.5 758 L 535.59961 764 L 651.30078 764 L 767 764 L 767 649.5 C 767 586.50006 766.89922 535 766.69922 535 z "
     inkscape:label="Inner Horizontal" /><path
     id="path46"
     style="shape-rendering:geometricPrecision;text-rendering:geometricPrecision;image-rendering:optimizeQuality;fill-rule:evenodd;clip-rule:evenodd;display:inline;stroke:none;stroke-opacity:1;fill:#599ad6;stroke-width:0.1"
     d="M 431.5 20 L 226.19922 225.30078 L 21 430.5 L 50.5 460 L 80 489.5 L 80 481 L 80 472.5 L 59 451.5 L 38 430.5 L 234.69922 233.80078 L 431.5 37 L 451.5 57 L 471.59961 77.099609 L 479.80078 76.800781 L 488 76.5 L 459.80078 48.300781 L 431.5 20 z M 514.5 120 L 627 232.5 L 739.5 345 L 739.80078 336.80078 L 740.09961 328.59961 L 635.80078 224.30078 L 531.5 120 L 523 120 L 514.5 120 z M 783 371.5 L 783 380 L 783 388.5 L 804 409.5 L 825 430.5 L 628.30078 627.19922 L 431.5 824 L 409.5 802 L 387.40039 779.90039 L 379.19922 780.19922 L 371 780.5 L 401.19922 810.69922 L 431.5 841 L 636.80078 635.69922 L 842 430.5 L 812.5 401 L 783 371.5 z M 123 515.5 L 123 524 L 123 532.5 L 225.30078 634.80078 L 327.59961 737.09961 L 335.80078 736.80078 L 344 736.5 L 233.5 626 L 123 515.5 z "
     inkscape:label="Inner Vertical" /><path
     style="display:inline;fill:none;fill-opacity:1;stroke:#599ad6;stroke-width:4;stroke-dasharray:none;stroke-opacity:1"
     d="m 389,41.499998 -39.5,39.5 H 217.00001 c -101.7,0 -132.900006,0.3 -133.800006,1.2 -0.900001,0.9 -1.2,31.899992 -1.2,133.800002 V 348.5 L 42.500001,388 c -25.8,25.8 -39.4999998,40.2 -39.4999998,41.5 0,1.3 13.6999998,15.7 39.4999998,41.5 l 39.500003,39.5 v 132.6 c 0,102.3 0.299999,132.8 1.2,133.7 0.9,0.9 32.500006,1.2 133.800006,1.2 H 349.5 l 39.5,39.5 c 25.8,25.8 40.2,39.5 41.5,39.5 1.3,0 15.7,-13.7 41.5,-39.5 L 511.5,778 H 644 c 72.9,0 133.1,-0.4 133.8,-0.8 0.9,-0.7 1.2,-28.5 1.2,-133.8 V 510.5 L 818.5,471 C 844.2,445.3 858,430.8 858,429.5 858,428.2 844.2,413.7 818.5,388 L 779,348.5 V 215.4 c 0,-120.500004 -0.2,-133.200001 -1.6,-133.800001 -0.9,-0.3 -61,-0.6 -133.7,-0.6 H 511.5 l -39.5,-39.5 c -25.8,-25.8 -40.2,-39.5000007 -41.5,-39.5000007 -1.3,0 -15.7,13.7000007 -41.5,39.4999997 z"
     id="path1"
     inkscape:label="Outline Thin" /><g
     id="g63"
     inkscape:label="Large Pointers"
     style="display:inline"><path
       id="path51"
       style="fill:#ffffff;fill-opacity:1;stroke:none;stroke-width:3.52678;stroke-linecap:butt;stroke-linejoin:miter;stroke-dasharray:none;stroke-opacity:1;paint-order:markers fill stroke"
       d="m 295.17773,120.52539 -168.5,0.44531 v 172.29688 z m 273.93165,0 168.5,172.74219 V 120.9707 Z M 126.67773,563.08398 v 172.29493 l 168.5,0.44726 z m 610.93165,0 -168.5,172.74219 168.5,-0.44726 z"
       sodipodi:nodetypes="cccccccccccccccc" /></g><g
     id="g58"
     inkscape:label="Small Pointer"
     style="display:inline;stroke:none"><path
       id="path55"
       style="fill:#ffffff;fill-opacity:1;stroke:none;stroke-width:2.88917;stroke-linecap:butt;stroke-linejoin:miter;stroke-dasharray:none;stroke-opacity:1;paint-order:markers fill stroke"
       d="M 431.31445 51.529297 L 407.24609 75.597656 L 454.16992 75.597656 L 431.31445 51.529297 z M 783.29883 404.72656 L 783.29883 451.65039 L 807.36719 427.58203 L 783.29883 404.72656 z M 77.992188 406.72656 L 53.923828 429.58203 L 77.992188 453.65039 L 77.992188 406.72656 z M 407.24609 785.61133 L 431.31445 809.67969 L 454.16992 785.61133 L 407.24609 785.61133 z " /></g><g
     id="g62"
     inkscape:label="Texts"
     style="clip-rule:evenodd;display:inline;fill:#ffffff;fill-opacity:1;fill-rule:evenodd;image-rendering:optimizeQuality;shape-rendering:geometricPrecision;text-rendering:geometricPrecision"
     transform="translate(0.36903207,5.6347556)"><path
       id="text58"
       style="font-weight:bold;font-size:101.333px;font-family:'Mage Script';-inkscape-font-specification:'Mage Script, Bold';stroke-width:16.8989;paint-order:markers fill stroke;fill:#599ad6;fill-opacity:1"
       inkscape:transform-center-x="-9"
       inkscape:transform-center-y="13"
       d="M 7.7188583 189.8403 L 1.0883512 204.63568 L 0.99029538 204.6343 C 0.82536553 204.6343 0.67615432 204.6524 0.54421044 204.6854 L 0.7914216 205.27788 L -1.1876488 209.6821 C -1.7154243 210.93558 -2.4071397 212.25484 -3.2647749 213.64024 C -6.1015683 218.2253 -9.7302321 222.59587 -14.150352 226.7521 C -15.766665 228.4014 -18.670149 231.12359 -22.859367 234.91698 C -25.069427 236.9621 -26.702464 238.51148 -27.758015 239.56703 C -28.61565 240.3587 -29.589055 241.31537 -30.677592 242.43689 L -29.687367 246.74168 L -27.510804 246.74168 L -25.580071 246.69196 C -22.413417 246.52703 -18.224136 246.13098 -13.012352 245.50424 C -5.9203692 244.64662 -2.0281284 244.20175 -1.335423 244.16875 C -1.2694511 245.19132 -1.1550859 246.24562 -0.99015604 247.33416 C -3.6620196 248.09283 -6.1680671 249.59477 -8.5100709 251.83782 C -11.017004 254.24579 -12.517563 256.90105 -13.012352 259.80382 C -13.342213 261.18923 -13.508156 262.57404 -13.508156 263.95945 C -13.508156 268.24763 -12.006217 272.37136 -9.0044932 276.32968 C -6.5305455 279.52932 -3.7441892 282.08695 -0.64350799 284.00013 C 1.566552 285.41853 3.9415018 286.12559 6.4814215 286.12559 L 1.2375065 282.0694 C -1.3024131 279.92531 -3.5128003 277.36907 -5.3930006 274.40033 C -7.3061868 271.26666 -8.2628598 268.18188 -8.2628598 265.14717 C -8.2628598 263.76176 -8.0662132 262.36022 -7.6703816 260.94182 C -6.6808025 256.98351 -4.2389228 254.41052 -0.34657838 253.22303 C 0.6759867 258.43481 2.4080374 262.82213 4.8489992 266.38461 C 6.0364941 268.19884 7.3892221 269.73286 8.9065768 270.98633 C 10.094071 271.97591 11.561164 272.4696 13.309421 272.4696 L 11.330351 269.30281 C 10.340772 267.88441 9.5500427 266.33504 8.9562952 264.65275 C 7.7358143 261.65103 6.695479 257.46175 5.8378438 252.08503 C 7.9489459 252.08503 10.077051 252.61218 12.22114 253.66774 C 14.563143 254.82224 16.542038 256.43855 18.158351 258.51667 C 20.434383 261.51839 21.572351 264.78447 21.572351 268.31396 C 21.572351 269.46847 21.474718 270.60644 21.276802 271.72796 C 20.551111 275.09252 19.247199 278.09503 17.366999 280.73391 C 17.301026 280.79988 17.268943 280.88216 17.268943 280.98112 C 17.268943 281.37695 18.059672 281.78836 19.642999 282.21717 C 22.215904 279.5783 24.145982 276.34568 25.432436 272.51931 C 26.092155 270.54016 26.422661 268.56126 26.422661 266.5821 C 26.422661 262.8217 25.234496 259.19303 22.859506 255.69653 C 20.913334 252.72779 18.340356 250.33611 15.140717 248.52188 C 12.073022 246.80661 8.8571455 245.95033 5.4925768 245.95033 C 5.0967452 245.95033 4.8987176 245.93361 4.8987176 245.90061 L 4.9981545 245.90061 C 4.8662106 245.10894 4.7658158 244.30011 4.6998438 243.47545 L 5.4925768 243.42574 C 7.4057631 243.32678 9.2535604 243.27796 11.034802 243.27796 C 14.696245 243.27796 18.009755 243.50946 20.978492 243.97126 C 23.45244 244.36709 25.812038 244.92771 28.055084 245.6534 L 31.517421 246.88945 L 32.160999 247.13805 L 33.298999 247.13805 C 34.255592 245.09292 35.079786 243.64117 35.772491 242.78354 L 33.942576 241.84303 L 32.607084 241.1014 C 27.296343 237.76982 21.474024 231.98096 15.140717 223.73447 C 11.578233 218.91852 8.4767214 214.11842 5.8378438 209.33546 C 4.8152788 207.48824 3.8265219 206.18433 2.8699288 205.42565 L 7.7188583 189.8403 z M 414.66019 606.73085 C 413.87935 605.96547 412.75828 605.18016 411.29453 604.37613 C 406.37962 601.6383 401.43169 598.43915 396.45081 594.7777 C 387.97341 588.31245 382.05208 582.35765 378.68752 576.91497 L 377.9956 575.48004 L 377.05509 573.65013 C 376.29641 574.11193 374.77912 574.85384 372.50309 575.87641 L 373.04723 577.55855 L 376.1643 586.46506 L 376.1643 587.05892 C 375.9334 586.36621 375.80092 586.01897 375.76794 586.01897 C 375.73494 586.01897 375.71822 586.06917 375.71822 586.16813 C 375.71822 586.43201 375.8005 587.09165 375.96543 588.1472 C 376.42724 591.11593 376.65873 594.41547 376.65873 598.04393 C 376.65873 599.92413 376.60991 601.90302 376.51095 603.98114 L 376.46123 604.77111 C 375.20777 604.83711 373.72256 604.98632 372.00729 605.2172 L 370.02822 605.51413 C 370.62197 604.29365 371.31506 602.39842 372.10673 599.82551 C 373.03033 596.75782 373.49194 593.90315 373.49194 591.26427 C 373.49194 587.96567 372.83231 584.96317 371.51287 582.25832 C 370.2594 579.15764 367.98346 576.81754 364.68487 575.23421 C 362.80466 574.31061 360.95825 573.84762 359.14402 573.84762 C 357.85757 573.84762 356.60248 574.07912 355.38199 574.54092 C 349.80737 576.05827 345.42143 579.14167 342.2218 583.79269 C 338.19751 589.8621 335.85464 598.1263 335.19492 608.58286 C 335.12892 609.96827 335.09687 611.31962 335.09687 612.63906 C 335.09687 617.12515 335.36044 621.41344 335.88822 625.5037 C 336.31703 629.56098 337.57075 632.77824 339.64887 635.15323 C 338.98915 632.05255 338.57636 628.76974 338.41143 625.30621 C 338.37843 623.98677 338.36171 622.63405 338.36171 621.24863 C 338.36171 617.25733 338.56112 613.18379 338.95695 609.02756 C 340.21042 599.59357 342.66765 592.36971 346.32909 587.35585 C 348.70408 583.79336 352.09988 581.54951 356.51999 580.6259 C 357.47659 580.395 358.35236 580.28063 359.14402 580.28063 C 362.37665 580.28063 364.63447 581.84675 365.92092 584.98041 C 366.74558 586.82763 367.15836 588.8888 367.15836 591.16483 C 367.15836 595.68391 365.64107 600.99442 362.60636 607.09683 C 358.77998 608.18537 355.56411 609.60503 352.95822 611.35328 C 351.17698 612.57377 349.61087 613.92511 348.25845 615.40948 C 347.40081 616.33308 346.4274 617.85037 345.33887 619.96148 C 347.12011 619.36773 348.62066 618.67602 349.84115 617.88435 C 351.25954 616.92776 352.84377 616.11892 354.59202 615.4592 C 356.30729 614.7335 357.70884 614.25517 358.79738 614.02427 L 358.84571 613.97593 C 358.71377 614.14086 357.09747 616.89513 353.99678 622.23886 C 351.62179 626.26315 349.89112 629.51111 348.80259 631.98506 C 348.24182 633.17255 347.87923 633.98139 347.71431 634.41021 L 347.16878 635.69599 L 346.97129 636.63649 L 346.97129 637.62534 L 349.00008 639.25914 L 349.74171 638.81306 C 351.22608 637.7575 352.44633 636.93331 353.40292 636.33956 C 355.71194 634.92116 357.74103 634.03004 359.48929 633.6672 C 360.94068 633.23838 362.32548 633.025 363.64492 633.025 L 363.74574 630.40235 C 363.21796 630.33635 362.6727 630.3043 362.11194 630.3043 C 361.15535 630.3043 360.11639 630.40331 358.99487 630.60123 C 357.2796 630.8981 355.3007 631.55773 353.05766 632.5803 C 354.24516 630.60114 355.91166 627.97797 358.05574 624.71235 C 361.35434 619.79744 363.74602 616.06976 365.23039 613.52985 C 365.52726 613.03505 365.70718 612.73801 365.77315 612.63906 C 367.48841 612.34218 369.63325 612.02979 372.20616 611.69993 C 373.69053 611.50201 374.76295 611.36954 375.42267 611.30356 C 375.35667 611.96328 374.89368 615.9378 374.03608 623.2277 C 373.40935 628.57143 372.99794 632.85973 372.80002 636.09235 L 372.69921 638.07142 L 372.70059 640.10021 L 376.80788 641.73263 L 377.54952 640.991 C 378.44013 640.16635 379.31452 639.30869 380.17216 638.41807 C 381.19472 637.36252 382.77757 635.67928 384.92166 633.37027 C 388.84699 629.14806 391.65007 626.18041 393.33236 624.46514 C 397.58755 619.91308 402.05852 616.21749 406.74253 613.38069 C 408.19391 612.45708 409.57872 611.69982 410.89816 611.10607 L 415.15323 609.37283 L 415.69876 608.08706 C 415.4761 607.64174 415.1287 607.19008 414.66019 606.73085 z M 412.53059 608.23621 C 411.50803 608.30221 410.78284 608.41658 410.35402 608.58148 C 408.93562 609.04328 407.38487 609.70429 405.70259 610.56193 C 400.58976 613.10185 395.65857 616.59665 390.90859 621.04976 C 388.73151 622.96294 385.72902 625.78415 381.90264 629.51156 L 378.78695 632.38142 C 378.85295 631.88663 379.29782 628.80323 380.12245 623.12965 C 380.98008 617.42307 381.5407 613.29797 381.80459 610.75804 C 392.45906 609.53756 398.4292 608.92813 399.71566 608.92813 C 399.71566 607.24584 397.77022 606.15669 393.87788 605.6619 C 389.85359 605.10114 385.76332 604.82083 381.60709 604.82083 L 382.10152 604.82083 L 382.10152 604.52528 C 382.23346 602.6121 382.29901 600.7643 382.29901 598.98306 C 382.29901 595.38759 382.06889 592.03923 381.60709 588.93855 C 383.65222 591.01667 387.94051 594.23392 394.47174 598.58807 C 399.78248 601.98563 405.06092 604.871 410.30568 607.24599 L 412.53059 608.23621 z M 2.0288585 208.09802 L 2.9693657 210.22624 C 5.2124117 215.33907 7.9820359 220.50176 11.280633 225.71354 C 15.568809 232.17879 18.719136 236.34996 20.73128 238.23016 C 17.729557 237.80134 14.496949 237.58658 11.033421 237.58658 C 9.2521793 237.58658 7.4057631 237.63678 5.4925768 237.73574 C 5.3936189 237.73574 4.9975638 237.75246 4.3048584 237.78546 C 3.1833355 227.39487 2.6227177 221.67157 2.6227177 220.61602 C 0.90744724 220.61602 -0.18170441 222.56144 -0.64350799 226.45379 C -1.1712835 230.47808 -1.4348599 234.53765 -1.4348599 238.62791 L -1.4348599 238.3296 C -3.6449198 238.5605 -7.5036958 239.0723 -13.012352 239.86396 C -17.333515 240.49069 -20.287196 240.88675 -21.870522 241.05168 C -21.111845 240.29301 -20.138439 239.28614 -18.950944 238.03267 C -15.289502 234.30526 -12.53523 231.38642 -10.688015 229.27531 C -6.3668532 224.65728 -2.9683004 219.8251 -0.49435265 214.77824 C 0.33029659 213.16193 0.95646319 211.64326 1.3852808 210.22486 L 2.0288585 208.09802 z M -320.90073 600.86545 C -322.74794 601.88802 -325.13962 602.50021 -328.07538 602.69813 C -328.99898 602.73113 -329.95566 602.74785 -330.94524 602.74785 C -334.60668 602.74785 -338.53239 602.43407 -342.72161 601.80734 L -342.81966 601.80596 C -342.22591 599.8268 -341.92887 597.73355 -341.92887 595.52348 C -341.92888 594.10509 -342.11155 592.83464 -342.47439 591.71312 C -342.90321 589.79993 -343.66047 588.16689 -344.74901 586.81447 L -346.08589 585.18204 C -346.64665 586.43551 -346.92558 587.37545 -346.92558 588.00219 C -346.92558 588.23308 -346.8949 588.41438 -346.8289 588.54633 C -346.30112 589.79979 -345.98597 591.11906 -345.88701 592.50447 L -345.88839 592.90083 C -345.88839 594.94595 -346.54802 597.71696 -347.86746 601.21348 C -349.51676 601.01557 -350.35769 600.91656 -350.39068 600.91655 C -349.96186 599.36621 -349.7471 597.56723 -349.7471 595.5221 C -349.74709 594.10371 -349.92839 592.83464 -350.29124 591.71312 C -350.75304 589.79993 -351.54377 588.16689 -352.66529 586.81447 L -354.00217 585.18204 C -354.56294 586.43551 -354.84323 587.37407 -354.84324 588.0008 C -354.84323 588.2317 -354.81118 588.41438 -354.74518 588.54633 C -354.21741 589.76681 -353.93572 591.06934 -353.90273 592.45475 L -353.90273 592.99889 C -353.90274 594.94507 -354.46336 597.48596 -355.58487 600.61962 L -356.52538 600.61824 C -359.65906 600.61824 -362.64482 601.0324 -365.4816 601.85706 C -367.19687 602.61573 -368.38365 603.78579 -369.04338 605.36911 C -369.67011 606.82049 -370.09825 607.69489 -370.32915 607.99176 C -371.21978 609.70703 -372.39122 611.19086 -373.84259 612.44433 C -377.24015 615.38007 -380.95109 616.97964 -384.97538 617.24354 L -385.91589 617.24492 C -389.64331 617.24492 -392.95958 615.87546 -395.86234 613.13762 C -398.43524 610.69665 -399.72104 608.07486 -399.72104 605.27106 C -399.72104 604.84224 -399.67084 604.37925 -399.57189 603.88447 C -399.37397 600.45392 -397.83994 597.7652 -394.97017 595.81903 C -393.18892 594.53258 -391.44151 593.88968 -389.72625 593.88968 C -388.76965 593.88968 -387.79626 594.08771 -386.80667 594.48354 C -384.29974 595.2752 -382.53561 596.76041 -381.51304 598.93748 C -380.98527 599.99304 -380.72169 600.99852 -380.72169 601.95511 C -380.72169 602.58186 -380.85279 603.2094 -381.11667 603.83613 C -381.47952 605.05661 -382.02478 606.0621 -382.75048 606.85376 L -383.34296 607.49596 C -383.04608 608.65047 -382.65002 609.22782 -382.15524 609.22782 C -381.95732 609.22782 -381.72721 609.11208 -381.46332 608.88117 C -380.40777 607.92458 -379.51665 606.6876 -378.79096 605.17024 C -378.23019 604.0817 -377.94989 602.87819 -377.94989 601.55875 C -377.94989 600.33827 -378.21346 599.00366 -378.74124 597.55227 C -379.9947 594.28667 -382.28874 592.02607 -385.62034 590.77261 C -387.07171 590.11289 -388.58762 589.78238 -390.17096 589.78238 C -392.414 589.78238 -394.74014 590.49359 -397.14811 591.91199 C -401.53524 594.58385 -403.94366 598.40916 -404.37248 603.39004 C -404.50442 604.1817 -404.56997 604.98917 -404.56997 605.81382 C -404.56997 610.06901 -402.77237 613.96125 -399.1769 617.49075 C -395.35051 621.25114 -390.92973 623.13102 -385.91589 623.13103 L -384.63011 623.13241 C -379.45131 622.80255 -374.71677 620.74 -370.42859 616.94661 C -368.54839 615.19836 -367.03248 613.21946 -365.87797 611.0094 C -365.68005 610.71252 -365.20034 609.64148 -364.44166 607.79427 C -364.34271 607.53038 -364.04707 607.26541 -363.55225 607.00154 C -361.37519 606.24287 -359.29589 605.83146 -357.31673 605.76548 L -357.5156 606.30962 C -359.32984 610.89467 -360.2363 614.819 -360.23631 618.08461 C -360.23631 620.06377 -359.90718 621.81256 -359.24746 623.3299 C -358.42281 625.2431 -357.31692 626.71156 -355.93152 627.73413 L -354.39853 628.92185 C -354.16763 628.06421 -354.05189 627.35438 -354.05189 626.79362 C -354.05188 626.23286 -354.1509 625.80472 -354.34882 625.50785 C -355.10749 624.38632 -355.63464 623.16469 -355.93152 621.84526 C -355.99752 621.54838 -356.03096 621.18578 -356.03096 620.75697 C -356.03096 618.21705 -354.92507 614.12679 -352.71501 608.48619 C -352.18724 607.19973 -351.82465 606.22632 -351.62673 605.56661 C -351.06597 605.59961 -350.42445 605.63305 -349.69876 605.66604 L -349.25129 605.17162 C -349.51518 605.76537 -349.66439 606.16005 -349.69738 606.35796 C -351.47863 610.87704 -352.36836 614.75393 -352.36836 617.98655 C -352.36836 619.9987 -352.3042 621.1534 -352.17225 621.45027 L -352.36975 621.44889 C -351.05031 624.54957 -349.68223 626.62886 -348.26383 627.68441 L -346.72808 628.82241 C -346.49718 627.96478 -346.38282 627.25632 -346.38282 626.69557 C -346.38282 626.16778 -346.48183 625.75362 -346.67975 625.45675 C -347.43842 624.33522 -347.94884 623.11635 -348.21273 621.79692 C -348.31169 621.46706 -348.36189 621.10446 -348.36189 620.70864 C -348.36189 618.2017 -347.22392 614.12679 -344.94789 608.48619 C -344.48608 607.33168 -344.18904 606.49075 -344.0571 605.96297 L -343.01853 605.96297 C -340.84146 606.09492 -338.74544 606.16047 -336.73329 606.16047 C -333.63262 606.16047 -330.69843 605.97917 -327.92761 605.61633 C -324.03526 605.08856 -321.6924 603.50433 -320.90073 600.86545 z M 2.3382177 929.51543 L -0.33414877 929.86207 C -4.0945493 932.20408 -7.1291307 936.1786 -9.4381486 941.78621 C -11.252377 946.66814 -12.160233 951.53379 -12.160233 956.38272 C -12.160233 958.75771 -11.945473 961.10058 -11.516656 963.4096 C -11.516656 963.64049 -11.416261 964.20111 -11.218345 965.09174 L -11.020852 965.93281 L -10.675585 966.92165 C -8.8283713 967.35047 -7.2106856 967.79673 -5.8252749 968.25852 L -5.8252749 967.02109 L -5.9247118 967.12052 C -5.4629082 966.55977 -4.7865441 965.71883 -3.895923 964.59731 C -1.6528771 961.76052 -0.35034639 960.1261 0.012499283 959.69728 C 3.7069279 955.27717 6.3133702 952.95242 7.8307248 952.72151 L 8.1276545 953.01844 C 8.5234861 953.54621 8.7201326 954.04128 8.7201326 954.50309 L 8.7215137 955.4436 C 8.7215137 956.79602 8.5723025 958.50996 8.2754287 960.58807 C 7.7476532 964.08458 6.8579102 967.97821 5.6044433 972.26638 L 5.455288 972.66137 C 2.8823824 972.92526 0.39168628 973.14002 -2.0162895 973.30495 C -3.7645459 973.40391 -5.4631317 973.4541 -7.1124302 973.4541 C -10.542971 973.4541 -13.627749 973.23934 -16.365585 972.81052 C -17.124263 972.71156 -20.338759 971.83717 -26.012345 970.18788 L -27.548092 969.64374 L -27.201444 974.39323 L -26.310656 975.38345 C -21.494704 978.45115 -16.182806 983.79375 -10.377275 991.41351 C -8.9258922 993.39267 -7.6233615 995.28928 -6.4688525 997.10351 C -7.9202352 999.14862 -9.5532723 1001.161 -11.3675 1003.1402 C -11.895276 1003.7339 -12.455894 1004.3113 -13.049641 1004.872 L -13.495726 1005.3678 C -7.7561677 1001.7064 -4.7536699 999.87531 -4.4897822 999.87531 L -4.4400637 999.87531 C -4.4400637 999.90827 -4.4735287 999.95847 -4.5395006 1000.0245 C -1.0429878 1005.6651 1.0851181 1010.3313 1.8437954 1014.0257 L 3.4762177 1009.1782 L 4.8117103 1004.2795 C 5.3064999 1003.191 5.9675125 1001.9694 6.7921618 1000.6169 C 9.3980537 996.46074 12.728295 992.46946 16.785569 988.64309 C 18.302924 987.15872 20.958182 984.65129 24.751569 981.12179 C 26.829685 979.20861 28.330244 977.75824 29.253851 976.76867 C 30.045514 976.04297 30.804159 975.28432 31.529851 974.49267 L 30.788217 975.2343 L 30.738499 969.989 L 28.958302 969.99038 L 27.176724 970.0401 C 24.372917 970.20503 19.260427 970.74892 11.838584 971.67252 C 12.993093 968.37393 13.882836 964.85962 14.509569 961.13221 C 14.938387 958.75722 15.153147 956.72951 15.153147 955.04723 L 15.153147 954.1081 C 15.153147 952.35984 14.624613 950.84117 13.569062 949.55472 C 12.414553 947.74049 10.7327 946.83402 8.5226399 946.83402 L 7.8790622 946.83402 C 4.910325 947.5927 2.3373476 948.97751 0.16027355 950.98965 C -0.49944584 951.68236 -1.2901751 952.59022 -2.2137822 953.71174 C -3.2363473 954.93222 -3.9796412 955.77315 -4.4414448 956.23495 C -4.9032483 956.86168 -5.6772451 957.90063 -6.7657821 959.35202 C -6.930712 958.26348 -7.0129933 956.61371 -7.0129933 954.40365 C -7.0129933 950.67623 -6.4523755 946.83281 -5.3308525 942.8745 C -3.3187084 936.11238 -0.76246349 931.65952 2.3382177 929.51543 z M 23.563851 975.43179 C 22.904131 976.09151 22.046472 976.96591 20.990921 978.05444 C 17.692324 981.51797 15.184895 984.20669 13.469625 986.11988 C 9.5113087 990.40805 6.4111786 994.87764 4.1681327 999.52866 C 3.3764694 1001.0131 2.7837677 1002.4146 2.3879361 1003.734 C 2.2230062 1004.0969 2.10726 1004.79 2.0412881 1005.8125 C 0.8537932 1002.9428 -0.49893489 1000.1229 -2.0162895 997.3521 C -0.89476653 995.9337 0.3254828 994.30067 1.6449216 992.45345 C 4.7785887 987.76945 7.4505799 982.75459 9.6606399 977.41086 C 10.089458 977.34489 12.84373 976.95022 17.923569 976.22452 C 20.364531 975.86168 22.244411 975.59672 23.563851 975.43179 z M 3.4762177 978.10416 C 1.991849 982.19442 0.06177071 986.35024 -2.3132191 990.57244 C -3.2698122 992.25472 -3.8638949 993.29506 -4.0947967 993.69089 C -4.5566003 992.89922 -5.4463433 991.47956 -6.7657821 989.43444 C -10.691112 983.46398 -13.510933 979.67076 -15.226204 978.05444 C -12.521354 978.41729 -9.6192519 978.59996 -6.518571 978.59996 L -4.242571 978.59996 L -4.2922895 978.64968 C -0.43293099 978.45177 2.1567788 978.26909 3.4762177 978.10416 z "
       transform="rotate(-45)" /></g></svg>
