<?xml version="1.0" encoding="UTF-8" standalone="no"?>
<svg
   version="1.1"
   width="861px"
   height="859px"
   style="shape-rendering:geometricPrecision; text-rendering:geometricPrecision; image-rendering:optimizeQuality; fill-rule:evenodd; clip-rule:evenodd"
   id="svg3"
   sodipodi:docname="slot_background.svg"
   xml:space="preserve"
   inkscape:version="1.3 (0e150ed6c4, 2023-07-21)"
   xmlns:inkscape="http://www.inkscape.org/namespaces/inkscape"
   xmlns:sodipodi="http://sodipodi.sourceforge.net/DTD/sodipodi-0.dtd"
   xmlns="http://www.w3.org/2000/svg"
   xmlns:svg="http://www.w3.org/2000/svg"><defs
     id="defs3" /><sodipodi:namedview
     id="namedview3"
     pagecolor="#505050"
     bordercolor="#eeeeee"
     borderopacity="1"
     inkscape:showpageshadow="0"
     inkscape:pageopacity="0"
     inkscape:pagecheckerboard="0"
     inkscape:deskcolor="#505050"
     inkscape:zoom="0.35355339"
     inkscape:cx="7.0710678"
     inkscape:cy="318.19805"
     inkscape:window-width="1920"
     inkscape:window-height="1057"
     inkscape:window-x="-8"
     inkscape:window-y="-8"
     inkscape:window-maximized="1"
     inkscape:current-layer="svg3" /><path
     style="clip-rule:evenodd;display:inline;fill:#000000;fill-opacity:0.5;fill-rule:evenodd;stroke:none;stroke-width:4;stroke-dasharray:none;stroke-opacity:1;image-rendering:optimizeQuality;shape-rendering:geometricPrecision;text-rendering:geometricPrecision"
     d="m 389,41.499998 -39.5,39.5 H 217.00001 c -101.7,0 -132.900006,0.3 -133.800006,1.2 -0.900001,0.9 -1.2,31.899992 -1.2,133.800002 V 348.5 L 42.500001,388 c -25.8,25.8 -39.4999998,40.2 -39.4999998,41.5 0,1.3 13.6999998,15.7 39.4999998,41.5 l 39.500003,39.5 v 132.6 c 0,102.3 0.299999,132.8 1.2,133.7 0.9,0.9 32.500006,1.2 133.800006,1.2 H 349.5 l 39.5,39.5 c 25.8,25.8 40.2,39.5 41.5,39.5 1.3,0 15.7,-13.7 41.5,-39.5 L 511.5,778 H 644 c 72.9,0 133.1,-0.4 133.8,-0.8 0.9,-0.7 1.2,-28.5 1.2,-133.8 V 510.5 L 818.5,471 C 844.2,445.3 858,430.8 858,429.5 858,428.2 844.2,413.7 818.5,388 L 779,348.5 V 215.4 c 0,-120.500004 -0.2,-133.200001 -1.6,-133.800001 -0.9,-0.3 -61,-0.6 -133.7,-0.6 H 511.5 l -39.5,-39.5 c -25.8,-25.8 -40.2,-39.5000007 -41.5,-39.5000007 -1.3,0 -15.7,13.7000007 -41.5,39.4999997 z"
     id="path65"
     inkscape:label="Background" /><path
     id="path50"
     style="shape-rendering:geometricPrecision;text-rendering:geometricPrecision;image-rendering:optimizeQuality;fill-rule:evenodd;clip-rule:evenodd;display:inline;fill:#525252;stroke-width:0.1;fill-opacity:1"
     d="M 95 92 L 95 208.69922 L 95 325.40039 L 101 319.5 L 107 313.59961 L 107 208.80078 L 107 104 L 210.80078 104 L 314.59961 104 L 320.5 98 L 326.40039 92 L 210.69922 92 L 95 92 z M 387.40039 92 L 381.5 98 L 375.59961 104 L 565.30078 104 L 755 104 L 755 294.69922 L 755 485.40039 L 761 479.5 L 767 473.59961 L 767 282.80078 L 767 92 L 577.19922 92 L 387.40039 92 z M 106.5 374.90039 L 100.80078 380.69922 L 95 386.59961 L 95 575.30078 L 95 764 L 284.69922 764 L 474.5 764 L 480.5 758 L 486.5 752 L 296.69922 752 L 107 752 L 106.80078 563.5 L 106.5 374.90039 z M 766.69922 535 C 766.59922 535 763.89922 537.60078 760.69922 540.80078 L 755 546.59961 L 755 649.30078 L 755 752 L 651.19922 752 L 547.40039 752 L 541.5 758 L 535.59961 764 L 651.30078 764 L 767 764 L 767 649.5 C 767 586.50006 766.89922 535 766.69922 535 z "
     inkscape:label="Inner Horizontal" /><path
     id="path46"
     style="shape-rendering:geometricPrecision;text-rendering:geometricPrecision;image-rendering:optimizeQuality;fill-rule:evenodd;clip-rule:evenodd;display:inline;stroke:none;stroke-opacity:1;fill:#525252;stroke-width:0.1;fill-opacity:1"
     d="M 431.5 20 L 226.19922 225.30078 L 21 430.5 L 50.5 460 L 80 489.5 L 80 481 L 80 472.5 L 59 451.5 L 38 430.5 L 234.69922 233.80078 L 431.5 37 L 451.5 57 L 471.59961 77.099609 L 479.80078 76.800781 L 488 76.5 L 459.80078 48.300781 L 431.5 20 z M 514.5 120 L 627 232.5 L 739.5 345 L 739.80078 336.80078 L 740.09961 328.59961 L 635.80078 224.30078 L 531.5 120 L 523 120 L 514.5 120 z M 783 371.5 L 783 380 L 783 388.5 L 804 409.5 L 825 430.5 L 628.30078 627.19922 L 431.5 824 L 409.5 802 L 387.40039 779.90039 L 379.19922 780.19922 L 371 780.5 L 401.19922 810.69922 L 431.5 841 L 636.80078 635.69922 L 842 430.5 L 812.5 401 L 783 371.5 z M 123 515.5 L 123 524 L 123 532.5 L 225.30078 634.80078 L 327.59961 737.09961 L 335.80078 736.80078 L 344 736.5 L 233.5 626 L 123 515.5 z "
     inkscape:label="Inner Vertical" /><path
     style="display:inline;fill:none;fill-opacity:1;stroke:#525252;stroke-width:4;stroke-dasharray:none;stroke-opacity:1"
     d="m 389,41.499998 -39.5,39.5 H 217.00001 c -101.7,0 -132.900006,0.3 -133.800006,1.2 -0.900001,0.9 -1.2,31.899992 -1.2,133.800002 V 348.5 L 42.500001,388 c -25.8,25.8 -39.4999998,40.2 -39.4999998,41.5 0,1.3 13.6999998,15.7 39.4999998,41.5 l 39.500003,39.5 v 132.6 c 0,102.3 0.299999,132.8 1.2,133.7 0.9,0.9 32.500006,1.2 133.800006,1.2 H 349.5 l 39.5,39.5 c 25.8,25.8 40.2,39.5 41.5,39.5 1.3,0 15.7,-13.7 41.5,-39.5 L 511.5,778 H 644 c 72.9,0 133.1,-0.4 133.8,-0.8 0.9,-0.7 1.2,-28.5 1.2,-133.8 V 510.5 L 818.5,471 C 844.2,445.3 858,430.8 858,429.5 858,428.2 844.2,413.7 818.5,388 L 779,348.5 V 215.4 c 0,-120.500004 -0.2,-133.200001 -1.6,-133.800001 -0.9,-0.3 -61,-0.6 -133.7,-0.6 H 511.5 l -39.5,-39.5 c -25.8,-25.8 -40.2,-39.5000007 -41.5,-39.5000007 -1.3,0 -15.7,13.7000007 -41.5,39.4999997 z"
     id="path1"
     inkscape:label="Outline Thin" /></svg>
