<?xml version="1.0" encoding="UTF-8" standalone="no"?>
<!-- Created with Inkscape (http://www.inkscape.org/) -->

<svg
   width="256mm"
   height="256mm"
   viewBox="0 0 256 256"
   version="1.1"
   id="svg4293"
   inkscape:version="1.3 (0e150ed6c4, 2023-07-21)"
   sodipodi:docname="wheel_indicator_active.svg"
   xml:space="preserve"
   xmlns:inkscape="http://www.inkscape.org/namespaces/inkscape"
   xmlns:sodipodi="http://sodipodi.sourceforge.net/DTD/sodipodi-0.dtd"
   xmlns="http://www.w3.org/2000/svg"
   xmlns:svg="http://www.w3.org/2000/svg"><sodipodi:namedview
     id="namedview4295"
     pagecolor="#ffffff"
     bordercolor="#000000"
     borderopacity="0.25"
     inkscape:showpageshadow="2"
     inkscape:pageopacity="0.0"
     inkscape:pagecheckerboard="0"
     inkscape:deskcolor="#5d5d5d"
     inkscape:document-units="mm"
     showgrid="false"
     inkscape:zoom="0.44631734"
     inkscape:cx="261.02504"
     inkscape:cy="650.88217"
     inkscape:window-width="1920"
     inkscape:window-height="1057"
     inkscape:window-x="-8"
     inkscape:window-y="-8"
     inkscape:window-maximized="1"
     inkscape:current-layer="svg4293" /><defs
     id="defs4290" /><path
     id="path3"
     style="display:inline;fill:#ffffff;fill-opacity:1;stroke:#599ad6;stroke-width:9.40372;stroke-dasharray:none;stroke-opacity:1;paint-order:markers fill stroke"
     inkscape:label="Eyeball"
     d="m 127.99994,42.521952 c -47.208234,-1.09e-4 -85.478097,38.269754 -85.477988,85.477988 -1.1e-4,47.20824 38.269753,85.4781 85.477988,85.47799 47.20824,1.1e-4 85.4781,-38.26975 85.47799,-85.47799 1.1e-4,-47.208235 -38.26975,-85.478098 -85.47799,-85.477988 z m -0.14935,44.282052 c 30.10999,-2.9e-5 78.80686,19.041676 78.80656,42.530736 -2.3e-4,23.48886 -49.53531,42.53025 -78.80656,42.53022 -31.378162,0 -78.805808,-19.04147 -78.806038,-42.53022 -2.98e-4,-23.48895 49.115432,-42.530659 78.806038,-42.530736 z"
     sodipodi:nodetypes="cccccccccc" /><path
     id="path1-5"
     d="M 116.23788,74.38861 C 98.576036,77.263804 79.495267,86.897541 62.0948,101.6842 c -10.193837,8.70023 -20.611711,19.3048 -23.113496,23.59891 -1.232222,2.09104 -1.344242,2.46445 -1.344242,5.3023 0,4.03272 0.634782,5.15292 5.563669,10.23117 7.09461,7.28129 16.877705,15.30942 25.98868,21.35852 11.836798,7.87873 21.395853,12.54625 33.456689,16.24292 8.43885,2.6138 13.18104,3.36059 22.77743,3.58464 11.2767,0.29873 17.06441,-0.44808 27.18357,-3.43529 7.09461,-2.09104 12.32222,-4.21942 19.64087,-8.02811 12.7703,-6.57184 22.88945,-13.74114 35.54773,-25.12987 8.99895,-8.10278 10.56724,-10.30585 10.56724,-14.86133 0,-1.34424 -0.11206,-2.57647 -0.29872,-2.72582 -0.14937,-0.14935 -0.26138,-0.41074 -0.26138,-0.52277 -0.14937,-2.50178 -14.71199,-17.73653 -25.01785,-26.17537 -9.48437,-7.766729 -16.8777,-12.658278 -26.026,-17.251111 -9.70842,-4.854203 -17.36314,-7.580029 -25.68997,-9.148312 -4.63017,-0.858819 -20.38768,-1.082858 -24.83114,-0.336067 z m 49.28887,26.13805 c 7.50537,4.33144 17.96057,12.35956 26.58612,20.42502 4.55549,4.25676 9.11099,9.11096 9.0363,9.59638 -0.0374,0.3734 -7.80407,7.20664 -11.79946,10.41787 -8.36417,6.68387 -14.59996,10.82862 -22.70275,15.08538 -29.05113,16.77268 -45.83594,16.33843 -74.269373,2.01637 -9.820436,-4.44346 -23.188176,-13.77848 -34.651575,-24.27104 l -3.621985,-3.28592 3.061885,-3.3606 c 8.102793,-8.8496 22.478714,-20.46236 32.33649,-26.21272 30.858828,-17.816361 46.132268,-17.668941 76.024348,-0.41074 z"
     style="display:inline;fill:#599ad6;fill-opacity:1;stroke-width:0.03734"
     sodipodi:nodetypes="cccscccccccsccccccccccccccccc"
     inkscape:label="Eyelid" /><circle
     style="display:inline;fill:none;fill-opacity:1;stroke:#599ad6;stroke-width:6.57382;stroke-dasharray:none;stroke-opacity:1;paint-order:markers fill stroke"
     id="path2"
     cx="128"
     cy="102.3988"
     r="25.030327"
     inkscape:label="Retina" /><path
     d="m 127.99871,7.1874821 7.39966,12.8174309 c 13.80954,0.959137 27.3363,4.555279 39.79788,10.578673 l 11.76639,-6.791638 -0.002,13.413623 c 11.3422,7.354885 21.44487,16.932025 29.58683,28.540524 h 17.14412 l -8.47191,14.672048 c 6.60077,13.453705 10.15685,27.703947 10.88974,41.914107 l 11.61558,6.70683 -11.76405,6.79401 c -1.01331,13.80246 -4.66129,27.31745 -10.73656,39.75547 l 8.4672,14.66497 h -17.1182 c -7.74842,11.04058 -17.68374,20.7803 -29.61039,28.51224 v 11.35634 l -9.83165,-5.67699 c -13.36416,6.82466 -27.55545,10.60461 -41.7397,11.56375 l -7.39259,12.80327 -7.39966,-12.81742 c -13.80954,-0.95914 -27.338664,-4.55527 -39.800246,-10.58104 l -11.761675,6.7893 V 218.79641 C 57.692874,211.44153 47.59258,201.86439 39.448248,190.25353 H 22.304144 l 8.471897,-14.6744 C 24.175264,162.12542 20.621547,147.87285 19.883938,133.66031 l -11.608504,-6.70447 11.759324,-6.7893 C 21.048087,106.36172 24.69607,92.849095 30.771328,80.41109 L 22.304144,65.746095 H 39.422325 C 47.17311,54.703178 57.108442,44.961083 69.039795,37.226791 V 25.8728 l 9.833994,5.676996 C 92.235583,24.727508 106.42219,20.947546 120.60644,19.98843 Z"
     style="display:inline;fill:none;fill-opacity:1;fill-rule:evenodd;stroke:#599ad6;stroke-width:7.06973px;stroke-opacity:1"
     id="path2-6" /></svg>
