<?xml version="1.0" encoding="UTF-8" standalone="no"?>
<!-- Created with Inkscape (http://www.inkscape.org/) -->

<svg
   width="256mm"
   height="256mm"
   viewBox="0 0 256 256"
   version="1.1"
   id="svg4293"
   inkscape:version="1.3 (0e150ed6c4, 2023-07-21)"
   sodipodi:docname="wheel_indicator_inactive.svg"
   xml:space="preserve"
   xmlns:inkscape="http://www.inkscape.org/namespaces/inkscape"
   xmlns:sodipodi="http://sodipodi.sourceforge.net/DTD/sodipodi-0.dtd"
   xmlns="http://www.w3.org/2000/svg"
   xmlns:svg="http://www.w3.org/2000/svg"><sodipodi:namedview
     id="namedview4295"
     pagecolor="#ffffff"
     bordercolor="#000000"
     borderopacity="0.25"
     inkscape:showpageshadow="2"
     inkscape:pageopacity="0.0"
     inkscape:pagecheckerboard="0"
     inkscape:deskcolor="#5d5d5d"
     inkscape:document-units="mm"
     showgrid="false"
     inkscape:zoom="0.22315867"
     inkscape:cx="526.53119"
     inkscape:cy="450.35221"
     inkscape:window-width="1920"
     inkscape:window-height="1057"
     inkscape:window-x="-8"
     inkscape:window-y="-8"
     inkscape:window-maximized="1"
     inkscape:current-layer="svg4293" /><defs
     id="defs4290" /><circle
     style="display:inline;fill:#ffffff;fill-opacity:1;stroke:#599ad6;stroke-width:9.40372;stroke-dasharray:none;stroke-opacity:1;paint-order:markers fill stroke"
     id="path3"
     cx="128"
     cy="128"
     r="85.477791"
     inkscape:label="Eyeball" /><rect
     style="fill:#599ad6;fill-opacity:1;stroke:none;stroke-width:3.7664;stroke-dasharray:none;stroke-opacity:1;paint-order:markers fill stroke"
     id="rect10"
     width="170.13773"
     height="12.950115"
     x="42.931137"
     y="121.52494" /><path
     d="m 127.99871,7.1874821 7.39966,12.8174309 c 13.80954,0.959137 27.3363,4.555279 39.79788,10.578673 l 11.76639,-6.791638 -0.002,13.413623 c 11.3422,7.354885 21.44487,16.932025 29.58683,28.540524 h 17.14412 l -8.47191,14.672048 c 6.60077,13.453705 10.15685,27.703947 10.88974,41.914107 l 11.61558,6.70683 -11.76405,6.79401 c -1.01331,13.80246 -4.66129,27.31745 -10.73656,39.75547 l 8.4672,14.66497 h -17.1182 c -7.74842,11.04058 -17.68374,20.7803 -29.61039,28.51224 v 11.35634 l -9.83165,-5.67699 c -13.36416,6.82466 -27.55545,10.60461 -41.7397,11.56375 l -7.39259,12.80327 -7.39966,-12.81742 c -13.80954,-0.95914 -27.338664,-4.55527 -39.800246,-10.58104 l -11.761675,6.7893 V 218.79641 C 57.692874,211.44153 47.59258,201.86439 39.448248,190.25353 H 22.304144 l 8.471897,-14.6744 C 24.175264,162.12542 20.621547,147.87285 19.883938,133.66031 l -11.608504,-6.70447 11.759324,-6.7893 C 21.048087,106.36172 24.69607,92.849095 30.771328,80.41109 L 22.304144,65.746095 H 39.422325 C 47.17311,54.703178 57.108442,44.961083 69.039795,37.226791 V 25.8728 l 9.833994,5.676996 C 92.235583,24.727508 106.42219,20.947546 120.60644,19.98843 Z"
     style="fill:none;fill-opacity:1;fill-rule:evenodd;stroke:#599ad6;stroke-width:7.06973px;stroke-opacity:1"
     id="path2-6" /><circle
     style="fill:#ffffff;fill-opacity:1;stroke-width:6.05613;paint-order:markers fill stroke"
     id="path5"
     cx="128"
     cy="128"
     r="16.754984" /><circle
     style="fill:#599ad6;fill-opacity:1;stroke-width:1.74999;paint-order:markers fill stroke"
     id="path6"
     cx="128"
     cy="128"
     r="5.8685627" /></svg>
