<?xml version="1.0" encoding="UTF-8" standalone="no"?>
<svg
   version="1.1"
   width="861px"
   height="859px"
   style="shape-rendering:geometricPrecision; text-rendering:geometricPrecision; image-rendering:optimizeQuality; fill-rule:evenodd; clip-rule:evenodd"
   id="svg3"
   sodipodi:docname="slot_background.svg"
   xml:space="preserve"
   inkscape:version="1.3 (0e150ed6c4, 2023-07-21)"
   xmlns:inkscape="http://www.inkscape.org/namespaces/inkscape"
   xmlns:sodipodi="http://sodipodi.sourceforge.net/DTD/sodipodi-0.dtd"
   xmlns="http://www.w3.org/2000/svg"
   xmlns:svg="http://www.w3.org/2000/svg"><defs
     id="defs3" /><sodipodi:namedview
     id="namedview3"
     pagecolor="#505050"
     bordercolor="#eeeeee"
     borderopacity="1"
     inkscape:showpageshadow="0"
     inkscape:pageopacity="0"
     inkscape:pagecheckerboard="0"
     inkscape:deskcolor="#505050"
     inkscape:zoom="0.5"
     inkscape:cx="537"
     inkscape:cy="549"
     inkscape:window-width="1920"
     inkscape:window-height="1057"
     inkscape:window-x="-8"
     inkscape:window-y="-8"
     inkscape:window-maximized="1"
     inkscape:current-layer="svg3"
     showgrid="false" /><g
     id="g9"
     inkscape:label="Fighter"><rect
       style="clip-rule:evenodd;fill:#000000;fill-opacity:0.3;fill-rule:evenodd;stroke:none;stroke-width:80.0182;stroke-dasharray:none;stroke-opacity:1;paint-order:markers fill stroke;image-rendering:optimizeQuality;shape-rendering:geometricPrecision;text-rendering:geometricPrecision"
       id="rect9"
       width="768.17493"
       height="768.17493"
       x="46.412506"
       y="45.406574"
       inkscape:label="Background" /><path
       id="path9"
       style="clip-rule:evenodd;fill:#000000;fill-rule:evenodd;stroke-width:0.099629;image-rendering:optimizeQuality;shape-rendering:geometricPrecision;text-rendering:geometricPrecision;fill-opacity:1"
       d="M 46.431372,44.265625 V 306.48803 568.81095 L 61.874299,553.36803 77.315292,537.92704 V 306.58855 75.151479 h 68.446438 68.54309 L 198.86383,59.708552 183.4209,44.265625 h -68.44451 z m 243.591928,0 15.44293,15.442927 15.44292,15.442927 H 552.2457 783.68471 l 0.19909,68.245401 0.2977,68.24541 15.24382,-15.14331 15.14331,-15.24382 V 112.71014 44.265625 H 552.34622 Z M 814.26901,288.35627 c -0.0996,0 -7.07219,6.87502 -15.441,15.24383 l -15.1433,15.14331 v 231.43707 231.33848 l -68.24734,0.1991 -68.24541,0.29769 15.14331,15.1433 15.24383,15.24383 h 68.54502 68.44451 v -262.0233 c 0,-144.06296 -0.10036,-262.02331 -0.29962,-262.02331 z M 76.818505,645.02622 61.57468,660.17146 46.431372,675.41335 v 68.54503 68.4445 H 308.65378 570.9767 l -15.44293,-15.44292 -15.44292,-15.441 H 308.7543 77.315292 l -0.199101,-68.2454 z"
       inkscape:label="Box" /><path
       id="path8"
       style="display:inline;fill:#363636;stroke-width:0.100665;fill-opacity:1"
       d="m 648.74023,0 -5.23437,14.796875 c -2.81861,8.2545 -5.13281,15.200857 -5.13281,15.603516 0,0.503323 41.87694,0.80664 93.11523,0.80664 h 93.11328 v 86.369139 86.26953 l -46.70703,46.70899 c -43.7891,43.7891 -46.70824,46.90885 -46.40625,49.82812 0.20133,1.7113 10.06599,64.82965 21.84375,140.32813 l 21.44141,137.20508 0.30273,-139.72266 0.20117,-139.72266 40.56641,-40.76953 L 856.3125,216.93164 855.80859,108.71875 855.30469,0.50390625 752.02344,0.20117188 Z M 218.60156,2.2148438 C 218.29957,2.416173 169.57752,2.7175374 110.38672,3.0195312 L 2.6757812,3.5234375 2.3730469,106.80469 2.171875,210.08789 16.96875,215.32227 c 8.2545,2.8186 15.200857,5.13281 15.603516,5.13281 0.503323,0 0.804687,-41.87499 0.804687,-93.11328 V 34.226562 h 86.371097 86.26953 l 46.70898,46.707032 c 43.78911,43.789116 46.90885,46.710196 49.82813,46.408206 1.7113,-0.20133 64.82769,-10.06795 140.32617,-21.84571 L 580.08789,84.054688 440.36523,83.753906 300.64258,83.550781 259.87305,42.783203 C 237.42484,20.334991 218.90356,2.1141792 218.60156,2.2148438 Z M 86.025391,278.8418 c -0.201329,0 -0.302735,62.81398 -0.302735,139.62109 V 558.18555 L 45.255859,598.95508 4.6875,639.72461 5.1914062,747.93945 5.6953125,856.1543 l 103.2812475,0.30078 103.28321,0.20117 5.33398,-15.09961 c 2.91927,-8.35517 5.03336,-15.40219 4.83203,-15.60352 -0.30199,-0.30198 -42.17787,-0.50195 -93.21484,-0.50195 H 36.398438 l 0.201171,-86.57226 0.300782,-86.57227 46.40625,-46.50586 46.507809,-46.60742 -1.00586,-8.05469 C 127.70128,541.57553 86.327384,278.8418 86.025391,278.8418 Z M 828.42773,636.20117 c -0.50333,0 -0.80468,41.87696 -0.80468,93.11524 v 93.11523 h -86.3711 -86.26953 l -46.70898,-46.70898 c -43.78911,-43.78911 -46.90885,-46.70824 -49.82813,-46.40625 -1.7113,0.20133 -64.82769,10.06599 -140.32617,21.84375 l -137.20703,21.4414 139.72266,0.30274 139.72265,0.20117 40.76953,40.56836 40.76953,40.46679 108.21485,-0.5039 108.21289,-0.50391 0.30273,-103.28125 0.20117,-103.28125 -14.79687,-5.23437 c -8.2545,-2.81861 -15.20086,-5.13477 -15.60352,-5.13477 z"
       inkscape:label="Outline" /></g></svg>
