<?xml version="1.0" encoding="UTF-8" standalone="no"?>
<svg
   version="1.1"
   width="861px"
   height="859px"
   style="shape-rendering:geometricPrecision; text-rendering:geometricPrecision; image-rendering:optimizeQuality; fill-rule:evenodd; clip-rule:evenodd"
   id="svg3"
   sodipodi:docname="slot_active_background.svg"
   xml:space="preserve"
   inkscape:version="1.3 (0e150ed6c4, 2023-07-21)"
   xmlns:inkscape="http://www.inkscape.org/namespaces/inkscape"
   xmlns:sodipodi="http://sodipodi.sourceforge.net/DTD/sodipodi-0.dtd"
   xmlns="http://www.w3.org/2000/svg"
   xmlns:svg="http://www.w3.org/2000/svg"><defs
     id="defs3" /><sodipodi:namedview
     id="namedview3"
     pagecolor="#505050"
     bordercolor="#eeeeee"
     borderopacity="1"
     inkscape:showpageshadow="0"
     inkscape:pageopacity="0"
     inkscape:pagecheckerboard="0"
     inkscape:deskcolor="#505050"
     inkscape:zoom="0.5"
     inkscape:cx="265"
     inkscape:cy="429"
     inkscape:window-width="1920"
     inkscape:window-height="1057"
     inkscape:window-x="-8"
     inkscape:window-y="-8"
     inkscape:window-maximized="1"
     inkscape:current-layer="svg3" /><g
     id="g9"
     inkscape:label="Fighter"
     style="display:inline"><rect
       style="clip-rule:evenodd;fill:#000000;fill-rule:evenodd;stroke:none;stroke-width:80.0182;stroke-dasharray:none;stroke-opacity:1;paint-order:markers fill stroke;image-rendering:optimizeQuality;shape-rendering:geometricPrecision;text-rendering:geometricPrecision;fill-opacity:0.69999999"
       id="rect9"
       width="768.17493"
       height="768.17493"
       x="46.412506"
       y="45.406574"
       inkscape:label="Background" /><path
       id="path9"
       style="clip-rule:evenodd;fill:#c93636;fill-opacity:1;fill-rule:evenodd;stroke-width:0.099629;image-rendering:optimizeQuality;shape-rendering:geometricPrecision;text-rendering:geometricPrecision"
       d="M 46.431372,44.265625 V 306.48803 568.81095 L 61.874299,553.36803 77.315292,537.92704 V 306.58855 75.151479 h 68.446438 68.54309 L 198.86383,59.708552 183.4209,44.265625 h -68.44451 z m 243.591928,0 15.44293,15.442927 15.44292,15.442927 H 552.2457 783.68471 l 0.19909,68.245401 0.2977,68.24541 15.24382,-15.14331 15.14331,-15.24382 V 112.71014 44.265625 H 552.34622 Z M 814.26901,288.35627 c -0.0996,0 -7.07219,6.87502 -15.441,15.24383 l -15.1433,15.14331 v 231.43707 231.33848 l -68.24734,0.1991 -68.24541,0.29769 15.14331,15.1433 15.24383,15.24383 h 68.54502 68.44451 v -262.0233 c 0,-144.06296 -0.10036,-262.02331 -0.29962,-262.02331 z M 76.818505,645.02622 61.57468,660.17146 46.431372,675.41335 v 68.54503 68.4445 H 308.65378 570.9767 l -15.44293,-15.44292 -15.44292,-15.441 H 308.7543 77.315292 l -0.199101,-68.2454 z"
       inkscape:label="Box" /><path
       id="path1-7"
       style="shape-rendering:geometricPrecision;text-rendering:geometricPrecision;image-rendering:optimizeQuality;fill-rule:evenodd;clip-rule:evenodd;fill:#c93636;stroke-width:0.53495;fill-opacity:1"
       d="M 114.61719 91.462891 C 107.66284 91.462891 101.24349 94.673116 99.638672 97.882812 C 98.568773 101.62745 96.964263 117.67593 95.359375 133.18945 L 93.220703 161.00586 L 116.22266 161.00586 C 129.06144 161.00586 139.75977 158.86595 139.75977 155.65625 C 139.75977 152.44655 131.20093 150.30664 120.50195 150.30664 L 101.7793 150.30664 L 103.38477 127.83984 L 104.98828 104.83594 L 133.3418 105.90625 C 148.32031 106.44119 161.1582 105.37201 161.1582 102.69727 C 161.1582 100.02252 153.66837 96.811663 144.57422 94.671875 C 135.48007 93.067017 122.10645 91.462891 114.61719 91.462891 z M 201.81445 91.462891 C 188.44076 91.462891 176.67122 93.06744 175.06641 95.742188 C 173.9965 97.881995 171.85719 113.93066 171.32227 131.58398 C 170.25237 152.44699 171.8571 163.68031 176.13672 165.28516 C 180.41634 166.35506 182.55664 157.26084 182.55664 134.79297 L 182.55664 102.16211 L 203.95508 102.16211 C 215.72396 102.16211 225.35156 99.487247 225.35156 96.8125 C 225.35156 93.602813 214.65324 91.462891 201.81445 91.462891 z M 657.89258 91.462891 C 645.05379 91.462891 634.35547 93.602813 634.35547 96.8125 C 634.35547 99.487247 643.98307 102.16211 655.75195 102.16211 L 677.15039 102.16211 L 677.15039 134.79297 C 677.15039 157.26084 679.29069 166.35506 683.57031 165.28516 C 687.84993 163.68031 689.45466 152.44699 688.38477 131.58398 C 687.84985 113.93066 685.71053 97.881995 684.64062 95.742188 C 683.03581 93.06744 671.26627 91.462891 657.89258 91.462891 z M 745.08984 91.462891 C 737.60058 91.462891 724.22696 93.067017 715.13281 94.671875 C 706.03866 96.811663 698.54883 100.02252 698.54883 102.69727 C 698.54883 105.37201 711.38672 106.44119 726.36523 105.90625 L 754.71875 104.83594 L 756.32422 127.83984 L 757.92773 150.30664 L 739.20508 150.30664 C 728.5061 150.30664 719.94727 152.44655 719.94727 155.65625 C 719.94727 158.86595 730.64559 161.00586 743.48438 161.00586 L 766.48828 161.00586 L 764.34766 133.18945 C 762.74277 117.67593 761.13826 101.62745 760.06836 97.882812 C 758.46354 94.673116 752.04419 91.462891 745.08984 91.462891 z M 214.78125 113.31641 C 214.38631 113.30387 213.9852 113.32766 213.58398 113.39453 C 209.83936 113.39453 203.42042 115.00062 199.67578 116.60547 C 196.46607 117.67537 193.25586 120.88559 193.25586 123.02539 C 193.25586 125.70014 199.13965 126.23375 206.62891 124.62891 C 214.11817 123.55901 220.00391 120.35053 220.00391 117.67578 C 220.00391 115.33538 217.54586 113.40416 214.78125 113.31641 z M 644.92578 113.31641 C 642.16118 113.40416 639.70508 115.33538 639.70508 117.67578 C 639.70508 120.35053 645.58886 123.55901 653.07812 124.62891 C 660.56738 126.23375 666.45117 125.70014 666.45117 123.02539 C 666.45117 120.88559 663.24291 117.67537 660.0332 116.60547 C 656.28857 115.00062 649.86767 113.39453 646.12305 113.39453 C 645.72183 113.32766 645.32072 113.30387 644.92578 113.31641 z M 139.75977 118.21094 C 119.96664 118.21094 118.36352 119.28078 118.89844 133.18945 C 119.43343 141.74863 120.50259 143.88855 122.10742 138.53906 C 123.71224 131.58472 130.13192 128.9082 142.9707 128.9082 C 153.13468 128.9082 161.1582 126.23334 161.1582 123.55859 C 161.1582 120.34891 151.52864 118.21094 139.75977 118.21094 z M 719.94727 118.21094 C 708.17839 118.21094 698.54883 120.34891 698.54883 123.55859 C 698.54883 126.23334 706.57235 128.9082 716.73633 128.9082 C 729.57512 128.9082 735.99479 131.58472 737.59961 138.53906 C 739.20444 143.88855 740.27556 141.74863 740.81055 133.18945 C 741.34547 119.28078 739.7404 118.21094 719.94727 118.21094 z M 153.13477 134.25781 C 151.52995 134.25781 150.45898 142.81819 150.45898 152.44727 L 150.45898 171.16992 L 122.64258 172.77539 L 94.289062 174.37891 L 92.685547 199.52148 C 91.615648 215.03501 93.219971 225.19922 96.429688 225.19922 C 99.639394 225.19922 102.31445 215.57161 102.31445 203.80273 L 102.31445 182.4043 L 129.0625 182.4043 L 155.80859 182.4043 L 155.80859 158.33203 C 155.80859 144.9583 154.73966 134.25781 153.13477 134.25781 z M 706.57227 134.25781 C 704.96737 134.25781 703.89844 144.9583 703.89844 158.33203 L 703.89844 182.4043 L 730.64648 182.4043 L 757.39258 182.4043 L 757.39258 203.80273 C 757.39258 215.57161 760.06764 225.19922 763.27734 225.19922 C 766.48706 225.19922 768.09138 215.03501 767.02148 199.52148 L 765.41797 174.37891 L 737.06445 172.77539 L 709.24805 171.16992 L 709.24805 152.44727 C 709.24805 142.81819 708.17708 134.25781 706.57227 134.25781 z M 123.71289 193.10352 C 120.50324 193.10352 118.36328 200.59315 118.36328 209.15234 C 118.36328 217.71153 120.50324 225.19922 123.71289 225.19922 C 126.9226 225.19922 129.0625 217.71153 129.0625 209.15234 C 129.0625 200.59315 126.9226 193.10352 123.71289 193.10352 z M 735.99609 193.10352 C 732.78639 193.10352 730.64648 200.59315 730.64648 209.15234 C 730.64648 217.71153 732.78639 225.19922 735.99609 225.19922 C 739.20574 225.19922 741.3457 217.71153 741.3457 209.15234 C 741.3457 200.59315 739.20574 193.10352 735.99609 193.10352 z M 96.429688 631.46289 C 93.219971 631.46289 91.615648 641.6271 92.685547 657.14062 L 94.289062 682.2832 L 122.64258 683.88672 L 150.45898 685.49219 L 150.45898 704.21484 C 150.45898 713.84392 151.52995 722.4043 153.13477 722.4043 C 154.73966 722.4043 155.80859 711.70576 155.80859 698.33203 L 155.80859 674.25781 L 129.0625 674.25781 L 102.31445 674.25781 L 102.31445 652.86133 C 102.31445 641.09245 99.639394 631.46289 96.429688 631.46289 z M 123.71289 631.46289 C 120.50324 631.46289 118.36328 638.95254 118.36328 647.51172 C 118.36328 656.07091 120.50324 663.55859 123.71289 663.55859 C 126.9226 663.55859 129.0625 656.07091 129.0625 647.51172 C 129.0625 638.95254 126.9226 631.46289 123.71289 631.46289 z M 735.99609 631.46289 C 732.78639 631.46289 730.64648 638.95254 730.64648 647.51172 C 730.64648 656.07091 732.78639 663.55859 735.99609 663.55859 C 739.20574 663.55859 741.3457 656.07091 741.3457 647.51172 C 741.3457 638.95254 739.20574 631.46289 735.99609 631.46289 z M 763.27734 631.46289 C 760.06764 631.46289 757.39258 641.09245 757.39258 652.86133 L 757.39258 674.25781 L 730.64648 674.25781 L 703.89844 674.25781 L 703.89844 698.33203 C 703.89844 711.70576 704.96737 722.4043 706.57227 722.4043 C 708.17708 722.4043 709.24805 713.84392 709.24805 704.21484 L 709.24805 685.49219 L 737.06445 683.88672 L 765.41797 682.2832 L 767.02148 657.14062 C 768.09138 641.6271 766.48706 631.46289 763.27734 631.46289 z M 176.91406 691.29688 C 176.6633 691.28355 176.4042 691.31008 176.13672 691.37695 C 171.8571 692.9818 170.25237 704.21512 171.32227 725.07812 C 171.85719 742.73145 173.9965 758.78011 175.06641 760.91992 C 176.67122 763.59467 188.44076 765.19922 201.81445 765.19922 C 214.65324 765.19922 225.35156 763.0593 225.35156 759.84961 C 225.35156 757.17486 215.72396 754.5 203.95508 754.5 L 182.55664 754.5 L 182.55664 721.86914 C 182.55664 700.80551 180.67544 691.4967 176.91406 691.29688 z M 682.79297 691.29688 C 679.03159 691.4967 677.15039 700.80551 677.15039 721.86914 L 677.15039 754.5 L 655.75195 754.5 C 643.98307 754.5 634.35547 757.17486 634.35547 759.84961 C 634.35547 763.0593 645.05379 765.19922 657.89258 765.19922 C 671.26627 765.19922 683.03581 763.59467 684.64062 760.91992 C 685.71053 758.78011 687.84985 742.73145 688.38477 725.07812 C 689.45466 704.21512 687.84993 692.9818 683.57031 691.37695 C 683.30284 691.31008 683.04373 691.28355 682.79297 691.29688 z M 93.220703 695.65625 L 95.359375 723.47461 C 96.964263 738.98813 98.568773 755.03661 99.638672 758.78125 C 101.24349 761.99095 107.66284 765.19922 114.61719 765.19922 C 122.10645 765.19922 135.48007 763.59509 144.57422 761.99023 C 153.66837 759.85045 161.1582 756.64154 161.1582 753.9668 C 161.1582 751.29205 148.32031 750.22092 133.3418 750.75586 L 104.98828 751.82617 L 103.38477 728.82422 L 101.7793 706.35547 L 120.50195 706.35547 C 131.20093 706.35547 139.75977 704.21556 139.75977 701.00586 C 139.75977 697.79616 129.06144 695.65625 116.22266 695.65625 L 93.220703 695.65625 z M 743.48438 695.65625 C 730.64559 695.65625 719.94727 697.79616 719.94727 701.00586 C 719.94727 704.21556 728.5061 706.35547 739.20508 706.35547 L 757.92773 706.35547 L 756.32422 728.82422 L 754.71875 751.82617 L 726.36523 750.75586 C 711.38672 750.22092 698.54883 751.29205 698.54883 753.9668 C 698.54883 756.64154 706.03866 759.85045 715.13281 761.99023 C 724.22696 763.59509 737.60058 765.19922 745.08984 765.19922 C 752.04419 765.19922 758.46354 761.99095 760.06836 758.78125 C 761.13826 755.03661 762.74277 738.98813 764.34766 723.47461 L 766.48828 695.65625 L 743.48438 695.65625 z M 120.52734 715.20898 C 119.77507 715.28212 119.23281 718.12512 118.89844 723.47461 C 118.36352 737.38329 119.96664 738.45312 139.75977 738.45312 C 151.52864 738.45313 161.1582 736.3132 161.1582 733.10352 C 161.1582 730.42877 153.13468 727.75391 142.9707 727.75391 C 130.13192 727.75391 123.71224 725.07934 122.10742 718.125 C 121.50561 716.11894 120.97871 715.1651 120.52734 715.20898 z M 739.17969 715.20898 C 738.72832 715.1651 738.20142 716.11894 737.59961 718.125 C 735.99479 725.07934 729.57512 727.75391 716.73633 727.75391 C 706.57235 727.75391 698.54883 730.42877 698.54883 733.10352 C 698.54883 736.3132 708.17839 738.45313 719.94727 738.45312 C 739.7404 738.45312 741.34547 737.38329 740.81055 723.47461 C 740.47618 718.12512 739.93196 715.28212 739.17969 715.20898 z M 199.10742 731.13086 C 195.55503 731.13086 193.25586 731.96695 193.25586 733.63867 C 193.25586 735.77847 196.46607 738.98674 199.67578 740.05664 C 203.42042 741.66149 209.83936 743.26758 213.58398 743.26758 C 216.7937 743.80254 220.00391 741.66303 220.00391 738.98828 C 220.00391 736.31353 214.11817 733.1031 206.62891 732.0332 C 203.82044 731.43138 201.23886 731.13086 199.10742 731.13086 z M 660.60156 731.13086 C 658.47013 731.13086 655.88659 731.43138 653.07812 732.0332 C 645.58886 733.1031 639.70508 736.31353 639.70508 738.98828 C 639.70508 741.66303 642.91333 743.80254 646.12305 743.26758 C 649.86767 743.26758 656.28857 741.66149 660.0332 740.05664 C 663.24291 738.98674 666.45117 735.77847 666.45117 733.63867 C 666.45117 731.96695 664.15395 731.13086 660.60156 731.13086 z "
       inkscape:label="Selected" /><path
       id="path8"
       style="display:inline;fill:#c83737;fill-opacity:1;stroke-width:0.100665"
       d="m 648.74023,0 -5.23437,14.796875 c -2.81861,8.2545 -5.13281,15.200857 -5.13281,15.603516 0,0.503323 41.87694,0.80664 93.11523,0.80664 h 93.11328 v 86.369139 86.26953 l -46.70703,46.70899 c -43.7891,43.7891 -46.70824,46.90885 -46.40625,49.82812 0.20133,1.7113 10.06599,64.82965 21.84375,140.32813 l 21.44141,137.20508 0.30273,-139.72266 0.20117,-139.72266 40.56641,-40.76953 L 856.3125,216.93164 855.80859,108.71875 855.30469,0.50390625 752.02344,0.20117188 Z M 218.60156,2.2148438 C 218.29957,2.416173 169.57752,2.7175374 110.38672,3.0195312 L 2.6757812,3.5234375 2.3730469,106.80469 2.171875,210.08789 16.96875,215.32227 c 8.2545,2.8186 15.200857,5.13281 15.603516,5.13281 0.503323,0 0.804687,-41.87499 0.804687,-93.11328 V 34.226562 h 86.371097 86.26953 l 46.70898,46.707032 c 43.78911,43.789116 46.90885,46.710196 49.82813,46.408206 1.7113,-0.20133 64.82769,-10.06795 140.32617,-21.84571 L 580.08789,84.054688 440.36523,83.753906 300.64258,83.550781 259.87305,42.783203 C 237.42484,20.334991 218.90356,2.1141792 218.60156,2.2148438 Z M 86.025391,278.8418 c -0.201329,0 -0.302735,62.81398 -0.302735,139.62109 V 558.18555 L 45.255859,598.95508 4.6875,639.72461 5.1914062,747.93945 5.6953125,856.1543 l 103.2812475,0.30078 103.28321,0.20117 5.33398,-15.09961 c 2.91927,-8.35517 5.03336,-15.40219 4.83203,-15.60352 -0.30199,-0.30198 -42.17787,-0.50195 -93.21484,-0.50195 H 36.398438 l 0.201171,-86.57226 0.300782,-86.57227 46.40625,-46.50586 46.507809,-46.60742 -1.00586,-8.05469 C 127.70128,541.57553 86.327384,278.8418 86.025391,278.8418 Z M 828.42773,636.20117 c -0.50333,0 -0.80468,41.87696 -0.80468,93.11524 v 93.11523 h -86.3711 -86.26953 l -46.70898,-46.70898 c -43.78911,-43.78911 -46.90885,-46.70824 -49.82813,-46.40625 -1.7113,0.20133 -64.82769,10.06599 -140.32617,21.84375 l -137.20703,21.4414 139.72266,0.30274 139.72265,0.20117 40.76953,40.56836 40.76953,40.46679 108.21485,-0.5039 108.21289,-0.50391 0.30273,-103.28125 0.20117,-103.28125 -14.79687,-5.23437 c -8.2545,-2.81861 -15.20086,-5.13477 -15.60352,-5.13477 z"
       inkscape:label="Outline" /></g></svg>
