<?xml version="1.0" encoding="UTF-8" standalone="no"?>
<svg
   version="1.1"
   width="861px"
   height="859px"
   style="shape-rendering:geometricPrecision; text-rendering:geometricPrecision; image-rendering:optimizeQuality; fill-rule:evenodd; clip-rule:evenodd"
   id="svg3"
   sodipodi:docname="slot_highlighted_background.svg"
   xml:space="preserve"
   inkscape:version="1.3 (0e150ed6c4, 2023-07-21)"
   xmlns:inkscape="http://www.inkscape.org/namespaces/inkscape"
   xmlns:sodipodi="http://sodipodi.sourceforge.net/DTD/sodipodi-0.dtd"
   xmlns:xlink="http://www.w3.org/1999/xlink"
   xmlns="http://www.w3.org/2000/svg"
   xmlns:svg="http://www.w3.org/2000/svg"><defs
     id="defs3"><linearGradient
       id="linearGradient1"
       inkscape:collect="always"><stop
         style="stop-color:#000000;stop-opacity:0.20157067;"
         offset="0.61244541"
         id="stop2" /><stop
         style="stop-color:#ca3535;stop-opacity:0.5;"
         offset="1"
         id="stop1" /></linearGradient><radialGradient
       inkscape:collect="always"
       xlink:href="#linearGradient1"
       id="radialGradient2"
       cx="430.49997"
       cy="429.49405"
       fx="430.49997"
       fy="429.49405"
       r="384.08746"
       gradientUnits="userSpaceOnUse" /></defs><sodipodi:namedview
     id="namedview3"
     pagecolor="#505050"
     bordercolor="#eeeeee"
     borderopacity="1"
     inkscape:showpageshadow="0"
     inkscape:pageopacity="0"
     inkscape:pagecheckerboard="0"
     inkscape:deskcolor="#505050"
     inkscape:zoom="0.35355339"
     inkscape:cx="202.23254"
     inkscape:cy="323.85491"
     inkscape:window-width="1920"
     inkscape:window-height="1057"
     inkscape:window-x="-8"
     inkscape:window-y="-8"
     inkscape:window-maximized="1"
     inkscape:current-layer="svg3" /><g
     id="g9"
     inkscape:label="Fighter"
     style="display:inline"><rect
       style="clip-rule:evenodd;fill:url(#radialGradient2);fill-rule:evenodd;stroke:none;stroke-width:80.0182;stroke-dasharray:none;stroke-opacity:1;paint-order:markers fill stroke;image-rendering:optimizeQuality;shape-rendering:geometricPrecision;text-rendering:geometricPrecision"
       id="rect9"
       width="768.17493"
       height="768.17493"
       x="46.412506"
       y="45.406574"
       inkscape:label="Background" /><path
       id="path9"
       style="clip-rule:evenodd;fill:#c73636;fill-opacity:1;fill-rule:evenodd;stroke-width:0.099629;image-rendering:optimizeQuality;shape-rendering:geometricPrecision;text-rendering:geometricPrecision"
       d="M 46.431372,44.265625 V 306.48803 568.81095 L 61.874299,553.36803 77.315292,537.92704 V 306.58855 75.151479 h 68.446438 68.54309 L 198.86383,59.708552 183.4209,44.265625 h -68.44451 z m 243.591928,0 15.44293,15.442927 15.44292,15.442927 H 552.2457 783.68471 l 0.19909,68.245401 0.2977,68.24541 15.24382,-15.14331 15.14331,-15.24382 V 112.71014 44.265625 H 552.34622 Z M 814.26901,288.35627 c -0.0996,0 -7.07219,6.87502 -15.441,15.24383 l -15.1433,15.14331 v 231.43707 231.33848 l -68.24734,0.1991 -68.24541,0.29769 15.14331,15.1433 15.24383,15.24383 h 68.54502 68.44451 v -262.0233 c 0,-144.06296 -0.10036,-262.02331 -0.29962,-262.02331 z M 76.818505,645.02622 61.57468,660.17146 46.431372,675.41335 v 68.54503 68.4445 H 308.65378 570.9767 l -15.44293,-15.44292 -15.44292,-15.441 H 308.7543 77.315292 l -0.199101,-68.2454 z"
       inkscape:label="Box" /><path
       id="path8"
       style="display:inline;fill:#ff6565;fill-opacity:1;stroke-width:0.100665"
       d="m 648.74023,0 -5.23437,14.796875 c -2.81861,8.2545 -5.13281,15.200857 -5.13281,15.603516 0,0.503323 41.87694,0.80664 93.11523,0.80664 h 93.11328 v 86.369139 86.26953 l -46.70703,46.70899 c -43.7891,43.7891 -46.70824,46.90885 -46.40625,49.82812 0.20133,1.7113 10.06599,64.82965 21.84375,140.32813 l 21.44141,137.20508 0.30273,-139.72266 0.20117,-139.72266 40.56641,-40.76953 L 856.3125,216.93164 855.80859,108.71875 855.30469,0.50390625 752.02344,0.20117188 Z M 218.60156,2.2148438 C 218.29957,2.416173 169.57752,2.7175374 110.38672,3.0195312 L 2.6757812,3.5234375 2.3730469,106.80469 2.171875,210.08789 16.96875,215.32227 c 8.2545,2.8186 15.200857,5.13281 15.603516,5.13281 0.503323,0 0.804687,-41.87499 0.804687,-93.11328 V 34.226562 h 86.371097 86.26953 l 46.70898,46.707032 c 43.78911,43.789116 46.90885,46.710196 49.82813,46.408206 1.7113,-0.20133 64.82769,-10.06795 140.32617,-21.84571 L 580.08789,84.054688 440.36523,83.753906 300.64258,83.550781 259.87305,42.783203 C 237.42484,20.334991 218.90356,2.1141792 218.60156,2.2148438 Z M 86.025391,278.8418 c -0.201329,0 -0.302735,62.81398 -0.302735,139.62109 V 558.18555 L 45.255859,598.95508 4.6875,639.72461 5.1914062,747.93945 5.6953125,856.1543 l 103.2812475,0.30078 103.28321,0.20117 5.33398,-15.09961 c 2.91927,-8.35517 5.03336,-15.40219 4.83203,-15.60352 -0.30199,-0.30198 -42.17787,-0.50195 -93.21484,-0.50195 H 36.398438 l 0.201171,-86.57226 0.300782,-86.57227 46.40625,-46.50586 46.507809,-46.60742 -1.00586,-8.05469 C 127.70128,541.57553 86.327384,278.8418 86.025391,278.8418 Z M 828.42773,636.20117 c -0.50333,0 -0.80468,41.87696 -0.80468,93.11524 v 93.11523 h -86.3711 -86.26953 l -46.70898,-46.70898 c -43.78911,-43.78911 -46.90885,-46.70824 -49.82813,-46.40625 -1.7113,0.20133 -64.82769,10.06599 -140.32617,21.84375 l -137.20703,21.4414 139.72266,0.30274 139.72265,0.20117 40.76953,40.56836 40.76953,40.46679 108.21485,-0.5039 108.21289,-0.50391 0.30273,-103.28125 0.20117,-103.28125 -14.79687,-5.23437 c -8.2545,-2.81861 -15.20086,-5.13477 -15.60352,-5.13477 z"
       inkscape:label="Outline" /><path
       id="path1-7"
       style="clip-rule:evenodd;display:inline;fill:#ff6565;fill-opacity:1;fill-rule:evenodd;stroke-width:0.53495;image-rendering:optimizeQuality;shape-rendering:geometricPrecision;text-rendering:geometricPrecision"
       d="m 115.26368,92.63182 c -6.95435,0 -13.3737,3.21022 -14.97852,6.41992 -1.069901,3.74464 -2.674411,19.79312 -4.279299,35.30664 l -2.138672,27.81641 h 23.001961 c 12.83878,0 23.53711,-2.13991 23.53711,-5.34961 0,-3.2097 -8.55884,-5.34961 -19.25782,-5.34961 h -18.72265 l 1.60547,-22.4668 1.60351,-23.0039 28.35352,1.07031 c 14.97851,0.53494 27.8164,-0.53424 27.8164,-3.20898 0,-2.67475 -7.48983,-5.88561 -16.58398,-8.0254 -9.09415,-1.60485 -22.46777,-3.20898 -29.95703,-3.20898 z m 87.19726,0 c -13.37369,0 -25.14323,1.60455 -26.74804,4.2793 -1.06991,2.1398 -3.20922,18.18847 -3.74414,35.84179 -1.0699,20.86301 0.53483,32.09633 4.81445,33.70118 4.27962,1.0699 6.41992,-8.02432 6.41992,-30.49219 v -32.63086 h 21.39844 c 11.76888,0 21.39648,-2.67486 21.39648,-5.34961 0,-3.20969 -10.69832,-5.34961 -23.53711,-5.34961 z m 456.07813,0 c -12.83879,0 -23.53711,2.13992 -23.53711,5.34961 0,2.67475 9.6276,5.34961 21.39648,5.34961 h 21.39844 v 32.63086 c 0,22.46787 2.1403,31.56209 6.41992,30.49219 4.27962,-1.60485 5.88435,-12.83817 4.81446,-33.70118 -0.53492,-17.65332 -2.67424,-33.70199 -3.74415,-35.84179 -1.60481,-2.67475 -13.37435,-4.2793 -26.74804,-4.2793 z m 87.19726,0 c -7.48926,0 -20.86288,1.60413 -29.95703,3.20898 -9.09415,2.13979 -16.58398,5.35065 -16.58398,8.0254 0,2.67474 12.83789,3.74392 27.8164,3.20898 l 28.35352,-1.07031 1.60547,23.0039 1.60351,22.4668 h -18.72265 c -10.69898,0 -19.25781,2.13991 -19.25781,5.34961 0,3.2097 10.69832,5.34961 23.53711,5.34961 h 23.0039 l -2.14062,-27.81641 c -1.60489,-15.51352 -3.2094,-31.562 -4.2793,-35.30664 -1.60482,-3.20969 -8.02417,-6.41992 -14.97852,-6.41992 z m -530.30859,21.85352 c -0.39494,-0.0125 -0.79605,0.0112 -1.19727,0.0781 -3.74462,0 -10.16356,1.60609 -13.9082,3.21094 -3.20971,1.0699 -6.41992,4.28012 -6.41992,6.41992 0,2.67475 5.88379,3.20836 13.37305,1.60352 7.48926,-1.0699 13.375,-4.27838 13.375,-6.95313 0,-2.3404 -2.45805,-4.27162 -5.22266,-4.35937 z m 430.14453,0 c -2.7646,0.0877 -5.2207,2.01897 -5.2207,4.35937 0,2.67475 5.88378,5.88323 13.37304,6.95313 7.48926,1.60484 13.37305,1.07123 13.37305,-1.60352 0,-2.1398 -3.20826,-5.35002 -6.41797,-6.41992 -3.74463,-1.60485 -10.16553,-3.21094 -13.91015,-3.21094 -0.40122,-0.0669 -0.80233,-0.0907 -1.19727,-0.0781 z m -505.16601,4.89453 c -19.79313,0 -21.39625,1.06984 -20.86133,14.97851 0.53499,8.55918 1.60415,10.6991 3.20898,5.34961 1.60482,-6.95434 8.0245,-9.63086 20.86328,-9.63086 10.16398,0 18.1875,-2.67486 18.1875,-5.34961 0,-3.20968 -9.62956,-5.34765 -21.39843,-5.34765 z m 580.1875,0 c -11.76888,0 -21.39844,2.13797 -21.39844,5.34765 0,2.67475 8.02352,5.34961 18.1875,5.34961 12.83879,0 19.25846,2.67652 20.86328,9.63086 1.60483,5.34949 2.67595,3.20957 3.21094,-5.34961 0.53492,-13.90867 -1.07015,-14.97851 -20.86328,-14.97851 z m -566.8125,16.04687 c -1.60482,0 -2.67579,8.56038 -2.67579,18.18946 v 18.72265 l -27.8164,1.60547 -28.353522,1.60352 -1.603515,25.14257 c -1.069899,15.51353 0.534424,25.67774 3.744141,25.67774 3.209706,0 5.884766,-9.62761 5.884766,-21.39649 v -21.39843 h 26.74805 26.74609 v -24.07227 c 0,-13.37373 -1.06893,-24.07422 -2.67382,-24.07422 z m 553.4375,0 c -1.6049,0 -2.67383,10.70049 -2.67383,24.07422 v 24.07227 h 26.74804 26.7461 v 21.39843 c 0,11.76888 2.67506,21.39649 5.88476,21.39649 3.20972,0 4.81404,-10.16421 3.74414,-25.67774 l -1.60351,-25.14257 -28.35352,-1.60352 -27.8164,-1.60547 V 153.6162 c 0,-9.62908 -1.07097,-18.18946 -2.67578,-18.18946 z m -582.85938,58.84571 c -3.20965,0 -5.34961,7.48963 -5.34961,16.04882 0,8.55919 2.13996,16.04688 5.34961,16.04688 3.20971,0 5.34961,-7.48769 5.34961,-16.04688 0,-8.55919 -2.1399,-16.04882 -5.34961,-16.04882 z m 612.2832,0 c -3.2097,0 -5.34961,7.48963 -5.34961,16.04882 0,8.55919 2.13991,16.04688 5.34961,16.04688 3.20965,0 5.34961,-7.48769 5.34961,-16.04688 0,-8.55919 -2.13996,-16.04882 -5.34961,-16.04882 z M 97.076174,632.63182 c -3.209717,0 -4.81404,10.16421 -3.744141,25.67773 l 1.603515,25.14258 28.353522,1.60352 27.8164,1.60547 v 18.72265 c 0,9.62908 1.07097,18.18946 2.67579,18.18946 1.60489,0 2.67382,-10.69854 2.67382,-24.07227 v -24.07422 h -26.74609 -26.74805 v -21.39648 c 0,-11.76888 -2.67506,-21.39844 -5.884766,-21.39844 z m 27.283206,0 c -3.20965,0 -5.34961,7.48965 -5.34961,16.04883 0,8.55919 2.13996,16.04687 5.34961,16.04687 3.20971,0 5.34961,-7.48768 5.34961,-16.04687 0,-8.55918 -2.1399,-16.04883 -5.34961,-16.04883 z m 612.2832,0 c -3.2097,0 -5.34961,7.48965 -5.34961,16.04883 0,8.55919 2.13991,16.04687 5.34961,16.04687 3.20965,0 5.34961,-7.48768 5.34961,-16.04687 0,-8.55918 -2.13996,-16.04883 -5.34961,-16.04883 z m 27.28125,0 c -3.2097,0 -5.88476,9.62956 -5.88476,21.39844 v 21.39648 h -26.7461 -26.74804 v 24.07422 c 0,13.37373 1.06893,24.07227 2.67383,24.07227 1.60481,0 2.67578,-8.56038 2.67578,-18.18946 v -18.72265 l 27.8164,-1.60547 28.35352,-1.60352 1.60351,-25.14258 c 1.0699,-15.51352 -0.53442,-25.67773 -3.74414,-25.67773 z m -586.36328,59.83399 c -0.25076,-0.0133 -0.50986,0.0132 -0.77734,0.0801 -4.27962,1.60485 -5.88435,12.83817 -4.81445,33.70117 0.53492,17.65333 2.67423,33.70199 3.74414,35.8418 1.60481,2.67475 13.37435,4.2793 26.74804,4.2793 12.83879,0 23.53711,-2.13992 23.53711,-5.34961 0,-2.67475 -9.6276,-5.34961 -21.39648,-5.34961 H 183.20313 V 723.0381 c 0,-21.06363 -1.8812,-30.37244 -5.64258,-30.57226 z m 505.87891,0 c -3.76138,0.19982 -5.64258,9.50863 -5.64258,30.57226 v 32.63086 h -21.39844 c -11.76888,0 -21.39648,2.67486 -21.39648,5.34961 0,3.20969 10.69832,5.34961 23.53711,5.34961 13.37369,0 25.14323,-1.60455 26.74804,-4.2793 1.06991,-2.13981 3.20923,-18.18847 3.74415,-35.8418 1.06989,-20.863 -0.53484,-32.09632 -4.81446,-33.70117 -0.26747,-0.0669 -0.52658,-0.0934 -0.77734,-0.0801 z m -589.572271,4.35937 2.138672,27.81836 c 1.604888,15.51352 3.209398,31.562 4.279299,35.30664 1.60482,3.2097 8.02417,6.41797 14.97852,6.41797 7.48926,0 20.86288,-1.60413 29.95703,-3.20899 9.09415,-2.13978 16.58398,-5.34869 16.58398,-8.02343 0,-2.67475 -12.83789,-3.74588 -27.8164,-3.21094 l -28.35352,1.07031 -1.60351,-23.00195 -1.60547,-22.46875 h 18.72265 c 10.69898,0 19.25782,-2.13991 19.25782,-5.34961 0,-3.2097 -10.69833,-5.34961 -23.53711,-5.34961 z m 650.263681,0 c -12.83879,0 -23.53711,2.13991 -23.53711,5.34961 0,3.2097 8.55883,5.34961 19.25781,5.34961 h 18.72265 l -1.60351,22.46875 -1.60547,23.00195 -28.35352,-1.07031 c -14.97851,-0.53494 -27.8164,0.53619 -27.8164,3.21094 0,2.67474 7.48983,5.88365 16.58398,8.02343 9.09415,1.60486 22.46777,3.20899 29.95703,3.20899 6.95435,0 13.3737,-3.20827 14.97852,-6.41797 1.0699,-3.74464 2.67441,-19.79312 4.2793,-35.30664 l 2.14062,-27.81836 z m -622.95704,19.55273 c -0.75227,0.0731 -1.29453,2.91614 -1.6289,8.26563 -0.53492,13.90868 1.0682,14.97851 20.86133,14.97851 11.76887,1e-5 21.39843,-2.13992 21.39843,-5.3496 0,-2.67475 -8.02352,-5.34961 -18.1875,-5.34961 -12.83878,0 -19.25846,-2.67457 -20.86328,-9.62891 -0.60181,-2.00606 -1.12871,-2.9599 -1.58008,-2.91602 z m 618.65235,0 c -0.45137,-0.0439 -0.97827,0.90996 -1.58008,2.91602 -1.60482,6.95434 -8.02449,9.62891 -20.86328,9.62891 -10.16398,0 -18.1875,2.67486 -18.1875,5.34961 0,3.20968 9.62956,5.34961 21.39844,5.3496 19.79313,0 21.3982,-1.06983 20.86328,-14.97851 -0.33437,-5.34949 -0.87859,-8.19249 -1.63086,-8.26563 z m -540.07227,15.92188 c -3.55239,0 -5.85156,0.83609 -5.85156,2.50781 0,2.1398 3.21021,5.34807 6.41992,6.41797 3.74464,1.60485 10.16358,3.21094 13.9082,3.21094 3.20972,0.53496 6.41993,-1.60455 6.41993,-4.2793 0,-2.67475 -5.88574,-5.88518 -13.375,-6.95508 -2.80847,-0.60182 -5.39005,-0.90234 -7.52149,-0.90234 z m 461.49414,0 c -2.13143,0 -4.71497,0.30052 -7.52344,0.90234 -7.48926,1.0699 -13.37304,4.28033 -13.37304,6.95508 0,2.67475 3.20825,4.81426 6.41797,4.2793 3.74462,0 10.16552,-1.60609 13.91015,-3.21094 3.20971,-1.0699 6.41797,-4.27817 6.41797,-6.41797 0,-1.67172 -2.29722,-2.50781 -5.84961,-2.50781 z"
       inkscape:label="Selected" /></g></svg>
