<?xml version="1.0" encoding="UTF-8" standalone="no"?>
<!-- Created with Inkscape (http://www.inkscape.org/) -->

<svg
   width="256mm"
   height="256mm"
   viewBox="0 0 256 256"
   version="1.1"
   id="svg4293"
   inkscape:version="1.3 (0e150ed6c4, 2023-07-21)"
   sodipodi:docname="wheel_indicator_inactive.svg"
   xml:space="preserve"
   xmlns:inkscape="http://www.inkscape.org/namespaces/inkscape"
   xmlns:sodipodi="http://sodipodi.sourceforge.net/DTD/sodipodi-0.dtd"
   xmlns="http://www.w3.org/2000/svg"
   xmlns:svg="http://www.w3.org/2000/svg"><sodipodi:namedview
     id="namedview4295"
     pagecolor="#ffffff"
     bordercolor="#000000"
     borderopacity="0.25"
     inkscape:showpageshadow="2"
     inkscape:pageopacity="0.0"
     inkscape:pagecheckerboard="0"
     inkscape:deskcolor="#5d5d5d"
     inkscape:document-units="mm"
     showgrid="false"
     inkscape:zoom="0.3535534"
     inkscape:cx="74.953317"
     inkscape:cy="957.42256"
     inkscape:window-width="1920"
     inkscape:window-height="1057"
     inkscape:window-x="-8"
     inkscape:window-y="-8"
     inkscape:window-maximized="1"
     inkscape:current-layer="svg4293" /><defs
     id="defs4290" /><g
     id="g2"
     style="display:none"><path
       id="rect1"
       style="display:none;fill:#000000;fill-opacity:1;stroke:#e78207;stroke-width:12;stroke-linejoin:round;stroke-dasharray:none;stroke-opacity:1"
       d="M 14.085445,6.0001553 V 161.25166 h -0.137459 l 114.106734,57.09936 114.10724,-57.09936 h -0.11213 V 64.184196 h -0.0253 V 6.0001553 Z"
       sodipodi:nodetypes="cccccccccc" /><path
       id="path4"
       style="display:none;fill:none;fill-opacity:1;stroke:#e78207;stroke-width:5.43942;stroke-linejoin:round;stroke-dasharray:none;stroke-opacity:1"
       d="m 37.132969,145.21574 90.910811,51.4583 90.91083,-51.4583 h -0.089 V 57.737883 h -0.0201 V 5.3016293 H 37.242274 V 145.21574 Z"
       sodipodi:nodetypes="cccccccccc" /><circle
       style="display:none;fill:#e78207;fill-opacity:1;stroke:none;stroke-width:2.42303;stroke-linejoin:bevel"
       id="path1"
       cx="128"
       cy="82.095551"
       r="34.383232" /></g><g
     id="g1"
     style="display:none"><circle
       style="display:inline;fill:#ffffff;fill-opacity:1;stroke:#599ad6;stroke-width:9.40372;stroke-dasharray:none;stroke-opacity:1;paint-order:markers fill stroke"
       id="path3"
       cx="128"
       cy="128"
       r="85.477791"
       inkscape:label="Eyeball" /><path
       id="path1-5"
       d="M 111.40439,52.357722 C 86.484648,56.414438 59.562891,70.007031 35.011932,90.870078 20.629074,103.14555 5.9301127,118.10793 2.4002517,124.16664 c -1.73858624,2.95033 -1.89663971,3.47718 -1.89663971,7.48121 0,5.68991 0.89563641,7.27045 7.84998461,14.43553 10.0100464,10.27345 23.8133734,21.60063 36.6683824,30.13552 16.700973,11.1164 30.188196,17.70197 47.205274,22.91773 11.906687,3.68791 18.597617,4.74159 32.137517,5.05771 15.91071,0.42148 24.0768,-0.63222 38.35429,-4.84698 10.01004,-2.95032 17.38587,-5.95334 27.71202,-11.32716 18.01809,-9.27245 32.29557,-19.38787 50.1556,-35.45665 12.69695,-11.43251 14.90971,-14.5409 14.90971,-20.9684 0,-1.89664 -0.15811,-3.63523 -0.42147,-3.84596 -0.21076,-0.21072 -0.36879,-0.57953 -0.36879,-0.73759 -0.21075,-3.52986 -20.75769,-25.02512 -35.29861,-36.931798 C 206.02568,79.121443 195.59416,72.219777 182.68648,65.73958 168.98851,58.890606 158.18819,55.044639 146.43956,52.831891 139.90669,51.620152 117.67384,51.304046 111.40439,52.357722 Z m 69.54348,36.87913 c 10.5896,6.111389 25.34123,17.438558 37.51133,28.818408 6.42751,6.00603 12.85503,12.855 12.74965,13.53989 -0.0527,0.52685 -11.01105,10.16812 -16.64829,14.69896 -11.80132,9.43052 -20.59962,15.2785 -32.03215,21.28452 -40.9893,23.66518 -64.67161,23.05248 -104.789381,2.84497 -13.856014,-6.26944 -32.71705,-19.44057 -48.89118,-34.24491 l -5.110392,-4.63622 4.320126,-4.7416 C 39.490111,114.31465 59.773627,97.929784 73.682324,89.816379 117.22218,64.678626 138.77204,64.886627 180.94787,89.236852 Z"
       style="display:none;fill:#599ad6;fill-opacity:1;stroke-width:0.0526844"
       sodipodi:nodetypes="cccscccccccsccccccccccccccccc"
       inkscape:label="Eyelid" /><circle
       style="display:none;fill:none;fill-opacity:1;stroke:#599ad6;stroke-width:9.27524;stroke-dasharray:none;stroke-opacity:1;paint-order:markers fill stroke"
       id="path2"
       cx="128"
       cy="91.878334"
       r="35.316208"
       inkscape:label="Retina" /><rect
       style="fill:#599ad6;fill-opacity:1;stroke:none;stroke-width:3.7664;stroke-dasharray:none;stroke-opacity:1;paint-order:markers fill stroke"
       id="rect10"
       width="170.13773"
       height="12.950115"
       x="42.931137"
       y="121.52494" /><path
       d="m 127.99871,7.1874821 7.39966,12.8174309 c 13.80954,0.959137 27.3363,4.555279 39.79788,10.578673 l 11.76639,-6.791638 -0.002,13.413623 c 11.3422,7.354885 21.44487,16.932025 29.58683,28.540524 h 17.14412 l -8.47191,14.672048 c 6.60077,13.453705 10.15685,27.703947 10.88974,41.914107 l 11.61558,6.70683 -11.76405,6.79401 c -1.01331,13.80246 -4.66129,27.31745 -10.73656,39.75547 l 8.4672,14.66497 h -17.1182 c -7.74842,11.04058 -17.68374,20.7803 -29.61039,28.51224 v 11.35634 l -9.83165,-5.67699 c -13.36416,6.82466 -27.55545,10.60461 -41.7397,11.56375 l -7.39259,12.80327 -7.39966,-12.81742 c -13.80954,-0.95914 -27.338664,-4.55527 -39.800246,-10.58104 l -11.761675,6.7893 V 218.79641 C 57.692874,211.44153 47.59258,201.86439 39.448248,190.25353 H 22.304144 l 8.471897,-14.6744 C 24.175264,162.12542 20.621547,147.87285 19.883938,133.66031 l -11.608504,-6.70447 11.759324,-6.7893 C 21.048087,106.36172 24.69607,92.849095 30.771328,80.41109 L 22.304144,65.746095 H 39.422325 C 47.17311,54.703178 57.108442,44.961083 69.039795,37.226791 V 25.8728 l 9.833994,5.676996 C 92.235583,24.727508 106.42219,20.947546 120.60644,19.98843 Z"
       style="fill:none;fill-opacity:1;fill-rule:evenodd;stroke:#599ad6;stroke-width:7.06973px;stroke-opacity:1"
       id="path2-6" /><circle
       style="fill:#ffffff;fill-opacity:1;stroke-width:6.05613;paint-order:markers fill stroke"
       id="path5"
       cx="128"
       cy="128"
       r="16.754984" /><circle
       style="fill:#599ad6;fill-opacity:1;stroke-width:1.74999;paint-order:markers fill stroke"
       id="path6"
       cx="128"
       cy="128"
       r="5.8685627" /></g><path
     d="m 196.13592,84.232032 -0.70733,5.798299 c -10.847,1.182536 -36.63052,4.103767 -42.85844,-2.878146 l 2.33568,-11.818228 12.12953,2.615777 2.5202,-11.717248 -16.1133,-3.47489 -6.54122,1.426448 -2.22561,-0.766327 c -2.53373,-0.541973 -3.50889,-2.155282 -2.92551,-4.839907 l 1.67481,-7.797107 c 0.58157,-2.676151 2.13922,-3.743241 4.67295,-3.201268 l 2.27053,0.496308 4.93894,4.088656 17.88245,3.856419 L 183.1322,9.8546222 179.02115,8.9680569 180.94847,0 l 22.53307,4.8659911 -1.92734,8.9680569 -3.93287,-0.848139 -9.94758,46.158469 18.09883,3.903073 6.42191,-1.645309 1.98553,0.428183 c 1.78188,0.384264 2.84263,1.230168 3.18224,2.53769 0.20947,0.675642 0.21725,1.463173 0.0232,2.362603 l -1.67981,7.789368 c -0.19913,0.902754 -0.53168,1.621326 -0.99768,2.155738 -0.84648,1.042862 -2.16324,1.373823 -3.95028,0.992883 l -1.98552,-0.428194 -5.73005,-3.786416 -16.29149,-3.513316 -2.52021,11.717248 11.90541,2.574103"
     fill-rule="evenodd"
     stroke="none"
     id="path389"
     style="display:none;fill:#c73636;fill-opacity:1;stroke-width:0.184136"
     sodipodi:nodetypes="ccccccccccccccccccccccccscscccccccc" /><path
     style="display:none;fill:#c73636;fill-opacity:1"
     d="M 87.55,84.55 C 79.75,100.61667 67.2,113.1 49.9,122 33.633333,113.1 21.216667,100.76667 12.65,85 4.2166667,69.066667 0.15,51.033333 0.45,30.9 17.483333,29.666667 33.966667,23.566667 49.9,12.6 c 14.166667,10.633333 30.65,16.833333 49.45,18.6 0,19.533333 -3.933333,37.316667 -11.8,53.35 M 11.6,39.1 c -0.233333,15.566667 2.9,29.533333 9.4,41.9 6.666667,12.2 16.3,21.75 28.9,28.65 13.4,-6.9 23.116667,-16.566667 29.15,-29 6.1,-12.433333 9.15,-26.2 9.15,-41.3 C 73.633333,37.95 60.866667,33.15 49.9,24.95 37.566667,33.45 24.8,38.166667 11.6,39.1"
     id="path2-5"
     sodipodi:nodetypes="cccccccccccccc"
     transform="matrix(1.8379962,0,0,1.8379962,-317.61197,29.393205)" /><path
     d="m 62.401312,83.747201 0.543365,5.814351 c 10.80636,1.487598 36.490181,5.133901 42.910793,-1.667716 l -2.00086,-11.876148 -12.195136,2.271996 -2.188104,-11.780431 16.20043,-3.01821 6.4966,1.609937 2.24574,-0.703059 c 2.54732,-0.470154 3.56732,-2.054878 3.06002,-4.754159 l -1.45383,-7.839092 c -0.50571,-2.690752 -2.03223,-3.801049 -4.57953,-3.330887 l -2.28301,0.431946 -5.0509,3.946655 L 86.127705,56.201967 77.493564,9.7864209 81.626861,9.0163774 79.953696,0 57.298557,4.2273489 l 1.673166,9.0163761 3.954149,-0.736666 8.639334,46.407951 -18.196728,3.39011 -6.371197,-1.825282 -1.996274,0.371907 c -1.791526,0.333762 -2.875397,1.149187 -3.251653,2.446256 -0.228303,0.669314 -0.25837,1.45606 -0.08989,2.360352 l 1.459046,7.831506 c 0.173526,0.907757 0.485611,1.635237 0.936213,2.182424 0.816508,1.06603 2.123049,1.433897 3.919627,1.1036 l 1.996273,-0.37191 5.832962,-3.622303 16.379622,-3.051572 2.188104,11.780429 -11.969996,2.236674"
     fill-rule="evenodd"
     stroke="none"
     id="path10"
     style="display:none;fill:#c73636;fill-opacity:1;stroke-width:0.184085"
     sodipodi:nodetypes="ccccccccccccccccccccccccscscccccccc" /><path
     id="path1-52"
     d="m 49.418532,13.181254 c -6.780457,0.04491 -14.773316,0.179616 -17.781863,0.224519 l -5.433346,0.179614 -0.314327,4.086238 c -0.134703,2.245183 -0.269423,10.238042 -0.269423,17.736958 v 13.605819 l 67.220825,67.400448 67.220842,67.35554 5.20883,-5.20884 5.16393,-5.16391 4.93939,4.9394 4.93942,4.93941 -7.13968,7.13968 c -6.69067,6.73555 -7.36421,7.22951 -10.68709,8.66641 -2.46971,1.03279 -4.08624,2.06559 -5.34354,3.36779 -1.43692,1.57163 -1.75124,2.24517 -1.75124,3.77191 0,1.79614 0.22452,2.15538 4.8047,6.73555 3.54739,3.6372 5.16392,4.9394 6.24161,5.16393 0.80827,0.13476 1.88596,0.13476 2.4248,-0.045 0.53885,-0.17963 1.66142,-0.89808 2.46969,-1.61653 1.1226,-1.03279 1.79616,-2.2452 2.69422,-5.02923 l 1.21241,-3.6821 7.94795,-7.99285 7.90305,-7.94796 19.84743,19.84744 19.89235,19.89234 -1.66144,1.66144 -1.66144,1.70633 3.99643,4.04133 4.04133,4.04133 9.96862,-9.96862 10.01353,-10.01353 -4.04134,-4.04133 -4.04133,-3.99643 -1.79614,1.75126 -1.79616,1.79614 -19.89233,-19.89233 -19.84743,-19.84743 7.81324,-7.81324 7.81325,-7.81325 3.27797,-0.94298 c 1.93084,-0.53885 3.90661,-1.43693 4.66997,-2.11047 0.71847,-0.67355 1.61653,-1.88596 2.02068,-2.73913 0.58375,-1.21239 0.62864,-1.79614 0.22451,-3.00855 -0.26942,-0.89807 -2.24519,-3.23307 -5.07411,-6.01709 -2.64932,-2.60442 -5.11902,-4.62508 -5.88238,-4.8496 -0.71847,-0.17962 -1.75126,-0.045 -2.4248,0.22452 -0.62866,0.31433 -1.88596,1.1226 -2.73913,1.84105 -1.25732,0.94297 -1.88596,2.06556 -2.87385,4.80469 -1.21239,3.50249 -1.34711,3.63721 -8.30718,10.59728 l -7.04988,7.04988 -4.9394,-4.93941 -4.93941,-4.93941 5.29863,-5.29863 5.25374,-5.25368 L 128.98789,80.312279 61.767049,13.091448 Z m 162.506478,0.08981 -17.69206,-0.269422 -28.42403,28.424039 -28.37915,28.468941 18.0962,18.09619 18.14109,18.141098 28.37913,-28.693467 28.42405,-28.648556 -0.17961,-17.37773 c -0.0898,-9.519584 -0.26943,-17.467538 -0.40415,-17.647152 -0.1796,-0.134702 -8.26227,-0.35923 -17.96147,-0.493941 z M 100.025,143.40197 81.973715,125.35068 70.837596,136.48681 59.746382,147.578 l 5.253733,5.29865 5.298637,5.25373 -4.939407,4.93941 -4.939405,4.93941 -7.049882,-7.04988 c -6.960073,-6.96007 -7.094784,-7.09479 -8.307182,-10.59728 -0.987884,-2.73913 -1.616535,-3.86172 -2.873839,-4.80469 -0.853168,-0.71846 -2.110473,-1.52672 -2.739123,-1.84105 -0.673557,-0.26942 -1.751244,-0.40414 -2.424802,-0.22452 -0.763361,0.22452 -3.233066,2.24518 -5.882384,4.8496 -2.828931,2.78402 -4.804694,5.11902 -5.074117,6.01708 -0.404133,1.21241 -0.359228,1.79616 0.22452,3.00856 0.404133,0.85317 1.257304,2.06556 1.93086,2.64931 0.673555,0.67356 2.694221,1.57163 4.62508,2.15538 l 3.41268,0.98789 7.813241,7.81324 7.813244,7.81325 -19.847434,19.84742 -19.892337,19.89234 -1.796147,-1.79614 -1.7961457,-1.75126 -4.0413325,3.99643 -4.04133426,4.04133 10.01352346,10.01353 9.968622,9.96862 4.041332,-4.04133 3.99643,-4.04134 -1.661438,-1.70633 -1.661438,-1.66144 19.892339,-19.89233 19.847433,-19.84744 7.90305,7.94796 7.947948,7.99285 1.212408,3.6821 c 0.898062,2.78403 1.571626,3.99644 2.694221,5.02922 0.853173,0.71846 1.930862,1.43691 2.469706,1.61654 0.538845,0.17961 1.616533,0.17961 2.4248,0.045 1.077689,-0.22453 2.694222,-1.52674 6.241599,-5.16393 4.580179,-4.58017 4.804709,-4.93941 4.804709,-6.73555 0,-1.52674 -0.31433,-2.20029 -1.751252,-3.77191 -1.257298,-1.30221 -2.873831,-2.33501 -5.343537,-3.36779 -3.322879,-1.4369 -3.996426,-1.93086 -10.687073,-8.66641 l -7.139693,-7.13968 4.939409,-4.93941 4.939395,-4.9394 5.163928,5.16391 5.163927,5.16393 11.136126,-11.13611 11.09121,-11.09121 z"
     style="display:none;fill:#c73636;fill-opacity:1;stroke-width:0.0449036" /><rect
     style="fill:#000000;fill-opacity:1;stroke-width:0.914369;paint-order:markers fill stroke"
     id="rect7"
     width="175.86334"
     height="175.86334"
     x="-87.931671"
     y="-268.95099"
     transform="rotate(135)" /><path
     id="path1-7"
     style="clip-rule:evenodd;display:inline;fill:#c83737;fill-opacity:1;fill-rule:evenodd;stroke:none;stroke-width:2;stroke-dasharray:none;stroke-opacity:1;image-rendering:optimizeQuality;shape-rendering:geometricPrecision;text-rendering:geometricPrecision"
     inkscape:label="Selected"
     d="M 130.09697 1.028361 C 129.69858 1.0565849 129.33265 1.1241406 129.00763 1.2324829 C 126.40746 2.6770415 116.87369 10.477978 107.62857 17.9896 L 91.450749 31.857487 L 103.87325 44.279985 C 110.80706 51.213785 117.74089 55.836103 119.47436 54.102641 C 121.20783 52.369181 117.74088 46.590686 111.96267 40.812496 L 101.85115 30.700968 L 114.8519 19.434473 L 128.14153 7.8770386 L 142.87655 23.768058 C 150.67708 32.146388 158.18759 38.502234 159.63212 37.057686 C 161.07669 35.613137 158.76604 29.834148 155.01018 23.767025 C 150.96547 17.988838 144.60922 9.8996327 140.56455 5.8549398 C 137.2782 2.5685769 132.88566 0.83079342 130.09697 1.028361 z M 127.76068 25.302332 C 125.55484 25.424967 123.50093 27.289266 120.34097 30.702002 C 116.00737 35.613488 115.42914 37.346837 119.18497 35.324459 C 123.80748 32.435331 128.72042 34.456917 135.65425 41.390755 C 141.1435 46.880012 146.92105 49.768735 148.36562 48.324182 C 150.09906 46.590734 146.05339 40.235561 139.69742 33.879586 C 133.68447 27.866629 130.59676 25.144658 127.76068 25.302332 z M 84.80516 39.656494 L 70.360563 52.369413 C 61.404365 60.169969 56.78128 66.525921 58.514775 68.259399 C 60.248211 69.992848 66.892729 66.237634 73.248759 59.881616 L 84.80516 48.325216 L 99.251306 62.770846 L 113.6959 77.215959 L 126.69666 64.215202 C 133.91939 56.992461 139.12086 50.635811 138.25409 49.769055 C 137.38736 48.902297 132.18591 52.947502 126.98553 58.147872 L 116.874 68.259399 L 100.98402 54.103674 L 84.80516 39.656494 z M 171.38954 40.774255 C 171.20791 40.764025 171.04462 40.776381 170.90016 40.812496 C 169.16669 41.390338 159.34349 48.902725 149.52059 58.147872 C 137.67529 68.837517 132.47546 75.770663 133.91999 78.948669 C 135.65346 81.837777 141.72098 78.08213 153.85521 65.947913 L 171.47791 48.325216 L 183.03482 59.881616 C 189.39088 66.23765 196.03488 69.992819 197.47942 68.548271 C 199.21288 66.814812 194.5906 59.880994 187.65676 52.947156 C 180.88551 46.175903 174.11395 40.927716 171.38954 40.774255 z M 169.02276 64.50459 C 167.72253 64.50459 166.56665 64.793384 165.98883 65.371204 C 164.54428 66.815762 167.43357 70.281572 172.34504 73.459599 C 176.9676 76.926515 181.87917 78.372153 183.32369 76.927604 C 184.58767 75.663615 184.30332 73.293245 182.85757 71.752726 C 182.65088 71.532736 182.42147 71.329259 182.16873 71.148629 C 180.14639 69.126281 175.81239 66.526822 172.9233 65.371204 C 171.76766 64.793384 170.32299 64.50459 169.02276 64.50459 z M 89.269486 65.153646 C 86.920205 65.071156 82.782535 67.682707 79.026701 71.438534 C 74.404136 76.061089 71.516327 81.260442 73.249792 82.993901 C 74.983258 84.727369 80.18259 81.839558 84.80516 77.216992 C 89.427715 72.594437 92.317086 67.393553 90.583618 65.660075 C 90.258595 65.335052 89.811628 65.172682 89.269486 65.153646 z M 55.571285 70.832369 C 53.456777 70.683581 48.490758 74.200986 43.524475 79.167261 C 37.6123 85.079436 33.118236 90.99183 33.591231 92.883736 C 34.064226 94.302681 40.213381 102.34335 47.781063 110.38396 C 56.531159 120.08002 62.206548 124.33667 64.807931 123.15424 C 67.172831 121.73529 64.098761 116.76894 54.166203 106.83637 L 39.740727 92.410897 L 49.200614 82.951009 C 54.403395 77.748211 57.477201 72.309362 56.294755 71.126925 C 56.117388 70.949558 55.873358 70.853624 55.571285 70.832369 z M 200.42859 70.832369 C 200.12652 70.853624 199.88301 70.949558 199.70564 71.126925 C 198.5232 72.309362 201.59649 77.748211 206.79926 82.951009 L 216.25915 92.410897 L 201.83368 106.83637 C 191.90112 116.76894 188.82705 121.73529 191.19195 123.15424 C 193.79332 124.33667 199.46872 120.08002 208.21882 110.38396 C 215.7865 102.34335 221.93565 94.302681 222.40865 92.883736 C 222.88164 90.99183 218.38758 85.079436 212.4754 79.167261 C 207.50912 74.200986 202.5431 70.683581 200.42859 70.832369 z M 61.691325 82.068376 C 60.759424 81.988014 59.705978 82.356577 58.917851 83.09622 C 58.737777 83.265408 58.570646 83.453128 58.422791 83.66001 C 56.767382 85.31541 54.639821 88.863131 53.69388 91.228023 C 52.747923 93.119929 52.747923 95.958206 53.69388 96.904163 C 54.876335 98.086616 57.713266 95.721181 60.314665 91.700863 C 63.152536 87.917025 64.336215 83.896761 63.153768 82.714331 C 62.765775 82.326341 62.250465 82.116593 61.691325 82.068376 z M 194.30907 82.068376 C 193.74993 82.116593 193.2341 82.326341 192.84611 82.714331 C 191.66366 83.896761 192.84734 87.917025 195.68521 91.700863 C 198.28661 95.721181 201.12355 98.086616 202.306 96.904163 C 203.25196 95.958206 203.25196 93.119929 202.306 91.228023 C 201.36006 88.863131 199.2325 85.31541 197.57709 83.66001 C 197.42924 83.453128 197.26261 83.265408 197.08254 83.09622 C 196.29442 82.356577 195.24097 81.988014 194.30907 82.068376 z M 29.01735 101.76691 C 26.955249 101.9442 23.362796 103.5849 19.638078 105.89069 C 14.908301 109.20152 8.2872571 114.4045 4.9764404 117.7153 C 1.9020632 120.78966 0.48321611 125.0468 1.1926921 127.17518 C 2.3751467 129.30357 8.7604712 137.10773 14.909167 144.67541 L 26.260929 157.91801 L 36.429301 147.74912 C 42.105011 142.0734 45.888581 136.39779 44.469637 134.97884 C 43.050701 133.5599 38.32101 136.39751 33.591231 141.1273 L 25.314734 149.40432 L 16.092041 138.76259 L 6.6316366 127.88418 L 19.639111 115.8229 C 26.497259 109.43772 31.699964 103.28938 30.517517 102.10695 C 30.221906 101.81133 29.704717 101.70782 29.01735 101.76691 z M 226.98253 101.76691 C 226.29516 101.70782 225.77797 101.81133 225.48236 102.10695 C 224.29991 103.28938 229.50262 109.43772 236.36077 115.8229 L 249.36824 127.88418 L 239.90784 138.76259 L 230.68566 149.40432 L 222.40865 141.1273 C 217.67886 136.39751 212.94918 133.5599 211.53024 134.97884 C 210.1113 136.39779 213.89486 142.0734 219.57058 147.74912 L 229.73895 157.91801 L 241.09071 144.67541 C 247.23941 137.10773 253.62473 129.30357 254.80719 127.17518 C 255.51666 125.0468 254.09781 120.78966 251.02344 117.7153 C 247.71262 114.4045 241.09158 109.20152 236.3618 105.89069 C 232.63709 103.5849 229.04463 101.9442 226.98253 101.76691 z M 38.567672 111.01131 C 36.370133 111.21874 32.143344 114.19811 27.916125 118.42533 C 19.16598 127.17545 18.930057 128.35707 25.315251 134.26932 C 29.335586 137.81663 30.754432 138.28989 29.098999 135.21552 C 26.734073 131.43173 28.388836 127.41043 34.064587 121.73469 C 38.557859 117.24142 40.922139 112.5121 39.739693 111.32964 C 39.473644 111.06359 39.074796 110.96344 38.567672 111.01131 z M 217.43221 111.01131 C 216.92508 110.96344 216.52623 111.06359 216.26018 111.32964 C 215.07774 112.5121 217.44203 117.24142 221.93529 121.73469 C 227.61104 127.41043 229.26581 131.43173 226.90088 135.21552 C 225.24544 138.28989 226.66429 137.81663 230.68463 134.26932 C 237.06982 128.35707 236.83389 127.17545 228.08375 118.42533 C 223.85653 114.19811 219.62974 111.21874 217.43221 111.01131 z M 41.107568 119.53069 C 41.029044 119.53703 40.967427 119.56179 40.923083 119.60614 C 40.213591 120.31561 43.524256 124.57356 47.781063 128.83038 L 56.058077 137.10739 L 44.470671 150.11383 L 32.645036 163.35747 L 43.051119 175.18156 C 49.43633 182.51273 54.639125 186.29657 56.058077 184.8776 C 57.477005 183.45869 54.403387 178.02013 49.200614 172.81736 L 39.740727 163.35747 L 51.565328 151.53287 L 63.389412 139.70878 L 52.747685 129.06706 C 47.204966 123.52435 42.28544 119.43552 41.107568 119.53069 z M 214.89231 119.53069 C 213.71444 119.43552 208.79491 123.52435 203.25219 129.06706 L 192.61047 139.70878 L 204.43455 151.53287 L 216.25915 163.35747 L 206.79926 172.81736 C 201.59649 178.02013 198.52287 183.45869 199.9418 184.8776 C 201.36076 186.29657 206.56355 182.51273 212.94876 175.18156 L 223.35484 163.35747 L 211.52921 150.11383 L 199.9418 137.10739 L 208.21882 128.83038 C 212.47562 124.57356 215.7868 120.31561 215.07731 119.60614 C 215.03297 119.56179 214.97083 119.53703 214.89231 119.53069 z M 55.005945 158.21308 C 54.562168 158.22867 54.196612 158.36147 53.930558 158.62753 C 52.511622 160.04646 54.876673 164.30358 58.660502 168.08741 C 62.44433 171.87125 66.700421 174.23526 68.119356 172.81632 C 69.538301 171.39738 67.174283 167.14131 63.390446 163.35747 C 60.316086 160.2831 56.928977 158.14555 55.005945 158.21308 z M 200.99393 158.21308 C 199.0709 158.14555 195.68431 160.2831 192.60995 163.35747 C 188.82611 167.14131 186.46158 171.39738 187.88052 172.81632 C 189.29946 174.23526 193.55555 171.87125 197.33938 168.08741 C 201.1232 164.30358 203.48826 160.04646 202.06932 158.62753 C 201.80327 158.36147 201.43771 158.22867 200.99393 158.21308 z M 74.563407 172.49903 C 74.021324 172.51813 73.574817 172.68095 73.249792 173.00598 C 71.516327 174.73944 74.404136 179.93879 79.026701 184.56134 C 83.649266 189.1839 88.85016 192.07325 90.583618 190.3398 C 92.317086 188.60632 89.427715 183.40596 84.80516 178.7834 C 81.049322 175.02757 76.912435 172.41627 74.563407 172.49903 z M 135.36331 176.13809 C 134.72214 176.20116 134.24502 176.5095 133.91999 177.05121 C 132.47546 180.22922 137.67529 187.16237 149.52059 197.85201 C 159.34349 207.09716 169.16669 214.60953 170.90016 215.18738 C 173.21143 215.76521 180.43409 210.27539 187.65676 203.05272 C 194.5906 196.11889 199.21288 189.18507 197.47942 187.45161 C 196.03488 186.00706 189.39088 189.76223 183.03482 196.11826 L 171.47791 207.67466 L 153.85521 190.05197 C 143.99615 180.19291 138.14175 175.86477 135.36331 176.13809 z M 181.64886 178.51727 C 179.44141 178.47702 175.81196 179.94009 172.34504 182.54028 C 167.43357 185.71831 164.54428 189.18412 165.98883 190.62867 C 167.14447 191.78431 170.61203 191.78431 172.9233 190.62867 C 175.81239 189.47306 180.14639 186.87411 182.16873 184.85177 C 182.42147 184.67114 182.65088 184.46714 182.85757 184.24715 C 184.30332 182.70663 184.58767 180.33626 183.32369 179.07227 C 182.96256 178.71114 182.38468 178.53069 181.64886 178.51727 z M 113.6959 178.78444 L 99.251306 193.22903 L 84.80516 207.67466 L 73.248759 196.11826 C 66.892729 189.76225 60.248211 186.00703 58.514775 187.74048 C 56.78128 189.47396 61.404365 195.82991 70.360563 203.63046 L 84.80516 216.34338 L 100.98402 201.89672 L 116.874 187.74048 L 126.98553 197.85252 C 132.18591 203.05289 137.38736 207.09758 138.25409 206.23082 C 139.12086 205.36406 133.91939 199.00793 126.69666 191.78519 L 113.6959 178.78444 z M 118.59069 201.53757 C 116.00748 201.3558 109.94033 205.65282 103.87325 211.71989 L 91.450749 224.14291 L 107.62857 238.01028 C 116.87369 245.5219 126.40746 253.32283 129.00763 254.7674 C 131.6078 255.63412 136.80872 253.90129 140.56455 250.14545 C 144.60922 246.10076 150.96547 238.01156 155.01018 232.23337 C 158.76604 226.16626 161.07669 220.38674 159.63212 218.94219 C 158.18759 217.49764 150.67708 223.854 142.87655 232.23234 L 128.14153 248.12284 L 114.8519 236.56541 L 101.85115 225.29891 L 111.96267 215.18738 C 117.74088 209.40919 121.20783 203.63121 119.47436 201.89775 C 119.25768 201.68107 118.95972 201.56354 118.59069 201.53757 z M 147.12642 207.30879 C 144.76443 207.40588 140.11426 210.1491 135.65425 214.60912 C 128.72042 221.54296 123.80748 223.56455 119.18497 220.67542 C 115.42914 218.65304 116.00737 220.38639 120.34097 225.29788 C 127.56374 233.09842 129.00773 232.81051 139.69742 222.12081 C 146.05339 215.76484 150.09906 209.40914 148.36562 207.6757 C 148.09476 207.40484 147.6715 207.28639 147.12642 207.30879 z " /></svg>
