<?xml version="1.0" encoding="UTF-8" standalone="no"?>
<!-- Created with Inkscape (http://www.inkscape.org/) -->

<svg
   width="256mm"
   height="256mm"
   viewBox="0 0 256 256"
   version="1.1"
   id="svg4293"
   inkscape:version="1.3 (0e150ed6c4, 2023-07-21)"
   sodipodi:docname="wheel_indicator_active.svg"
   xml:space="preserve"
   xmlns:inkscape="http://www.inkscape.org/namespaces/inkscape"
   xmlns:sodipodi="http://sodipodi.sourceforge.net/DTD/sodipodi-0.dtd"
   xmlns="http://www.w3.org/2000/svg"
   xmlns:svg="http://www.w3.org/2000/svg"><sodipodi:namedview
     id="namedview4295"
     pagecolor="#ffffff"
     bordercolor="#000000"
     borderopacity="0.25"
     inkscape:showpageshadow="2"
     inkscape:pageopacity="0.0"
     inkscape:pagecheckerboard="0"
     inkscape:deskcolor="#5d5d5d"
     inkscape:document-units="mm"
     showgrid="false"
     inkscape:zoom="0.35355339"
     inkscape:cx="-52.325902"
     inkscape:cy="476.58997"
     inkscape:window-width="1920"
     inkscape:window-height="1057"
     inkscape:window-x="-8"
     inkscape:window-y="-8"
     inkscape:window-maximized="1"
     inkscape:current-layer="svg4293" /><defs
     id="defs4290" /><g
     id="g2"
     style="display:none"><path
       id="rect1"
       style="display:none;fill:#000000;fill-opacity:1;stroke:#e78207;stroke-width:12;stroke-linejoin:round;stroke-dasharray:none;stroke-opacity:1"
       d="M 14.085445,6.0001553 V 161.25166 h -0.137459 l 114.106734,57.09936 114.10724,-57.09936 h -0.11213 V 64.184196 h -0.0253 V 6.0001553 Z"
       sodipodi:nodetypes="cccccccccc" /><path
       id="path4"
       style="display:none;fill:none;fill-opacity:1;stroke:#e78207;stroke-width:5.43942;stroke-linejoin:round;stroke-dasharray:none;stroke-opacity:1"
       d="m 37.132969,145.21574 90.910811,51.4583 90.91083,-51.4583 h -0.089 V 57.737883 h -0.0201 V 5.3016293 H 37.242274 V 145.21574 Z"
       sodipodi:nodetypes="cccccccccc" /><circle
       style="display:none;fill:#e78207;fill-opacity:1;stroke:none;stroke-width:2.42303;stroke-linejoin:bevel"
       id="path1"
       cx="128"
       cy="82.095551"
       r="34.383232" /></g><g
     id="g1"
     style="display:none"><circle
       style="display:inline;fill:#ffffff;fill-opacity:1;stroke:#599ad6;stroke-width:9.40372;stroke-dasharray:none;stroke-opacity:1;paint-order:markers fill stroke"
       id="path3"
       cx="128"
       cy="128"
       r="85.477791"
       inkscape:label="Eyeball" /><path
       id="path1-5"
       d="M 111.40439,52.357722 C 86.484648,56.414438 59.562891,70.007031 35.011932,90.870078 20.629074,103.14555 5.9301127,118.10793 2.4002517,124.16664 c -1.73858624,2.95033 -1.89663971,3.47718 -1.89663971,7.48121 0,5.68991 0.89563641,7.27045 7.84998461,14.43553 10.0100464,10.27345 23.8133734,21.60063 36.6683824,30.13552 16.700973,11.1164 30.188196,17.70197 47.205274,22.91773 11.906687,3.68791 18.597617,4.74159 32.137517,5.05771 15.91071,0.42148 24.0768,-0.63222 38.35429,-4.84698 10.01004,-2.95032 17.38587,-5.95334 27.71202,-11.32716 18.01809,-9.27245 32.29557,-19.38787 50.1556,-35.45665 12.69695,-11.43251 14.90971,-14.5409 14.90971,-20.9684 0,-1.89664 -0.15811,-3.63523 -0.42147,-3.84596 -0.21076,-0.21072 -0.36879,-0.57953 -0.36879,-0.73759 -0.21075,-3.52986 -20.75769,-25.02512 -35.29861,-36.931798 C 206.02568,79.121443 195.59416,72.219777 182.68648,65.73958 168.98851,58.890606 158.18819,55.044639 146.43956,52.831891 139.90669,51.620152 117.67384,51.304046 111.40439,52.357722 Z m 69.54348,36.87913 c 10.5896,6.111389 25.34123,17.438558 37.51133,28.818408 6.42751,6.00603 12.85503,12.855 12.74965,13.53989 -0.0527,0.52685 -11.01105,10.16812 -16.64829,14.69896 -11.80132,9.43052 -20.59962,15.2785 -32.03215,21.28452 -40.9893,23.66518 -64.67161,23.05248 -104.789381,2.84497 -13.856014,-6.26944 -32.71705,-19.44057 -48.89118,-34.24491 l -5.110392,-4.63622 4.320126,-4.7416 C 39.490111,114.31465 59.773627,97.929784 73.682324,89.816379 117.22218,64.678626 138.77204,64.886627 180.94787,89.236852 Z"
       style="display:none;fill:#599ad6;fill-opacity:1;stroke-width:0.0526844"
       sodipodi:nodetypes="cccscccccccsccccccccccccccccc"
       inkscape:label="Eyelid" /><circle
       style="display:none;fill:none;fill-opacity:1;stroke:#599ad6;stroke-width:9.27524;stroke-dasharray:none;stroke-opacity:1;paint-order:markers fill stroke"
       id="path2"
       cx="128"
       cy="91.878334"
       r="35.316208"
       inkscape:label="Retina" /><rect
       style="fill:#599ad6;fill-opacity:1;stroke:none;stroke-width:3.7664;stroke-dasharray:none;stroke-opacity:1;paint-order:markers fill stroke"
       id="rect10"
       width="170.13773"
       height="12.950115"
       x="42.931137"
       y="121.52494" /><path
       d="m 127.99871,7.1874821 7.39966,12.8174309 c 13.80954,0.959137 27.3363,4.555279 39.79788,10.578673 l 11.76639,-6.791638 -0.002,13.413623 c 11.3422,7.354885 21.44487,16.932025 29.58683,28.540524 h 17.14412 l -8.47191,14.672048 c 6.60077,13.453705 10.15685,27.703947 10.88974,41.914107 l 11.61558,6.70683 -11.76405,6.79401 c -1.01331,13.80246 -4.66129,27.31745 -10.73656,39.75547 l 8.4672,14.66497 h -17.1182 c -7.74842,11.04058 -17.68374,20.7803 -29.61039,28.51224 v 11.35634 l -9.83165,-5.67699 c -13.36416,6.82466 -27.55545,10.60461 -41.7397,11.56375 l -7.39259,12.80327 -7.39966,-12.81742 c -13.80954,-0.95914 -27.338664,-4.55527 -39.800246,-10.58104 l -11.761675,6.7893 V 218.79641 C 57.692874,211.44153 47.59258,201.86439 39.448248,190.25353 H 22.304144 l 8.471897,-14.6744 C 24.175264,162.12542 20.621547,147.87285 19.883938,133.66031 l -11.608504,-6.70447 11.759324,-6.7893 C 21.048087,106.36172 24.69607,92.849095 30.771328,80.41109 L 22.304144,65.746095 H 39.422325 C 47.17311,54.703178 57.108442,44.961083 69.039795,37.226791 V 25.8728 l 9.833994,5.676996 C 92.235583,24.727508 106.42219,20.947546 120.60644,19.98843 Z"
       style="fill:none;fill-opacity:1;fill-rule:evenodd;stroke:#599ad6;stroke-width:7.06973px;stroke-opacity:1"
       id="path2-6" /><circle
       style="fill:#ffffff;fill-opacity:1;stroke-width:6.05613;paint-order:markers fill stroke"
       id="path5"
       cx="128"
       cy="128"
       r="16.754984" /><circle
       style="fill:#599ad6;fill-opacity:1;stroke-width:1.74999;paint-order:markers fill stroke"
       id="path6"
       cx="128"
       cy="128"
       r="5.8685627" /></g><path
     d="m 196.13592,84.232032 -0.70733,5.798299 c -10.847,1.182536 -36.63052,4.103767 -42.85844,-2.878146 l 2.33568,-11.818228 12.12953,2.615777 2.5202,-11.717248 -16.1133,-3.47489 -6.54122,1.426448 -2.22561,-0.766327 c -2.53373,-0.541973 -3.50889,-2.155282 -2.92551,-4.839907 l 1.67481,-7.797107 c 0.58157,-2.676151 2.13922,-3.743241 4.67295,-3.201268 l 2.27053,0.496308 4.93894,4.088656 17.88245,3.856419 L 183.1322,9.8546222 179.02115,8.9680569 180.94847,0 l 22.53307,4.8659911 -1.92734,8.9680569 -3.93287,-0.848139 -9.94758,46.158469 18.09883,3.903073 6.42191,-1.645309 1.98553,0.428183 c 1.78188,0.384264 2.84263,1.230168 3.18224,2.53769 0.20947,0.675642 0.21725,1.463173 0.0232,2.362603 l -1.67981,7.789368 c -0.19913,0.902754 -0.53168,1.621326 -0.99768,2.155738 -0.84648,1.042862 -2.16324,1.373823 -3.95028,0.992883 l -1.98552,-0.428194 -5.73005,-3.786416 -16.29149,-3.513316 -2.52021,11.717248 11.90541,2.574103"
     fill-rule="evenodd"
     stroke="none"
     id="path389"
     style="display:none;fill:#c73636;fill-opacity:1;stroke-width:0.184136"
     sodipodi:nodetypes="ccccccccccccccccccccccccscscccccccc" /><path
     style="display:none;fill:#c73636;fill-opacity:1"
     d="M 87.55,84.55 C 79.75,100.61667 67.2,113.1 49.9,122 33.633333,113.1 21.216667,100.76667 12.65,85 4.2166667,69.066667 0.15,51.033333 0.45,30.9 17.483333,29.666667 33.966667,23.566667 49.9,12.6 c 14.166667,10.633333 30.65,16.833333 49.45,18.6 0,19.533333 -3.933333,37.316667 -11.8,53.35 M 11.6,39.1 c -0.233333,15.566667 2.9,29.533333 9.4,41.9 6.666667,12.2 16.3,21.75 28.9,28.65 13.4,-6.9 23.116667,-16.566667 29.15,-29 6.1,-12.433333 9.15,-26.2 9.15,-41.3 C 73.633333,37.95 60.866667,33.15 49.9,24.95 37.566667,33.45 24.8,38.166667 11.6,39.1"
     id="path2-5"
     sodipodi:nodetypes="cccccccccccccc"
     transform="matrix(1.8379962,0,0,1.8379962,-317.61197,29.393205)" /><path
     d="m 62.401312,83.747201 0.543365,5.814351 c 10.80636,1.487598 36.490181,5.133901 42.910793,-1.667716 l -2.00086,-11.876148 -12.195136,2.271996 -2.188104,-11.780431 16.20043,-3.01821 6.4966,1.609937 2.24574,-0.703059 c 2.54732,-0.470154 3.56732,-2.054878 3.06002,-4.754159 l -1.45383,-7.839092 c -0.50571,-2.690752 -2.03223,-3.801049 -4.57953,-3.330887 l -2.28301,0.431946 -5.0509,3.946655 L 86.127705,56.201967 77.493564,9.7864209 81.626861,9.0163774 79.953696,0 57.298557,4.2273489 l 1.673166,9.0163761 3.954149,-0.736666 8.639334,46.407951 -18.196728,3.39011 -6.371197,-1.825282 -1.996274,0.371907 c -1.791526,0.333762 -2.875397,1.149187 -3.251653,2.446256 -0.228303,0.669314 -0.25837,1.45606 -0.08989,2.360352 l 1.459046,7.831506 c 0.173526,0.907757 0.485611,1.635237 0.936213,2.182424 0.816508,1.06603 2.123049,1.433897 3.919627,1.1036 l 1.996273,-0.37191 5.832962,-3.622303 16.379622,-3.051572 2.188104,11.780429 -11.969996,2.236674"
     fill-rule="evenodd"
     stroke="none"
     id="path10"
     style="display:none;fill:#c73636;fill-opacity:1;stroke-width:0.184085"
     sodipodi:nodetypes="ccccccccccccccccccccccccscscccccccc" /><path
     id="path1-52"
     d="m 50.786758,14.980039 c -6.662398,0.04413 -14.516089,0.176489 -17.472252,0.22061 l -5.338743,0.176486 -0.308854,4.01509 c -0.132358,2.206091 -0.264732,10.059782 -0.264732,17.42813 v 13.36892 l 66.050403,66.226905 66.05042,66.18277 5.11814,-5.11815 5.07402,-5.07399 4.85338,4.85339 4.85342,4.85341 -7.01537,7.01537 c -6.57417,6.61827 -7.23598,7.10363 -10.50101,8.51551 -2.42671,1.01481 -4.01509,2.02963 -5.2505,3.30915 -1.4119,1.54427 -1.72075,2.20608 -1.72075,3.70624 0,1.76486 0.22062,2.11785 4.72105,6.61827 3.48562,3.57387 5.074,4.8534 6.13293,5.07402 0.7942,0.13241 1.85312,0.13241 2.38258,-0.0442 0.52947,-0.1765 1.63249,-0.88244 2.42669,-1.58838 1.10305,-1.01481 1.76489,-2.20611 2.64731,-4.94167 l 1.1913,-3.61798 7.80956,-7.85369 7.76545,-7.80957 19.50185,19.50187 19.54599,19.54598 -1.63251,1.63251 -1.63251,1.67662 3.92685,3.97096 3.97096,3.97097 9.79505,-9.79505 9.83918,-9.83918 -3.97097,-3.97097 -3.97097,-3.92684 -1.76486,1.72077 -1.76489,1.76486 -19.54597,-19.54597 -19.50186,-19.50185 7.6772,-7.6772 7.67721,-7.67721 3.2209,-0.92656 c 1.89722,-0.52947 3.83859,-1.41191 4.58865,-2.07373 0.70596,-0.66182 1.58839,-1.85312 1.9855,-2.69143 0.57359,-1.19128 0.61769,-1.76487 0.2206,-2.95617 -0.26473,-0.88243 -2.2061,-3.17678 -4.98576,-5.91232 -2.60319,-2.55908 -5.02989,-4.54455 -5.77996,-4.76516 -0.70596,-0.1765 -1.72077,-0.0442 -2.38258,0.22061 -0.61771,0.30885 -1.85312,1.10305 -2.69144,1.80899 -1.23542,0.92655 -1.85312,2.0296 -2.82381,4.72103 -1.19128,3.44151 -1.32365,3.57388 -8.16254,10.41277 l -6.92713,6.92713 -4.85339,-4.85341 -4.85341,-4.85341 5.20637,-5.20637 5.16227,-5.1622 L 128.97069,80.942206 62.920268,14.891797 Z m 159.676982,0.08825 -17.38401,-0.264731 -27.92912,27.929131 -27.88503,27.973252 17.78112,17.781106 17.82522,17.825233 27.88501,-28.193868 27.92914,-28.149739 -0.17648,-17.075156 c -0.0882,-9.353833 -0.26474,-17.1634 -0.39712,-17.339887 -0.17647,-0.132357 -8.11841,-0.352975 -17.64873,-0.485341 z M 100.51209,142.93341 82.775103,125.19642 l -10.942221,10.94223 -10.898098,10.89808 5.162257,5.20639 5.206379,5.16225 -4.853404,4.85341 -4.853402,4.85341 -6.927132,-6.92713 c -6.838887,-6.83889 -6.971253,-6.97126 -8.162541,-10.41277 -0.970683,-2.69144 -1.588388,-3.79448 -2.823801,-4.72103 -0.838313,-0.70595 -2.073726,-1.50014 -2.69143,-1.80899 -0.66183,-0.26473 -1.720752,-0.39711 -2.382583,-0.22062 -0.750069,0.22062 -3.176773,2.20609 -5.779962,4.76516 -2.779675,2.73555 -4.721036,5.02989 -4.985768,5.91232 -0.397097,1.1913 -0.352974,1.76488 0.22061,2.95617 0.397097,0.83832 1.235413,2.0296 1.897241,2.60319 0.661827,0.66183 2.64731,1.54426 4.54455,2.11785 l 3.35326,0.97069 7.6772,7.6772 7.677203,7.6772 -19.501859,19.50185 -19.545979,19.54598 -1.764874,-1.76487 -1.764872,-1.72076 -3.9709661,3.92684 -3.9709682,3.97097 9.8391723,9.83918 9.795052,9.79505 3.970966,-3.97097 3.926846,-3.97097 -1.63251,-1.67662 -1.63251,-1.63251 19.545982,-19.54598 19.501858,-19.50186 7.765445,7.80957 7.809561,7.85368 1.191298,3.61799 c 0.882426,2.73556 1.544262,3.92686 2.647311,4.94166 0.838318,0.70595 1.897242,1.41189 2.426704,1.58839 0.529463,0.17648 1.588387,0.17648 2.38258,0.0442 1.058925,-0.22062 2.647312,-1.50016 6.132923,-5.07402 4.500429,-4.50042 4.721059,-4.85341 4.721059,-6.61828 0,-1.50015 -0.30886,-2.16197 -1.720767,-3.70623 -1.235407,-1.27954 -2.823793,-2.29435 -5.250498,-3.30915 -3.265022,-1.41188 -3.926842,-1.89724 -10.500994,-8.51552 l -7.015379,-7.01536 4.853406,-4.85341 4.853392,-4.8534 5.074016,5.074 5.074014,5.07402 10.94223,-10.94221 10.8981,-10.8981 z"
     style="fill:#ff6565;fill-opacity:1;stroke:none;stroke-width:1.96518;stroke-dasharray:none;stroke-opacity:1" /></svg>
