<?xml version="1.0" encoding="UTF-8" standalone="no"?>
<!-- Created with Inkscape (http://www.inkscape.org/) -->

<svg
   width="226.65697mm"
   height="226.65697mm"
   viewBox="0 0 226.65697 226.65697"
   version="1.1"
   id="svg1"
   xml:space="preserve"
   sodipodi:docname="slot_active_background.svg"
   inkscape:version="1.3 (0e150ed6c4, 2023-07-21)"
   xmlns:inkscape="http://www.inkscape.org/namespaces/inkscape"
   xmlns:sodipodi="http://sodipodi.sourceforge.net/DTD/sodipodi-0.dtd"
   xmlns="http://www.w3.org/2000/svg"
   xmlns:svg="http://www.w3.org/2000/svg"><sodipodi:namedview
     id="namedview1"
     pagecolor="#505050"
     bordercolor="#eeeeee"
     borderopacity="1"
     inkscape:showpageshadow="0"
     inkscape:pageopacity="0"
     inkscape:pagecheckerboard="0"
     inkscape:deskcolor="#505050"
     inkscape:document-units="mm"
     inkscape:zoom="0.39152988"
     inkscape:cx="289.88847"
     inkscape:cy="279.67214"
     inkscape:window-width="1920"
     inkscape:window-height="1057"
     inkscape:window-x="-8"
     inkscape:window-y="-8"
     inkscape:window-maximized="1"
     inkscape:current-layer="svg1" /><defs
     id="defs1" /><path
     id="rect20"
     style="opacity:1;fill:#000000;fill-opacity:0.69999999;stroke:none;stroke-width:1.38934;stroke-dasharray:none;stroke-opacity:1;paint-order:markers fill stroke"
     d="M 64.505396 64.505396 L -64.505396 64.505396 L -83.047637 83.047637 L -83.048003 229.26145 L -68.725853 243.5836 L 76.957755 243.5836 L 95.765282 224.7768 L 95.765282 95.765282 L 64.505396 64.505396 z "
     transform="rotate(-45)"
     inkscape:label="BG" /><path
     style="stroke-width:0.0264583;fill:#8a9966;fill-opacity:1"
     d="m 113.32848,208.18163 h -49.2125 l 6.482292,6.48229 6.482292,6.48229 h 36.247916 36.24791 l 6.4823,-6.48229 6.48229,-6.48229 z"
     id="path20"
     inkscape:label="Bottom" /><path
     id="path19"
     style="stroke-width:0.0264583;fill:#8a9966;stroke:none;stroke-opacity:1;fill-opacity:1"
     inkscape:label="Diamond "
     d="M 142.90911 7.5747314 L 141.0038 10.828796 L 139.12536 14.109733 L 139.12536 19.930566 L 139.12536 25.7514 L 159.18098 45.807023 L 179.26244 65.889001 L 184.28953 60.120878 L 189.34348 54.352755 L 183.04619 47.844108 C 179.58014 44.272232 169.12889 33.768159 159.81557 24.454838 L 142.90911 7.5747314 z M 83.721505 7.7070231 C 83.695045 7.6805231 73.217637 18.104958 60.411816 30.910775 C 37.287256 54.035342 37.181607 54.167962 37.60494 54.776501 C 37.843065 55.120461 40.091613 57.686716 42.605151 60.517753 C 45.118691 63.34879 47.314942 65.70379 47.447233 65.75671 C 47.605983 65.80961 56.681409 56.866699 67.635148 45.91296 L 87.531608 26.015983 L 87.531608 20.116085 L 87.531608 14.189315 L 85.65317 10.98796 C 84.621296 9.2152512 83.747964 7.7334831 83.721505 7.7070231 z M 47.314941 143.38505 C 47.235571 143.38505 45.277647 145.60745 42.949316 148.30619 C 40.620985 151.00494 38.371921 153.59796 37.948588 154.10067 L 37.208065 155.02671 L 61.628796 179.50067 C 82.372109 200.24398 86.155569 203.94827 86.790568 203.94827 L 87.531608 203.94827 L 87.531608 193.68223 L 87.531608 183.44307 L 67.475985 163.38744 C 56.469329 152.38078 47.394316 143.35859 47.314941 143.38505 z M 179.26244 143.67598 C 179.07724 143.64948 169.92305 152.64538 158.9164 163.65203 L 138.86077 183.70765 L 138.86077 193.8414 L 138.86077 203.94827 L 139.73411 203.94827 C 140.50141 203.94827 142.64444 201.8844 165.02817 179.50067 L 189.50213 155.02671 L 187.91463 153.25421 C 187.06796 152.24879 184.81869 149.70868 182.96661 147.59202 C 181.08807 145.47536 179.42119 143.7289 179.26244 143.67598 z " /><path
     id="path17"
     style="stroke-width:0.0264583;fill:#8a9966;fill-opacity:1"
     d="M 59.82994 5.5107747 L 38.266398 26.994735 C 26.386618 38.821593 16.226503 49.087759 15.670878 49.802128 C 14.665462 51.072127 14.6389 51.151504 14.6389 53.241711 C 14.6389 54.72337 14.797443 55.622864 15.088485 56.178483 C 15.326609 56.628273 17.126191 58.744945 19.084106 60.940983 C 21.015563 63.137021 26.148486 68.745994 30.46119 73.42911 C 34.773894 78.138695 38.319108 82.054625 38.319108 82.134005 C 38.319108 82.239835 35.69973 84.96516 32.498275 88.193066 C 29.29682 91.447443 26.677441 94.278582 26.677441 94.516711 C 26.677441 94.887121 27.603697 94.939941 35.488273 94.939941 L 44.272233 94.939941 L 47.209005 91.976815 C 48.822962 90.336396 50.913483 88.11348 51.89244 87.055151 C 53.347647 85.441193 53.6914 84.885769 53.929525 83.69515 C 54.088275 82.901401 54.141295 81.816819 54.035461 81.26119 C 53.929629 80.70557 53.691503 79.938163 53.506295 79.567753 C 53.321086 79.197333 51.760147 77.292338 50.040356 75.33442 C 48.347025 73.376512 43.7165 68.269937 39.800671 63.983691 C 35.858383 59.697446 32.101296 55.622656 31.466296 54.908276 L 30.302026 53.612231 L 54.088171 29.799731 C 76.154399 7.6805932 77.821399 5.9605579 77.212858 5.7753581 C 76.842442 5.6430582 72.794415 5.5635897 68.19067 5.5371297 L 59.82994 5.5107747 z M 166.77432 5.5107747 L 158.43994 5.5640015 C 153.86265 5.5640015 149.7615 5.6434032 149.33817 5.6962931 C 148.59734 5.802123 149.9733 7.2305818 172.46286 29.72015 L 196.35494 53.612231 L 188.70838 61.89338 C 184.52796 66.470665 179.50098 71.974112 177.56952 74.17015 C 175.61161 76.366188 173.70619 78.615259 173.30932 79.170878 C 172.67432 80.070467 172.59515 80.467233 172.59515 82.239941 C 172.59515 83.98619 172.70078 84.409732 173.30932 85.362231 C 173.70619 85.944321 175.90235 88.351915 178.17775 90.680253 L 182.30515 94.939941 L 191.14234 94.939941 C 196.38108 94.939941 199.97952 94.834013 199.97952 94.701713 C 199.97952 94.569423 199.66224 94.067014 199.26536 93.564315 C 198.89495 93.088065 196.24869 90.36275 193.41765 87.505253 C 190.58661 84.647756 188.31129 82.187335 188.36421 82.028585 C 188.41711 81.896295 191.56568 78.403582 195.37567 74.276086 C 199.15921 70.148591 203.47223 65.412753 204.9539 63.772335 C 206.43556 62.158376 208.52567 59.803272 209.61046 58.559733 C 211.19796 56.734115 211.64775 56.046292 211.85942 54.961503 C 212.01817 54.247124 212.15036 53.268271 212.15036 52.818481 C 212.15036 52.342232 211.88588 51.442339 211.59484 50.78088 C 211.1715 49.828381 205.95898 44.510556 188.89338 27.550773 L 166.77432 5.5107747 z M 35.673275 114.25452 C 30.169947 114.25452 26.915567 114.36036 26.809733 114.51911 C 26.730353 114.6514 26.836297 115.02171 27.047961 115.33921 C 27.259628 115.65671 29.878903 118.46129 32.89515 121.55692 L 38.371818 127.21911 L 31.228068 134.94473 C 27.312239 139.20452 22.205773 144.84037 19.850985 147.45973 C 17.496195 150.07911 15.379836 152.61921 15.141711 153.12192 C 14.903587 153.62463 14.639107 154.76233 14.58619 155.63546 C 14.480357 156.77317 14.586086 157.56682 14.877128 158.30765 C 15.194628 159.1014 20.697771 164.76329 37.551713 181.5114 L 59.776713 203.68369 L 68.6139 203.68369 C 74.567019 203.68369 77.5039 203.60439 77.609733 203.39275 C 77.715567 203.234 67.264511 192.59763 54.061816 179.34202 L 30.328898 155.58223 L 38.663273 146.48098 C 43.24056 141.50682 48.479317 135.68567 50.30494 133.59546 C 53.321187 130.15588 53.664942 129.65348 53.929525 128.35702 C 54.16765 127.32514 54.167545 126.58432 53.95588 125.5789 C 53.770672 124.75869 53.321086 123.85879 52.844836 123.27671 C 52.395046 122.74754 50.304937 120.49848 48.188273 118.27598 L 44.351815 114.25452 L 35.673275 114.25452 z M 182.30515 114.25452 L 178.20411 118.51421 C 175.95515 120.84254 173.78578 123.2239 173.3889 123.77952 C 172.93911 124.41452 172.64827 125.28755 172.54244 126.18713 C 172.46304 126.98088 172.54234 128.11858 172.70109 128.70067 C 172.8863 129.41504 173.65328 130.57921 174.89682 132.00796 C 175.92869 133.22504 178.89234 136.53255 181.43234 139.36359 C 183.99879 142.19463 188.39099 146.98369 191.19556 150.05286 L 196.32807 155.58223 L 172.59515 179.34202 C 158.83683 193.1268 148.91505 203.234 149.02088 203.39275 C 149.15317 203.60442 151.90485 203.68369 158.01671 203.68369 L 166.80067 203.68369 L 188.94661 181.67056 C 207.5468 163.14975 211.1713 159.41879 211.64755 158.334 C 212.09735 157.27568 212.17671 156.71994 212.04442 155.44994 C 211.93859 154.47098 211.62109 153.43921 211.25067 152.77775 C 210.88025 152.16922 208.57869 149.47067 206.14452 146.77192 C 203.71036 144.04671 198.70952 138.59608 195.08473 134.6538 C 191.45995 130.71151 188.41713 127.32504 188.36421 127.19275 C 188.31131 127.034 190.77223 124.38796 193.8414 121.29234 C 196.8841 118.22318 199.50348 115.44525 199.66223 115.15421 C 199.82098 114.83671 199.8739 114.519 199.79452 114.41317 C 199.71512 114.33377 195.71983 114.25452 190.95734 114.25452 L 182.30515 114.25452 z "
     inkscape:label="Noise" /><path
     id="path15"
     style="display:inline;stroke-width:0.0264583;fill:#8a9966;fill-opacity:1"
     d="m 204.98025,69.804525 c -0.0794,0 -2.4076,2.593126 -5.18573,5.768123 l -5.08031,5.741252 11.53573,11.562085 c 6.32355,6.349993 11.48323,11.668535 11.43031,11.800825 -0.0529,0.15875 -5.21251,5.47677 -11.45666,11.80032 -10.18645,10.37165 -11.29771,11.58886 -10.98021,12.01218 0.21166,0.23812 2.24917,2.59272 4.5775,5.21209 2.30187,2.61938 4.41834,5.00063 4.68292,5.29167 0.50271,0.50271 0.63511,0.39686 11.35072,-10.31875 L 226.70244,117.8264 V 104.59723 91.368066 L 215.90723,80.57286 C 209.98057,74.646206 205.05963,69.804525 204.98025,69.804525 Z M 21.650358,69.83088 c -0.07937,-0.0265 -4.974379,4.815737 -10.927498,10.768851 L -0.04547526,91.368066 V 104.59723 117.8264 L 10.749731,128.62161 c 5.926662,5.92666 10.847607,10.76833 10.926982,10.76833 0.07937,0 2.301878,-2.46052 4.894792,-5.45031 2.592914,-2.9898 4.842184,-5.60917 4.948018,-5.82084 0.15875,-0.26457 -2.857818,-3.49282 -11.165727,-11.95947 L 8.9503581,104.59723 20.486088,93.061503 32.021818,81.498901 26.91567,75.678068 C 24.084631,72.476611 21.729733,69.83088 21.650358,69.83088 Z"
     inkscape:label="Select" /></svg>
